<svg xmlns="http://www.w3.org/2000/svg" viewBox="0 0 81 82">
<path stroke="#fff" d="M0 0h81M0 1h81M0 2h81M0 3h81M0 4h81M0 5h81M0 6h81M0 7h81M0 8h7M74 8h7M0 9h7M74 9h7M0 10h7M39 10h1M74 10h7M0 11h7M39 11h1M74 11h7M0 12h7M39 12h1M74 12h7M0 13h7M39 13h1M74 13h7M0 14h7M39 14h1M74 14h7M0 15h7M39 15h1M74 15h7M0 16h7M39 16h1M74 16h7M0 17h7M39 17h1M43 17h2M74 17h7M0 18h7M39 18h1M43 18h2M74 18h7M0 19h7M39 19h1M43 19h2M74 19h7M0 20h7M39 20h1M43 20h2M74 20h7M0 21h7M39 21h1M43 21h2M74 21h7M0 22h7M39 22h1M43 22h2M74 22h7M0 23h7M39 23h1M43 23h2M74 23h7M0 24h7M39 24h1M43 24h2M74 24h7M0 25h7M43 25h2M74 25h7M0 26h7M28 26h2M43 26h2M74 26h7M0 27h7M28 27h2M43 27h2M74 27h7M0 28h7M16 28h2M28 28h2M38 28h2M43 28h2M66 28h2M74 28h7M0 29h7M16 29h2M28 29h2M38 29h2M43 29h2M66 29h2M74 29h7M0 30h7M16 30h2M28 30h2M38 30h2M43 30h2M66 30h2M74 30h7M0 31h7M16 31h2M38 31h2M43 31h2M66 31h2M74 31h7M0 32h7M16 32h2M38 32h2M43 32h2M66 32h2M74 32h7M0 33h7M16 33h2M38 33h2M43 33h2M66 33h2M74 33h7M0 34h7M16 34h2M38 34h2M43 34h2M55 34h2M74 34h7M0 35h7M16 35h2M55 35h2M74 35h7M0 36h7M16 36h2M37 36h2M55 36h2M74 36h7M0 37h7M16 37h2M37 37h2M55 37h2M74 37h7M0 38h7M16 38h2M37 38h4M55 38h2M74 38h7M0 39h7M16 39h2M37 39h4M55 39h2M74 39h7M0 40h7M16 40h2M37 40h4M55 40h2M74 40h7M0 41h7M37 41h4M74 41h7M0 42h7M37 42h4M74 42h7M0 43h7M37 43h4M74 43h7M0 44h7M22 44h2M37 44h4M74 44h7M0 45h7M22 45h2M37 45h4M74 45h7M0 46h7M22 46h2M37 46h4M74 46h7M0 47h7M22 47h2M37 47h6M48 47h1M71 47h2M74 47h7M0 48h7M22 48h2M37 48h6M48 48h1M71 48h2M74 48h7M0 49h7M22 49h2M37 49h6M48 49h1M71 49h2M74 49h7M0 50h7M22 50h2M37 50h6M48 50h1M71 50h2M74 50h7M0 51h7M9 51h2M22 51h4M39 51h4M48 51h1M60 51h2M74 51h7M0 52h7M9 52h2M24 52h2M39 52h4M48 52h1M60 52h2M74 52h7M0 53h7M9 53h2M24 53h2M39 53h4M48 53h1M60 53h2M74 53h7M0 54h7M9 54h2M24 54h2M31 54h4M39 54h4M48 54h1M60 54h2M74 54h7M0 55h7M9 55h2M24 55h2M31 55h4M39 55h4M48 55h1M60 55h2M74 55h7M0 56h7M24 56h2M31 56h4M39 56h4M48 56h1M60 56h2M74 56h7M0 57h7M21 57h2M24 57h2M31 57h4M39 57h4M48 57h1M60 57h2M74 57h7M0 58h7M21 58h2M48 58h1M60 58h2M74 58h7M0 59h7M21 59h2M48 59h1M60 59h2M74 59h7M0 60h7M21 60h2M33 60h11M45 60h6M60 60h2M74 60h7M0 61h7M21 61h2M33 61h11M45 61h6M60 61h4M74 61h7M0 62h7M21 62h2M28 62h4M33 62h11M45 62h6M60 62h4M74 62h7M0 63h7M21 63h2M28 63h4M33 63h11M60 63h4M74 63h7M0 64h7M28 64h4M33 64h11M60 64h4M74 64h7M0 65h7M14 65h2M33 65h11M46 65h12M62 65h2M74 65h7M0 66h7M14 66h2M33 66h11M46 66h12M62 66h2M74 66h7M0 67h7M14 67h2M20 67h12M33 67h11M46 67h12M62 67h2M74 67h7M0 68h7M14 68h2M20 68h12M33 68h11M46 68h12M74 68h7M0 69h7M14 69h2M20 69h12M33 69h11M46 69h12M74 69h7M0 70h7M20 70h12M46 70h12M74 70h7M0 71h7M20 71h12M46 71h12M74 71h7M0 72h81M0 73h81M0 74h81M0 75h81M0 76h81M0 77h81M0 78h81M0 79h81M0 80h81M0 81h81" />
</svg>