<svg xmlns="http://www.w3.org/2000/svg" viewBox="0 -0.5 82 82" shape-rendering="crispEdges">
<path stroke="#fff" d="M0 0h82M0 1h82M0 2h82M0 3h82M0 4h82M0 5h82M0 6h82M0 7h8M30 7h2M35 7h3M39 7h7M74 7h8M0 8h8M30 8h2M36 8h9M74 8h8M0 9h8M29 9h2M33 9h2M36 9h9M47 9h2M74 9h8M0 10h8M29 10h2M33 10h2M36 10h9M47 10h2M74 10h8M0 11h8M38 11h4M50 11h2M74 11h8M0 12h8M34 12h2M38 12h6M46 12h2M50 12h2M74 12h8M0 13h8M34 13h2M38 13h6M46 13h2M74 13h8M0 14h8M38 14h4M44 14h2M74 14h8M0 15h8M35 15h2M38 15h4M44 15h2M74 15h8M0 16h8M35 16h2M38 16h4M74 16h8M0 17h8M38 17h4M74 17h8M0 18h8M38 18h4M74 18h8M0 19h8M38 19h4M74 19h8M0 20h8M38 20h4M74 20h8M0 21h8M38 21h4M74 21h8M0 22h8M38 22h4M74 22h8M0 23h8M38 23h4M74 23h8M0 24h8M38 24h4M74 24h8M0 25h8M38 25h4M74 25h8M0 26h8M38 26h4M74 26h8M0 27h8M38 27h4M74 27h8M0 28h8M38 28h4M74 28h8M0 29h8M38 29h4M74 29h8M0 30h8M38 30h4M74 30h8M0 31h8M38 31h4M74 31h8M0 32h8M38 32h4M74 32h8M0 33h8M38 33h4M45 33h4M74 33h8M0 34h8M38 34h4M45 34h4M74 34h8M0 35h8M38 35h4M45 35h4M74 35h8M0 36h8M38 36h4M45 36h4M74 36h8M0 37h8M45 37h4M74 37h8M0 38h8M45 38h4M74 38h8M0 39h8M45 39h4M74 39h8M0 40h8M45 40h4M74 40h8M0 41h8M45 41h4M74 41h8M0 42h8M45 42h4M74 42h8M0 43h8M45 43h4M74 43h8M0 44h8M31 44h4M45 44h4M74 44h8M0 45h8M31 45h4M45 45h4M74 45h8M0 46h8M31 46h4M45 46h4M74 46h8M0 47h8M31 47h4M45 47h4M74 47h8M0 48h8M31 48h4M45 48h4M74 48h8M0 49h8M31 49h4M45 49h4M74 49h8M0 50h8M31 50h4M45 50h4M74 50h8M0 51h8M31 51h4M45 51h4M74 51h8M0 52h8M31 52h4M45 52h4M74 52h8M0 53h8M31 53h4M45 53h4M74 53h8M0 54h8M31 54h4M45 54h4M74 54h8M0 55h8M31 55h4M45 55h4M74 55h8M0 56h8M31 56h4M45 56h4M74 56h8M0 57h8M31 57h4M45 57h4M74 57h8M0 58h8M31 58h4M45 58h4M74 58h8M0 59h8M31 59h4M45 59h4M74 59h8M0 60h8M31 60h4M74 60h8M0 61h8M31 61h4M74 61h8M0 62h8M31 62h4M74 62h8M0 63h8M31 63h4M74 63h8M0 64h8M31 64h4M74 64h8M0 65h8M31 65h4M74 65h8M0 66h8M31 66h4M74 66h8M0 67h8M31 67h4M74 67h8M0 68h8M31 68h4M74 68h8M0 69h8M31 69h4M74 69h8M0 70h8M31 70h4M74 70h8M0 71h8M74 71h8M0 72h8M74 72h8M0 73h8M74 73h8M0 74h82M0 75h82M0 76h82M0 77h82M0 78h82M0 79h82M0 80h82M0 81h82" />
</svg>