<svg xmlns="http://www.w3.org/2000/svg" viewBox="0 0 100 100">
<path stroke="#fff" d="M46 0h7M46 1h7M46 2h7M45 3h9M45 4h10M8 5h5M18 5h4M27 5h4M36 5h4M44 5h11M59 5h5M68 5h5M77 5h5M86 5h5M7 6h6M18 6h4M27 6h4M36 6h4M44 6h11M59 6h5M68 6h5M77 6h5M86 6h6M6 7h7M18 7h4M27 7h4M36 7h4M43 7h13M59 7h5M68 7h5M77 7h5M86 7h7M5 8h8M18 8h4M27 8h4M36 8h4M43 8h14M59 8h5M68 8h5M77 8h5M86 8h8M4 9h91M4 10h91M4 11h91M4 12h91M4 13h91M9 14h82M9 15h82M9 16h82M9 17h10M80 17h11M4 18h14M81 18h14M4 19h13M82 19h13M4 20h12M83 20h12M4 21h12M83 21h12M4 22h12M73 22h7M83 22h12M9 23h7M19 23h20M73 23h7M83 23h8M9 24h7M19 24h20M73 24h7M83 24h8M9 25h7M19 25h20M77 25h3M83 25h8M9 26h7M19 26h3M83 26h8M4 27h12M19 27h3M83 27h12M4 28h12M62 28h14M83 28h12M4 29h12M62 29h14M83 29h12M4 30h12M29 30h4M62 30h14M83 30h12M9 31h7M21 31h4M29 31h4M73 31h3M83 31h8M9 32h7M21 32h4M29 32h4M73 32h3M83 32h8M9 33h7M20 33h20M54 33h6M73 33h3M83 33h8M9 34h7M20 34h20M54 34h6M83 34h8M9 35h7M20 35h20M54 35h6M83 35h8M4 36h12M20 36h5M40 36h3M54 36h6M62 36h4M83 36h12M4 37h12M20 37h3M40 37h3M51 37h3M62 37h4M75 37h3M83 37h12M4 38h12M20 38h3M40 38h3M51 38h3M62 38h4M75 38h3M83 38h12M4 39h12M40 39h3M51 39h3M62 39h4M75 39h3M83 39h12M9 40h7M30 40h4M40 40h3M51 40h3M75 40h3M83 40h8M9 41h7M30 41h4M40 41h3M51 41h3M83 41h8M9 42h7M23 42h3M30 42h4M83 42h8M7 43h9M23 43h3M30 43h4M83 43h9M5 44h11M23 44h3M30 44h4M83 44h11M4 45h12M23 45h3M43 45h3M83 45h13M1 46h15M23 46h3M43 46h3M53 46h4M73 46h4M83 46h15M0 47h16M23 47h3M43 47h3M53 47h4M73 47h4M83 47h17M0 48h16M23 48h23M53 48h4M73 48h4M83 48h17M0 49h16M23 49h23M53 49h24M83 49h17M0 50h16M23 50h23M53 50h24M83 50h17M0 51h16M53 51h24M83 51h17M0 52h16M83 52h17M1 53h15M83 53h15M2 54h14M83 54h14M5 55h11M83 55h11M7 56h9M83 56h9M9 57h7M83 57h8M9 58h7M83 58h8M9 59h7M83 59h8M4 60h12M24 60h3M73 60h4M83 60h12M4 61h12M24 61h3M73 61h4M83 61h12M4 62h12M24 62h3M73 62h4M83 62h12M4 63h12M24 63h3M73 63h4M83 63h12M9 64h7M24 64h19M59 64h18M83 64h8M9 65h7M24 65h19M59 65h18M83 65h8M9 66h7M24 66h19M59 66h18M83 66h8M9 67h7M43 67h16M83 67h8M9 68h7M43 68h16M83 68h8M4 69h12M23 69h3M43 69h16M83 69h12M4 70h12M23 70h3M83 70h12M4 71h12M23 71h3M83 71h12M4 72h12M23 72h20M59 72h12M83 72h12M9 73h7M23 73h20M59 73h12M83 73h8M9 74h7M23 74h20M59 74h12M83 74h8M9 75h7M23 75h48M83 75h8M9 76h7M43 76h16M83 76h8M9 77h7M43 77h16M83 77h8M4 78h12M83 78h12M4 79h12M83 79h12M4 80h13M82 80h13M4 81h14M81 81h14M9 82h10M80 82h11M9 83h82M9 84h82M9 85h82M9 86h82M4 87h91M4 88h91M4 89h91M4 90h91M5 91h8M18 91h4M27 91h4M36 91h4M43 91h14M59 91h5M68 91h5M77 91h5M86 91h8M6 92h7M18 92h4M27 92h4M36 92h4M43 92h13M59 92h5M68 92h5M77 92h5M86 92h7M7 93h6M18 93h4M27 93h4M36 93h4M43 93h13M59 93h5M68 93h5M77 93h5M86 93h7M8 94h5M18 94h4M27 94h4M36 94h4M44 94h11M59 94h5M68 94h5M77 94h5M86 94h5M45 95h10M45 96h9M46 97h7M46 98h7M46 99h7" />
</svg>