<svg xmlns="http://www.w3.org/2000/svg" viewBox="0 0 82 82">
<path stroke="#fff" d="M0 0h82M0 1h82M0 2h82M0 3h82M0 4h82M0 5h82M0 6h82M0 7h82M0 8h8M74 8h8M0 9h8M74 9h8M0 10h8M47 10h1M74 10h8M0 11h8M46 11h3M74 11h8M0 12h8M45 12h5M74 12h8M0 13h8M44 13h7M74 13h8M0 14h8M43 14h9M74 14h8M0 15h8M42 15h11M74 15h8M0 16h8M41 16h6M48 16h6M74 16h8M0 17h8M40 17h5M49 17h6M74 17h8M0 18h8M39 18h6M50 18h6M74 18h8M0 19h8M38 19h6M51 19h6M74 19h8M0 20h8M37 20h6M52 20h6M74 20h8M0 21h8M27 21h1M36 21h6M53 21h6M74 21h8M0 22h8M26 22h2M35 22h5M54 22h6M74 22h8M0 23h8M25 23h3M35 23h5M55 23h6M74 23h8M0 24h8M24 24h4M35 24h3M56 24h6M74 24h8M0 25h8M23 25h5M35 25h3M57 25h6M74 25h8M0 26h8M22 26h6M35 26h1M58 26h6M74 26h8M0 27h8M21 27h6M35 27h1M59 27h6M74 27h8M0 28h8M20 28h6M54 28h12M74 28h8M0 29h8M19 29h6M55 29h6M74 29h8M0 30h8M18 30h6M56 30h6M74 30h8M0 31h8M17 31h5M58 31h5M74 31h8M0 32h8M16 32h6M58 32h6M74 32h8M0 33h8M15 33h5M60 33h5M74 33h8M0 34h8M14 34h6M60 34h6M74 34h8M0 35h8M13 35h6M61 35h6M74 35h8M0 36h8M12 36h6M62 36h6M74 36h8M0 37h8M11 37h6M63 37h6M74 37h8M0 38h8M10 38h5M65 38h5M74 38h8M0 39h8M10 39h5M65 39h6M74 39h8M0 40h8M11 40h6M67 40h5M74 40h8M0 41h8M12 41h5M67 41h5M74 41h8M0 42h8M13 42h6M65 42h6M74 42h8M0 43h8M13 43h6M65 43h5M74 43h8M0 44h8M15 44h5M63 44h6M74 44h8M0 45h8M15 45h6M63 45h5M74 45h8M0 46h8M17 46h5M61 46h6M74 46h8M0 47h8M18 47h6M60 47h6M74 47h8M0 48h8M19 48h5M60 48h5M74 48h8M0 49h8M20 49h6M58 49h6M74 49h8M0 50h8M20 50h6M47 50h6M74 50h8M0 51h8M22 51h6M46 51h6M74 51h8M0 52h8M22 52h6M45 52h6M74 52h8M0 53h8M24 53h5M44 53h6M74 53h8M0 54h8M25 54h6M43 54h6M74 54h8M0 55h8M52 55h6M74 55h8M0 56h8M51 56h6M74 56h8M0 57h8M26 57h5M51 57h5M74 57h8M0 58h8M27 58h6M49 58h6M74 58h8M0 59h8M28 59h5M49 59h5M74 59h8M0 60h8M29 60h6M47 60h6M74 60h8M0 61h8M29 61h6M47 61h5M74 61h8M0 62h8M31 62h5M45 62h6M74 62h8M0 63h8M32 63h6M44 63h6M74 63h8M0 64h8M33 64h5M44 64h5M74 64h8M0 65h8M34 65h6M42 65h6M74 65h8M0 66h8M35 66h5M42 66h5M74 66h8M0 67h8M35 67h12M74 67h8M0 68h8M34 68h14M74 68h8M0 69h8M33 69h16M74 69h8M0 70h8M31 70h20M74 70h8M0 71h8M31 71h20M74 71h8M0 72h8M29 72h23M74 72h8M0 73h8M29 73h24M74 73h8M0 74h82M0 75h82M0 76h82M0 77h82M0 78h82M0 79h82M0 80h82M0 81h82" />
</svg>