<svg xmlns="http://www.w3.org/2000/svg" viewBox="0 0 82 82">
<path stroke="#fff" d="M0 0h82M0 1h82M0 2h82M0 3h82M0 4h82M0 5h82M0 6h82M0 7h82M0 8h8M46 8h25M74 8h8M0 9h8M47 9h23M74 9h8M0 10h8M47 10h22M74 10h8M0 11h8M47 11h22M74 11h8M0 12h8M48 12h21M74 12h8M0 13h8M49 13h19M74 13h8M0 14h8M49 14h18M74 14h8M0 15h8M49 15h18M74 15h8M0 16h8M50 16h17M74 16h8M0 17h8M51 17h15M74 17h8M0 18h8M51 18h14M74 18h8M0 19h8M52 19h13M74 19h8M0 20h8M52 20h13M74 20h8M0 21h8M53 21h11M74 21h8M0 22h8M53 22h10M74 22h8M0 23h8M54 23h9M74 23h8M0 24h8M54 24h9M74 24h8M0 25h8M32 25h30M74 25h8M0 26h8M33 26h29M74 26h8M0 27h8M33 27h22M56 27h5M74 27h8M0 28h8M34 28h20M56 28h4M74 28h8M0 29h8M34 29h20M56 29h4M74 29h8M0 30h8M35 30h19M57 30h3M74 30h8M0 31h8M35 31h18M58 31h1M74 31h8M0 32h8M36 32h17M74 32h8M0 33h8M36 33h17M74 33h8M0 34h8M37 34h15M74 34h8M0 35h8M37 35h14M74 35h8M0 36h8M38 36h13M74 36h8M0 37h8M38 37h12M74 37h8M0 38h8M38 38h12M74 38h8M0 39h8M39 39h10M74 39h8M0 40h8M40 40h9M74 40h8M0 41h8M40 41h8M74 41h8M0 42h8M41 42h6M74 42h8M0 43h8M33 43h1M41 43h6M74 43h8M0 44h8M32 44h3M42 44h5M74 44h8M0 45h8M32 45h3M42 45h4M74 45h8M0 46h8M31 46h4M43 46h3M74 46h8M0 47h8M9 47h1M31 47h5M43 47h3M74 47h8M0 48h11M30 48h7M44 48h1M74 48h8M0 49h11M30 49h7M74 49h8M0 50h12M22 50h2M30 50h7M74 50h8M0 51h12M22 51h2M30 51h8M74 51h8M0 52h13M22 52h2M30 52h8M74 52h8M0 53h14M21 53h4M30 53h9M74 53h8M0 54h14M21 54h5M30 54h9M74 54h8M0 55h14M20 55h6M30 55h10M74 55h8M0 56h15M20 56h6M30 56h10M74 56h8M0 57h15M19 57h8M30 57h11M74 57h8M0 58h8M19 58h9M30 58h12M74 58h8M0 59h8M18 59h10M30 59h12M74 59h8M0 60h8M17 60h12M30 60h12M74 60h8M0 61h8M17 61h12M30 61h13M74 61h8M0 62h8M17 62h13M74 62h8M0 63h8M16 63h14M51 63h1M74 63h8M0 64h8M15 64h16M50 64h3M74 64h8M0 65h8M15 65h16M49 65h4M74 65h8M0 66h8M15 66h16M49 66h4M74 66h8M0 67h8M14 67h18M49 67h5M74 67h8M0 68h8M14 68h19M48 68h6M74 68h8M0 69h8M13 69h20M47 69h8M74 69h8M0 70h8M13 70h20M47 70h8M74 70h8M0 71h8M12 71h22M47 71h9M74 71h8M0 72h8M12 72h23M46 72h10M74 72h8M0 73h8M11 73h24M46 73h11M74 73h8M0 74h82M0 75h82M0 76h82M0 77h82M0 78h82M0 79h82M0 80h82M0 81h82" />
</svg>