<svg xmlns="http://www.w3.org/2000/svg" viewBox="0 0 82 82">
<path stroke="#fff" d="M0 0h82M0 1h82M0 2h82M0 3h82M0 4h82M0 5h82M0 6h82M0 7h82M0 8h8M43 8h4M49 8h3M54 8h3M74 8h8M0 9h8M43 9h5M49 9h8M74 9h8M0 10h8M43 10h5M49 10h8M74 10h8M0 11h8M45 11h3M49 11h7M74 11h8M0 12h8M49 12h3M74 12h8M0 13h8M49 13h3M74 13h8M0 14h8M49 14h3M74 14h8M0 15h8M49 15h3M74 15h8M0 16h8M34 16h3M49 16h3M74 16h8M0 17h8M34 17h3M49 17h3M74 17h8M0 18h8M34 18h3M49 18h3M74 18h8M0 19h8M34 19h3M49 19h3M74 19h8M0 20h8M34 20h3M49 20h3M74 20h8M0 21h8M34 21h3M49 21h3M74 21h8M0 22h8M17 22h26M45 22h4M74 22h8M0 23h8M17 23h26M45 23h4M74 23h8M0 24h8M17 24h26M45 24h4M74 24h8M0 25h8M34 25h3M45 25h4M74 25h8M0 26h8M34 26h3M45 26h4M74 26h8M0 27h9M34 27h3M45 27h4M72 27h10M0 28h11M34 28h3M45 28h4M70 28h12M0 29h11M34 29h3M45 29h4M70 29h12M0 30h11M34 30h3M45 30h4M70 30h3M74 30h8M0 31h8M34 31h3M45 31h4M74 31h8M0 32h58M61 32h21M0 33h58M61 33h21M0 34h58M61 34h21M0 35h8M34 35h3M45 35h4M74 35h8M0 36h11M34 36h3M45 36h4M70 36h3M74 36h8M0 37h11M34 37h3M45 37h4M70 37h3M74 37h8M0 38h11M34 38h3M45 38h4M70 38h12M0 39h9M34 39h3M45 39h4M72 39h10M0 40h8M34 40h3M45 40h4M72 40h10M0 41h8M34 41h3M45 41h4M74 41h8M0 42h8M34 42h3M45 42h4M74 42h8M0 43h8M45 43h4M74 43h8M0 44h8M45 44h4M74 44h8M0 45h8M45 45h4M74 45h8M0 46h8M45 46h4M74 46h8M0 47h9M45 47h4M74 47h8M0 48h11M45 48h4M74 48h8M0 49h11M45 49h4M74 49h8M0 50h11M45 50h4M74 50h8M0 51h11M45 51h4M74 51h8M0 52h16M45 52h4M74 52h8M0 53h16M45 53h4M74 53h8M0 54h16M45 54h4M74 54h8M0 55h8M45 55h4M74 55h8M0 56h11M45 56h4M74 56h8M0 57h11M49 57h3M74 57h8M0 58h11M49 58h3M74 58h8M0 59h9M49 59h3M74 59h8M0 60h9M49 60h3M74 60h8M0 61h8M49 61h3M74 61h8M0 62h8M49 62h3M74 62h8M0 63h8M49 63h3M74 63h8M0 64h8M49 64h3M74 64h8M0 65h8M49 65h3M74 65h8M0 66h8M49 66h3M74 66h8M0 67h8M49 67h3M74 67h8M0 68h8M49 68h3M74 68h8M0 69h8M49 69h3M74 69h8M0 70h8M49 70h3M74 70h8M0 71h8M45 71h3M49 71h7M74 71h8M0 72h8M43 72h5M49 72h8M74 72h8M0 73h8M43 73h5M49 73h8M74 73h8M0 74h8M43 74h3M49 74h3M54 74h3M74 74h8M0 75h82M0 76h82M0 77h82M0 78h82M0 79h82M0 80h82M0 81h82" />
</svg>