<svg xmlns="http://www.w3.org/2000/svg" viewBox="0 0 82 82">
<path stroke="#fff" d="M0 0h82M0 1h82M0 2h82M0 3h82M0 4h82M0 5h82M0 6h82M0 7h82M0 8h8M74 8h8M0 9h8M74 9h8M0 10h8M74 10h8M0 11h8M74 11h8M0 12h8M74 12h8M0 13h8M41 13h1M74 13h8M0 14h8M40 14h3M74 14h8M0 15h8M39 15h4M74 15h8M0 16h8M38 16h7M74 16h8M0 17h8M37 17h8M74 17h8M0 18h8M36 18h11M74 18h8M0 19h8M34 19h14M74 19h8M0 20h8M34 20h15M74 20h8M0 21h8M33 21h17M74 21h8M0 22h8M32 22h18M74 22h8M0 23h8M31 23h9M42 23h10M74 23h8M0 24h8M30 24h10M43 24h9M74 24h8M0 25h8M29 25h9M44 25h10M74 25h8M0 26h8M28 26h10M45 26h9M74 26h8M0 27h8M27 27h9M40 27h1M46 27h10M74 27h8M0 28h8M25 28h10M39 28h3M47 28h10M74 28h8M0 29h8M25 29h9M38 29h5M48 29h10M74 29h8M0 30h8M24 30h9M37 30h7M49 30h10M74 30h8M0 31h8M23 31h10M36 31h9M50 31h9M74 31h8M0 32h8M22 32h9M35 32h11M51 32h10M74 32h8M0 33h8M21 33h10M34 33h13M52 33h9M74 33h8M0 34h8M20 34h9M33 34h15M53 34h10M74 34h8M0 35h8M18 35h10M32 35h17M54 35h10M74 35h8M0 36h8M18 36h9M31 36h19M55 36h10M74 36h8M0 37h8M17 37h9M30 37h10M42 37h9M56 37h10M74 37h8M0 38h8M16 38h9M29 38h10M42 38h10M57 38h9M74 38h8M0 39h8M15 39h9M28 39h10M43 39h10M58 39h10M74 39h8M0 40h8M14 40h10M27 40h10M44 40h10M59 40h9M74 40h8M0 41h8M13 41h9M26 41h10M45 41h10M60 41h10M74 41h8M0 42h8M13 42h9M25 42h10M46 42h10M61 42h9M74 42h8M0 43h8M13 43h7M24 43h10M47 43h10M62 43h8M74 43h8M0 44h8M13 44h6M23 44h10M49 44h9M63 44h7M74 44h8M0 45h8M13 45h5M22 45h10M49 45h10M64 45h6M74 45h8M0 46h8M13 46h4M21 46h10M50 46h10M65 46h5M74 46h8M0 47h8M13 47h4M20 47h10M51 47h10M66 47h4M74 47h8M0 48h8M13 48h2M19 48h10M52 48h10M67 48h3M74 48h8M0 49h8M13 49h2M18 49h10M53 49h10M68 49h2M74 49h8M0 50h8M17 50h10M54 50h10M69 50h1M74 50h8M0 51h8M16 51h9M56 51h9M74 51h8M0 52h8M15 52h10M56 52h10M74 52h8M0 53h8M14 53h10M58 53h9M74 53h8M0 54h8M13 54h10M58 54h10M74 54h8M0 55h8M12 55h10M59 55h10M74 55h8M0 56h8M12 56h9M60 56h9M74 56h8M0 57h8M12 57h8M61 57h8M74 57h8M0 58h8M12 58h7M62 58h7M74 58h8M0 59h8M12 59h6M63 59h6M74 59h8M0 60h8M12 60h5M65 60h4M74 60h8M0 61h8M12 61h4M65 61h4M74 61h8M0 62h8M12 62h3M66 62h3M74 62h8M0 63h8M12 63h2M67 63h2M74 63h8M0 64h8M12 64h1M68 64h1M74 64h8M0 65h8M74 65h8M0 66h8M74 66h8M0 67h8M74 67h8M0 68h8M74 68h8M0 69h8M74 69h8M0 70h8M74 70h8M0 71h8M74 71h8M0 72h8M74 72h8M0 73h8M74 73h8M0 74h8M74 74h8M0 75h82M0 76h82M0 77h82M0 78h82M0 79h82M0 80h82M0 81h82" />
</svg>