<svg xmlns="http://www.w3.org/2000/svg" viewBox="0 0 82 82">
<path stroke="#fff" d="M0 0h82M0 1h82M0 2h82M0 3h82M0 4h82M0 5h82M0 6h82M0 7h82M0 8h8M75 8h7M0 9h8M75 9h7M0 10h8M75 10h7M0 11h8M75 11h7M0 12h8M75 12h7M0 13h8M75 13h7M0 14h8M75 14h7M0 15h8M55 15h1M75 15h7M0 16h8M35 16h8M54 16h1M75 16h7M0 17h8M35 17h1M42 17h1M53 17h2M75 17h7M0 18h8M35 18h1M42 18h1M52 18h2M75 18h7M0 19h8M35 19h1M42 19h1M52 19h1M75 19h7M0 20h8M35 20h1M42 20h1M51 20h2M75 20h7M0 21h8M35 21h1M42 21h1M51 21h1M75 21h7M0 22h8M35 22h1M42 22h1M50 22h1M75 22h7M0 23h8M35 23h1M42 23h1M49 23h2M75 23h7M0 24h8M35 24h8M48 24h2M75 24h7M0 25h8M48 25h1M75 25h7M0 26h8M47 26h2M75 26h7M0 27h8M46 27h2M75 27h7M0 28h8M35 28h9M46 28h2M75 28h7M0 29h8M35 29h2M43 29h3M75 29h7M0 30h8M35 30h2M43 30h3M75 30h7M0 31h8M35 31h2M43 31h2M75 31h7M0 32h8M34 32h3M43 32h1M75 32h7M0 33h8M33 33h4M43 33h1M75 33h7M0 34h8M32 34h2M35 34h2M43 34h1M75 34h7M0 35h8M31 35h2M35 35h2M43 35h1M75 35h7M0 36h8M30 36h2M35 36h2M43 36h1M75 36h7M0 37h8M30 37h1M35 37h2M43 37h1M75 37h7M0 38h8M28 38h2M35 38h2M43 38h1M75 38h7M0 39h8M28 39h2M35 39h2M43 39h1M75 39h7M0 40h8M27 40h1M35 40h2M43 40h1M75 40h7M0 41h8M25 41h2M35 41h2M43 41h1M75 41h7M0 42h8M25 42h2M35 42h2M43 42h1M75 42h7M0 43h8M24 43h1M35 43h2M43 43h1M75 43h7M0 44h8M35 44h2M43 44h1M75 44h7M0 45h8M35 45h2M43 45h1M75 45h7M0 46h8M35 46h2M43 46h1M75 46h7M0 47h8M35 47h2M43 47h1M75 47h7M0 48h8M35 48h2M43 48h1M75 48h7M0 49h8M35 49h2M43 49h1M75 49h7M0 50h8M35 50h9M75 50h7M0 51h8M37 51h2M41 51h2M75 51h7M0 52h8M37 52h2M42 52h1M75 52h7M0 53h8M37 53h2M42 53h2M75 53h7M0 54h8M37 54h1M43 54h1M75 54h7M0 55h8M37 55h1M43 55h1M75 55h7M0 56h8M36 56h2M43 56h2M75 56h7M0 57h8M36 57h1M44 57h1M75 57h7M0 58h8M36 58h1M43 58h2M75 58h7M0 59h8M35 59h2M43 59h1M75 59h7M0 60h8M35 60h2M43 60h1M75 60h7M0 61h8M35 61h2M42 61h1M75 61h7M0 62h8M35 62h1M41 62h2M75 62h7M0 63h8M35 63h1M41 63h2M75 63h7M0 64h8M34 64h1M75 64h7M0 65h8M34 65h1M75 65h7M0 66h8M34 66h1M75 66h7M0 67h8M34 67h1M75 67h7M0 68h8M34 68h1M75 68h7M0 69h8M75 69h7M0 70h8M75 70h7M0 71h8M75 71h7M0 72h8M75 72h7M0 73h8M75 73h7M0 74h8M75 74h7M0 75h82M0 76h82M0 77h82M0 78h82M0 79h82M0 80h82M0 81h82" />
</svg>