<svg xmlns="http://www.w3.org/2000/svg" viewBox="0 0 82 82">
<path stroke="#fff" d="M0 0h82M0 1h82M0 2h82M0 3h82M0 4h82M0 5h82M0 6h82M0 7h22M74 7h8M0 8h22M74 8h8M0 9h22M74 9h8M0 10h22M74 10h8M0 11h22M74 11h8M0 12h22M74 12h8M0 13h22M74 13h8M0 14h22M74 14h8M0 15h22M74 15h8M0 16h22M74 16h8M0 17h22M74 17h8M0 18h22M74 18h8M0 19h22M74 19h8M0 20h22M74 20h8M0 21h22M74 21h8M0 22h22M74 22h8M0 23h8M74 23h8M0 24h8M74 24h8M0 25h8M74 25h8M0 26h8M74 26h8M0 27h8M47 27h35M0 28h8M47 28h35M0 29h8M47 29h35M0 30h8M47 30h35M0 31h8M47 31h35M0 32h8M47 32h35M0 33h8M47 33h35M0 34h8M47 34h35M0 35h8M47 35h35M0 36h8M47 36h35M0 37h8M47 37h35M0 38h8M47 38h35M0 39h8M47 39h35M0 40h8M47 40h35M0 41h8M47 41h35M0 42h8M47 42h35M0 43h8M47 43h35M0 44h8M47 44h35M0 45h8M47 45h35M0 46h8M47 46h35M0 47h8M47 47h35M0 48h8M62 48h20M0 49h8M62 49h20M0 50h8M62 50h20M0 51h8M62 51h20M0 52h8M62 52h20M0 53h8M62 53h20M0 54h8M62 54h20M0 55h8M62 55h20M0 56h8M62 56h20M0 57h8M62 57h20M0 58h31M62 58h20M0 59h31M62 59h20M0 60h31M62 60h20M0 61h31M74 61h8M0 62h31M74 62h8M0 63h31M74 63h8M0 64h31M74 64h8M0 65h31M74 65h8M0 66h31M74 66h8M0 67h31M74 67h8M0 68h31M74 68h8M0 69h31M74 69h8M0 70h31M74 70h8M0 71h31M74 71h8M0 72h31M74 72h8M0 73h31M74 73h8M0 74h82M0 75h82M0 76h82M0 77h82M0 78h82M0 79h82M0 80h82M0 81h82" />
</svg>