<svg xmlns="http://www.w3.org/2000/svg" viewBox="0 0 82 82">
<path stroke="#fff" d="M0 0h82M0 1h82M0 2h82M0 3h82M0 4h82M0 5h82M0 6h82M0 7h82M0 8h8M75 8h7M0 9h8M75 9h7M0 10h8M75 10h7M0 11h8M75 11h7M0 12h8M75 12h7M0 13h8M75 13h7M0 14h8M26 14h21M75 14h7M0 15h8M23 15h24M75 15h7M0 16h8M23 16h24M75 16h7M0 17h8M26 17h21M75 17h7M0 18h8M75 18h7M0 19h8M75 19h7M0 20h8M75 20h7M0 21h8M75 21h7M0 22h8M75 22h7M0 23h8M75 23h7M0 24h8M75 24h7M0 25h8M50 25h21M75 25h7M0 26h8M49 26h22M75 26h7M0 27h8M48 27h23M75 27h7M0 28h8M49 28h22M75 28h7M0 29h8M75 29h7M0 30h8M75 30h7M0 31h8M75 31h7M0 32h8M75 32h7M0 33h8M75 33h7M0 34h8M31 34h34M75 34h7M0 35h8M30 35h35M75 35h7M0 36h8M28 36h37M75 36h7M0 37h8M27 37h38M75 37h7M0 38h8M25 38h40M75 38h7M0 39h8M25 39h40M75 39h7M0 40h8M23 40h42M75 40h7M0 41h8M21 41h44M75 41h7M0 42h8M20 42h45M75 42h7M0 43h8M18 43h47M75 43h7M0 44h8M19 44h46M75 44h7M0 45h8M22 45h43M75 45h7M0 46h8M23 46h42M75 46h7M0 47h8M25 47h40M75 47h7M0 48h8M27 48h38M75 48h7M0 49h8M29 49h36M75 49h7M0 50h8M31 50h34M75 50h7M0 51h8M75 51h7M0 52h8M75 52h7M0 53h8M75 53h7M0 54h8M75 54h7M0 55h8M75 55h7M0 56h8M75 56h7M0 57h8M46 57h20M75 57h7M0 58h8M45 58h21M75 58h7M0 59h8M43 59h23M75 59h7M0 60h8M45 60h21M75 60h7M0 61h8M75 61h7M0 62h8M75 62h7M0 63h8M75 63h7M0 64h8M75 64h7M0 65h8M75 65h7M0 66h8M23 66h20M75 66h7M0 67h8M22 67h21M75 67h7M0 68h8M20 68h23M75 68h7M0 69h8M22 69h21M75 69h7M0 70h8M75 70h7M0 71h8M75 71h7M0 72h8M75 72h7M0 73h8M75 73h7M0 74h82M0 75h82M0 76h82M0 77h82M0 78h82M0 79h82M0 80h82M0 81h82" />
</svg>