<svg xmlns="http://www.w3.org/2000/svg" viewBox="0 0 100 100">
<path stroke="#fff" d="M47 0h6M46 1h8M45 2h9M45 3h9M9 4h4M18 4h4M27 4h4M36 4h4M45 4h10M59 4h5M68 4h5M77 4h5M86 4h5M8 5h5M18 5h4M27 5h4M36 5h4M44 5h11M59 5h5M68 5h5M77 5h5M86 5h5M7 6h6M18 6h4M27 6h4M36 6h4M43 6h13M59 6h5M68 6h5M77 6h5M86 6h7M6 7h7M18 7h4M27 7h4M36 7h4M43 7h14M59 7h5M68 7h5M77 7h5M86 7h8M5 8h8M18 8h4M27 8h4M36 8h4M43 8h14M59 8h5M68 8h5M77 8h5M86 8h9M4 9h91M4 10h91M4 11h91M4 12h91M9 13h82M9 14h82M9 15h82M9 16h11M80 16h11M9 17h10M80 17h11M4 18h14M20 18h5M35 18h8M50 18h2M82 18h13M4 19h13M20 19h5M34 19h8M49 19h5M82 19h13M4 20h12M19 20h6M34 20h7M48 20h9M83 20h12M4 21h12M19 21h6M34 21h7M48 21h11M83 21h12M9 22h7M19 22h6M33 22h7M47 22h15M83 22h8M9 23h7M19 23h6M32 23h7M46 23h19M83 23h8M9 24h7M19 24h6M32 24h7M46 24h20M83 24h8M9 25h7M18 25h6M31 25h7M45 25h6M52 25h18M83 25h8M9 26h7M18 26h6M31 26h7M44 26h7M53 26h18M83 26h8M4 27h12M18 27h6M30 27h7M43 27h7M55 27h17M83 27h12M4 28h12M18 28h6M29 28h8M43 28h7M57 28h15M83 28h12M4 29h12M18 29h5M29 29h7M42 29h6M60 29h12M83 29h12M4 30h12M18 30h5M28 30h7M41 30h7M63 30h10M83 30h12M9 31h7M18 31h5M28 31h7M41 31h6M51 31h2M64 31h9M83 31h8M9 32h7M18 32h5M29 32h5M39 32h8M50 32h5M65 32h8M83 32h8M9 33h7M18 33h5M29 33h5M39 33h7M48 33h9M66 33h7M83 33h8M9 34h7M18 34h5M29 34h6M38 34h7M47 34h12M66 34h7M83 34h8M9 35h7M17 35h7M30 35h5M38 35h7M47 35h14M66 35h7M83 35h8M4 36h12M17 36h8M31 36h5M37 36h7M45 36h8M55 36h8M68 36h5M83 36h12M4 37h12M17 37h9M31 37h5M37 37h6M44 37h8M60 37h3M68 37h5M83 37h12M4 38h12M18 38h9M31 38h6M38 38h12M68 38h5M83 38h12M4 39h12M19 39h10M32 39h17M69 39h4M83 39h12M9 40h7M20 40h9M32 40h16M70 40h3M83 40h8M9 41h7M22 41h9M32 41h25M70 41h3M83 41h8M9 42h7M22 42h10M33 42h24M71 42h2M83 42h8M6 43h10M23 43h10M34 43h23M71 43h3M83 43h10M5 44h11M24 44h28M55 44h2M71 44h3M83 44h12M2 45h14M26 45h27M55 45h2M72 45h2M83 45h14M0 46h16M27 46h27M55 46h5M83 46h17M0 47h16M28 47h32M83 47h17M0 48h16M29 48h31M83 48h17M0 49h16M31 49h29M83 49h17M0 50h16M31 50h29M83 50h17M0 51h16M31 51h29M83 51h17M0 52h16M30 52h22M54 52h6M83 52h17M1 53h15M29 53h23M54 53h6M83 53h15M4 54h12M28 54h23M54 54h3M83 54h13M6 55h10M27 55h30M83 55h10M7 56h9M26 56h31M79 56h1M83 56h9M9 57h7M25 57h22M78 57h2M83 57h8M9 58h7M25 58h22M71 58h1M77 58h3M83 58h8M4 59h12M23 59h25M69 59h4M77 59h2M83 59h12M4 60h12M23 60h8M32 60h16M68 60h5M77 60h2M83 60h12M4 61h12M22 61h8M32 61h41M76 61h3M83 61h12M4 62h12M21 62h8M31 62h6M38 62h5M44 62h25M75 62h4M83 62h12M4 63h12M20 63h9M31 63h6M38 63h5M45 63h21M75 63h4M83 63h12M9 64h7M19 64h8M31 64h5M38 64h5M45 64h17M74 64h4M83 64h8M9 65h7M19 65h8M30 65h6M38 65h6M46 65h14M74 65h4M83 65h8M9 66h7M18 66h7M30 66h6M37 66h9M50 66h5M73 66h5M83 66h8M9 67h7M18 67h7M29 67h7M37 67h10M73 67h4M83 67h8M4 68h12M18 68h6M29 68h6M37 68h11M72 68h5M83 68h12M4 69h12M18 69h5M29 69h5M38 69h11M72 69h5M83 69h12M4 70h12M18 70h4M28 70h6M40 70h11M70 70h7M83 70h12M4 71h12M18 71h3M28 71h6M42 71h10M60 71h17M83 71h12M4 72h12M18 72h3M29 72h6M43 72h11M55 72h22M83 72h12M9 73h7M18 73h2M29 73h7M45 73h31M83 73h8M9 74h7M18 74h1M29 74h7M47 74h29M83 74h8M9 75h7M30 75h7M48 75h27M83 75h8M9 76h7M30 76h7M50 76h25M83 76h8M4 77h12M31 77h7M52 77h12M83 77h12M4 78h12M31 78h8M83 78h12M4 79h12M31 79h8M83 79h12M4 80h14M32 80h7M82 80h13M4 81h14M81 81h14M9 82h11M80 82h11M9 83h82M9 84h82M9 85h82M4 86h91M4 87h91M4 88h91M4 89h91M4 90h91M6 91h7M18 91h4M27 91h4M36 91h4M43 91h14M59 91h5M68 91h5M77 91h5M86 91h8M6 92h7M18 92h4M27 92h4M36 92h4M43 92h13M59 92h5M68 92h5M77 92h5M86 92h7M7 93h6M18 93h4M27 93h4M36 93h4M44 93h11M59 93h5M68 93h5M77 93h5M86 93h6M9 94h4M18 94h4M27 94h4M36 94h4M45 94h10M59 94h5M68 94h5M77 94h5M86 94h5M45 95h10M45 96h9M46 97h8M47 98h6M47 99h6" />
</svg>