<svg xmlns="http://www.w3.org/2000/svg" viewBox="0 0 82 82">
<path stroke="#fff" d="M0 0h82M0 1h82M0 2h82M0 3h82M0 4h82M0 5h82M0 6h82M0 7h8M74 7h8M0 8h8M74 8h8M0 9h8M74 9h8M0 10h8M74 10h8M0 11h8M74 11h8M0 12h8M74 12h8M0 13h8M74 13h8M0 14h8M74 14h8M0 15h8M15 15h51M74 15h8M0 16h8M15 16h51M74 16h8M0 17h8M15 17h51M74 17h8M0 18h8M15 18h3M63 18h3M74 18h8M0 19h8M15 19h3M63 19h3M74 19h8M0 20h8M15 20h3M63 20h3M74 20h8M0 21h8M15 21h3M63 21h3M74 21h8M0 22h8M9 22h9M63 22h3M74 22h8M0 23h8M9 23h9M63 23h9M74 23h8M0 24h8M9 24h9M63 24h9M74 24h8M0 25h8M15 25h3M63 25h9M74 25h8M0 26h8M15 26h3M63 26h9M74 26h8M0 27h8M15 27h3M63 27h3M74 27h8M0 28h8M15 28h3M63 28h3M74 28h8M0 29h8M15 29h3M63 29h3M74 29h8M0 30h8M15 30h3M63 30h3M74 30h8M0 31h8M15 31h3M63 31h3M74 31h8M0 32h8M15 32h3M63 32h3M74 32h8M0 33h8M15 33h3M63 33h3M74 33h8M0 34h8M15 34h3M22 34h7M34 34h11M49 34h3M55 34h3M63 34h3M74 34h8M0 35h8M15 35h3M22 35h7M34 35h11M49 35h3M55 35h3M63 35h3M74 35h8M0 36h8M15 36h3M22 36h7M34 36h11M49 36h3M55 36h3M63 36h3M74 36h8M0 37h8M15 37h3M22 37h3M34 37h3M42 37h3M49 37h3M55 37h3M63 37h3M74 37h8M0 38h8M15 38h3M22 38h3M34 38h3M42 38h3M49 38h3M55 38h3M63 38h3M74 38h8M0 39h8M15 39h3M22 39h3M34 39h3M42 39h3M49 39h3M55 39h3M63 39h3M74 39h8M0 40h8M15 40h3M22 40h3M34 40h3M42 40h3M49 40h3M55 40h3M63 40h3M74 40h8M0 41h8M15 41h3M22 41h3M34 41h11M49 41h3M55 41h3M63 41h3M74 41h8M0 42h8M15 42h3M22 42h3M34 42h11M49 42h3M55 42h3M63 42h3M74 42h8M0 43h8M15 43h3M22 43h3M34 43h11M49 43h3M55 43h3M63 43h3M74 43h8M0 44h8M15 44h3M22 44h3M34 44h3M49 44h3M55 44h3M63 44h3M74 44h8M0 45h8M15 45h3M22 45h3M34 45h3M49 45h3M55 45h3M63 45h3M74 45h8M0 46h8M15 46h3M22 46h7M34 46h3M49 46h3M55 46h3M63 46h3M74 46h8M0 47h8M15 47h3M22 47h7M34 47h3M49 47h9M63 47h3M74 47h8M0 48h8M15 48h3M22 48h7M34 48h3M49 48h9M63 48h3M74 48h8M0 49h8M15 49h3M34 49h3M49 49h9M63 49h3M74 49h8M0 50h8M15 50h3M63 50h3M74 50h8M0 51h8M15 51h3M63 51h3M74 51h8M0 52h8M15 52h3M63 52h3M74 52h8M0 53h8M15 53h3M63 53h3M74 53h8M0 54h8M15 54h3M63 54h3M74 54h8M0 55h8M10 55h8M63 55h3M74 55h8M0 56h8M10 56h8M63 56h3M74 56h8M0 57h8M10 57h8M63 57h10M74 57h8M0 58h8M15 58h3M63 58h10M74 58h8M0 59h8M15 59h3M63 59h10M74 59h8M0 60h8M15 60h3M63 60h10M74 60h8M0 61h8M15 61h3M63 61h3M74 61h8M0 62h8M15 62h3M63 62h3M74 62h8M0 63h8M15 63h51M74 63h8M0 64h8M15 64h51M74 64h8M0 65h8M15 65h51M74 65h8M0 66h8M74 66h8M0 67h8M74 67h8M0 68h8M74 68h8M0 69h8M74 69h8M0 70h8M74 70h8M0 71h8M74 71h8M0 72h8M74 72h8M0 73h8M74 73h8M0 74h82M0 75h82M0 76h82M0 77h82M0 78h82M0 79h82M0 80h82M0 81h82" />
</svg>