<svg xmlns="http://www.w3.org/2000/svg" viewBox="0 0 82 82">
<path stroke="#fff" d="M0 0h82M0 1h82M0 2h82M0 3h82M0 4h82M0 5h82M0 6h82M0 7h82M0 8h8M40 8h7M74 8h8M0 9h8M36 9h7M74 9h8M0 10h8M35 10h7M74 10h8M0 11h8M31 11h7M74 11h8M0 12h8M29 12h7M74 12h8M0 13h8M13 13h9M26 13h6M74 13h8M0 14h8M13 14h9M24 14h6M74 14h8M0 15h8M13 15h14M74 15h8M0 16h8M13 16h10M74 16h8M0 17h8M13 17h9M74 17h8M0 18h8M13 18h9M74 18h8M0 19h8M13 19h11M74 19h8M0 20h8M13 20h15M74 20h8M0 21h8M13 21h17M74 21h8M0 22h8M13 22h9M27 22h8M74 22h8M0 23h8M29 23h7M74 23h8M0 24h8M33 24h7M74 24h8M0 25h8M37 25h8M74 25h8M0 26h8M39 26h8M74 26h8M0 27h8M43 27h8M74 27h8M0 28h8M45 28h8M58 28h10M74 28h8M0 29h8M50 29h18M74 29h8M0 30h8M52 30h16M74 30h8M0 31h8M56 31h12M74 31h8M0 32h8M58 32h10M74 32h8M0 33h8M58 33h10M74 33h8M0 34h8M58 34h10M74 34h8M0 35h8M58 35h10M74 35h8M0 36h8M58 36h10M74 36h8M0 37h8M58 37h10M74 37h8M0 38h8M57 38h2M65 38h3M74 38h8M0 39h8M56 39h3M65 39h3M74 39h8M0 40h8M55 40h3M67 40h2M74 40h8M0 41h8M54 41h3M67 41h3M74 41h8M0 42h8M53 42h3M68 42h2M74 42h8M0 43h8M52 43h3M68 43h3M74 43h8M0 44h8M52 44h3M69 44h3M74 44h8M0 45h8M51 45h3M70 45h2M74 45h8M0 46h8M50 46h3M70 46h3M74 46h8M0 47h10M49 47h3M71 47h11M0 48h11M48 48h3M72 48h10M0 49h13M47 49h4M72 49h10M0 50h8M10 50h4M46 50h3M73 50h9M0 51h8M11 51h4M46 51h3M74 51h8M0 52h8M13 52h4M45 52h3M74 52h8M0 53h8M14 53h4M44 53h3M74 53h8M0 54h8M16 54h4M43 54h3M74 54h8M0 55h8M17 55h3M43 55h2M74 55h8M0 56h8M19 56h3M42 56h3M74 56h8M0 57h8M20 57h4M40 57h3M74 57h8M0 58h8M21 58h4M40 58h3M74 58h8M0 59h8M23 59h4M39 59h3M74 59h8M0 60h8M24 60h4M29 60h12M74 60h8M0 61h8M26 61h14M74 61h8M0 62h8M27 62h13M74 62h8M0 63h8M29 63h9M74 63h8M0 64h8M29 64h9M74 64h8M0 65h8M29 65h9M74 65h8M0 66h8M27 66h11M74 66h8M0 67h8M26 67h12M74 67h8M0 68h8M24 68h4M29 68h9M74 68h8M0 69h8M22 69h5M29 69h9M74 69h8M0 70h8M20 70h5M74 70h8M0 71h8M19 71h5M74 71h8M0 72h8M17 72h5M74 72h8M0 73h8M15 73h4M74 73h8M0 74h82M0 75h82M0 76h82M0 77h82M0 78h82M0 79h82M0 80h82M0 81h82" />
</svg>