<svg xmlns="http://www.w3.org/2000/svg" viewBox="0 0 82 82">
<path stroke="#fff" d="M0 0h82M0 1h82M0 2h82M0 3h82M0 4h82M0 5h82M0 6h82M0 7h82M0 8h8M74 8h8M0 9h8M74 9h8M0 10h8M74 10h8M0 11h8M74 11h8M0 12h8M74 12h8M0 13h8M74 13h8M0 14h8M74 14h8M0 15h8M13 15h57M74 15h8M0 16h8M13 16h6M24 16h4M33 16h4M42 16h4M50 16h5M59 16h5M68 16h2M74 16h8M0 17h8M13 17h6M24 17h4M33 17h4M42 17h4M50 17h5M59 17h5M68 17h2M74 17h8M0 18h8M13 18h6M24 18h4M33 18h4M42 18h4M50 18h5M59 18h5M68 18h2M74 18h8M0 19h8M13 19h6M24 19h4M33 19h4M42 19h4M50 19h5M59 19h5M68 19h2M74 19h8M0 20h8M13 20h6M24 20h4M33 20h4M42 20h4M50 20h5M59 20h5M68 20h2M74 20h8M0 21h8M13 21h2M19 21h5M28 21h5M37 21h5M46 21h4M55 21h4M64 21h6M74 21h8M0 22h8M13 22h2M19 22h5M28 22h5M37 22h5M46 22h4M55 22h4M64 22h6M74 22h8M0 23h8M13 23h2M19 23h5M28 23h5M37 23h5M46 23h4M55 23h4M64 23h6M74 23h8M0 24h8M13 24h2M19 24h5M28 24h5M37 24h5M46 24h4M55 24h4M64 24h6M74 24h8M0 25h8M13 25h6M24 25h4M33 25h4M42 25h4M50 25h5M59 25h5M68 25h2M74 25h8M0 26h8M13 26h6M24 26h4M33 26h4M42 26h4M50 26h5M59 26h5M68 26h2M74 26h8M0 27h8M13 27h6M24 27h4M33 27h4M42 27h4M50 27h5M59 27h5M68 27h2M74 27h8M0 28h8M13 28h6M24 28h4M33 28h4M42 28h4M50 28h5M59 28h5M68 28h2M74 28h8M0 29h8M13 29h6M24 29h4M33 29h4M42 29h4M50 29h5M59 29h5M68 29h2M74 29h8M0 30h8M13 30h2M19 30h5M28 30h5M37 30h5M46 30h4M55 30h4M64 30h6M74 30h8M0 31h8M13 31h2M19 31h5M28 31h5M37 31h5M46 31h4M55 31h4M64 31h6M74 31h8M0 32h8M13 32h2M19 32h5M28 32h5M37 32h5M46 32h4M55 32h4M64 32h6M74 32h8M0 33h8M13 33h2M19 33h5M28 33h5M37 33h5M46 33h4M55 33h4M64 33h6M74 33h8M0 34h8M13 34h6M24 34h4M33 34h4M42 34h4M50 34h5M59 34h5M68 34h2M74 34h8M0 35h8M13 35h6M24 35h4M33 35h4M42 35h4M50 35h5M59 35h5M68 35h2M74 35h8M0 36h8M13 36h6M24 36h4M33 36h4M42 36h4M50 36h5M59 36h5M68 36h2M74 36h8M0 37h8M13 37h6M24 37h4M33 37h4M42 37h4M50 37h5M59 37h5M68 37h2M74 37h8M0 38h8M13 38h6M24 38h4M33 38h4M42 38h4M50 38h5M59 38h5M68 38h2M74 38h8M0 39h8M13 39h57M74 39h8M0 40h8M13 40h57M74 40h8M0 41h8M13 41h2M18 41h2M74 41h8M0 42h8M13 42h2M18 42h2M74 42h8M0 43h8M13 43h2M18 43h2M74 43h8M0 44h8M13 44h2M18 44h2M74 44h8M0 45h8M13 45h2M18 45h2M74 45h8M0 46h8M13 46h2M18 46h2M74 46h8M0 47h8M13 47h2M18 47h2M74 47h8M0 48h8M13 48h2M18 48h2M74 48h8M0 49h8M13 49h2M18 49h2M74 49h8M0 50h8M13 50h2M18 50h2M74 50h8M0 51h8M13 51h2M18 51h2M74 51h8M0 52h8M13 52h2M18 52h2M74 52h8M0 53h8M13 53h2M18 53h2M74 53h8M0 54h8M13 54h2M18 54h2M74 54h8M0 55h8M13 55h2M18 55h2M74 55h8M0 56h8M13 56h2M18 56h2M74 56h8M0 57h8M13 57h2M18 57h2M74 57h8M0 58h8M13 58h2M18 58h2M74 58h8M0 59h8M13 59h2M18 59h2M74 59h8M0 60h8M13 60h2M18 60h2M74 60h8M0 61h8M13 61h2M18 61h2M74 61h8M0 62h8M13 62h2M18 62h2M74 62h8M0 63h8M13 63h2M18 63h2M74 63h8M0 64h8M13 64h2M18 64h2M74 64h8M0 65h8M13 65h2M18 65h2M74 65h8M0 66h8M13 66h2M18 66h2M74 66h8M0 67h8M13 67h2M18 67h2M74 67h8M0 68h8M13 68h2M18 68h2M74 68h8M0 69h8M13 69h2M18 69h2M74 69h8M0 70h8M13 70h2M18 70h2M74 70h8M0 71h8M13 71h2M18 71h2M74 71h8M0 72h8M13 72h2M18 72h2M74 72h8M0 73h8M13 73h2M18 73h2M74 73h8M0 74h8M13 74h7M74 74h8M0 75h82M0 76h82M0 77h82M0 78h82M0 79h82M0 80h82M0 81h82" />
</svg>