<svg xmlns="http://www.w3.org/2000/svg" viewBox="0 0 82 82">
<path stroke="#fff" d="M0 0h82M0 1h82M0 2h82M0 3h82M0 4h82M0 5h82M0 6h82M0 7h82M0 8h8M75 8h7M0 9h8M75 9h7M0 10h8M75 10h7M0 11h8M75 11h7M0 12h8M75 12h7M0 13h8M75 13h7M0 14h8M75 14h7M0 15h8M75 15h7M0 16h8M75 16h7M0 17h8M75 17h7M0 18h8M75 18h7M0 19h8M75 19h7M0 20h8M75 20h7M0 21h8M75 21h7M0 22h8M75 22h7M0 23h8M29 23h5M75 23h7M0 24h8M29 24h5M75 24h7M0 25h8M29 25h5M75 25h7M0 26h8M29 26h5M75 26h7M0 27h8M29 27h5M75 27h7M0 28h8M29 28h5M75 28h7M0 29h8M29 29h5M75 29h7M0 30h8M30 30h2M75 30h7M0 31h8M18 31h7M30 31h2M75 31h7M0 32h8M18 32h7M30 32h2M75 32h7M0 33h8M18 33h7M30 33h2M75 33h7M0 34h8M18 34h7M30 34h2M75 34h7M0 35h8M18 35h7M30 35h2M75 35h7M0 36h8M18 36h7M30 36h2M75 36h7M0 37h8M18 37h7M30 37h2M75 37h7M0 38h8M18 38h7M30 38h2M75 38h7M0 39h8M20 39h2M30 39h2M75 39h7M0 40h8M20 40h2M30 40h2M75 40h7M0 41h8M20 41h2M30 41h2M75 41h7M0 42h8M20 42h2M30 42h2M75 42h7M0 43h8M20 43h2M30 43h2M75 43h7M0 44h8M20 44h2M30 44h2M75 44h7M0 45h8M20 45h2M30 45h2M40 45h26M75 45h7M0 46h8M20 46h2M30 46h2M40 46h26M75 46h7M0 47h8M20 47h2M30 47h2M40 47h26M75 47h7M0 48h8M20 48h2M30 48h2M40 48h26M75 48h7M0 49h8M20 49h2M30 49h2M40 49h26M75 49h7M0 50h8M20 50h2M30 50h2M40 50h26M75 50h7M0 51h8M20 51h2M30 51h2M40 51h26M75 51h7M0 52h8M20 52h2M30 52h2M40 52h26M75 52h7M0 53h8M20 53h2M30 53h2M40 53h26M75 53h7M0 54h8M20 54h2M30 54h2M40 54h26M75 54h7M0 55h8M20 55h2M30 55h2M40 55h26M75 55h7M0 56h8M20 56h2M30 56h2M40 56h26M75 56h7M0 57h8M20 57h2M30 57h2M40 57h26M75 57h7M0 58h8M20 58h2M30 58h2M40 58h26M75 58h7M0 59h8M20 59h2M30 59h2M40 59h26M75 59h7M0 60h8M20 60h2M30 60h2M75 60h7M0 61h8M20 61h2M30 61h2M75 61h7M0 62h8M17 62h49M75 62h7M0 63h8M17 63h49M75 63h7M0 64h8M17 64h49M75 64h7M0 65h8M75 65h7M0 66h8M75 66h7M0 67h8M75 67h7M0 68h8M75 68h7M0 69h8M75 69h7M0 70h8M75 70h7M0 71h8M75 71h7M0 72h8M75 72h7M0 73h8M75 73h7M0 74h8M75 74h7M0 75h82M0 76h82M0 77h82M0 78h82M0 79h82M0 80h82M0 81h82" />
</svg>