<svg xmlns="http://www.w3.org/2000/svg" viewBox="0 0 82 81">
<path stroke="#fff" d="M0 0h82M0 1h82M0 2h82M0 3h82M0 4h82M0 5h82M0 6h82M0 7h8M74 7h8M0 8h8M74 8h8M0 9h8M74 9h8M0 10h8M74 10h8M0 11h8M74 11h8M0 12h8M74 12h8M0 13h8M74 13h8M0 14h8M74 14h8M0 15h8M74 15h8M0 16h8M74 16h8M0 17h8M45 17h25M74 17h8M0 18h8M45 18h25M74 18h8M0 19h8M45 19h2M68 19h2M74 19h8M0 20h8M12 20h28M45 20h2M68 20h2M74 20h8M0 21h8M12 21h28M45 21h2M68 21h2M74 21h8M0 22h8M12 22h2M38 22h2M45 22h2M68 22h2M74 22h8M0 23h8M12 23h2M38 23h2M45 23h2M68 23h2M74 23h8M0 24h8M12 24h2M38 24h2M45 24h2M68 24h2M74 24h8M0 25h8M12 25h2M38 25h2M45 25h2M68 25h2M74 25h8M0 26h8M12 26h2M38 26h2M45 26h2M68 26h2M74 26h8M0 27h8M12 27h2M38 27h2M45 27h2M53 27h9M68 27h2M74 27h8M0 28h8M12 28h2M38 28h2M45 28h2M53 28h9M68 28h2M74 28h8M0 29h8M12 29h2M38 29h2M45 29h2M53 29h2M60 29h2M68 29h2M74 29h8M0 30h8M12 30h2M38 30h2M45 30h2M53 30h2M60 30h2M68 30h2M74 30h8M0 31h8M12 31h2M20 31h13M38 31h2M45 31h2M53 31h2M60 31h2M68 31h2M74 31h8M0 32h8M12 32h2M20 32h13M38 32h2M45 32h2M53 32h2M60 32h2M68 32h2M74 32h8M0 33h8M12 33h2M20 33h2M31 33h2M38 33h2M45 33h2M53 33h2M60 33h2M68 33h2M74 33h8M0 34h8M12 34h2M20 34h2M31 34h2M38 34h2M45 34h2M53 34h2M60 34h2M68 34h2M74 34h8M0 35h8M12 35h2M20 35h2M31 35h2M38 35h2M45 35h2M53 35h2M60 35h2M68 35h2M74 35h8M0 36h8M12 36h2M20 36h2M31 36h2M38 36h2M45 36h2M53 36h2M60 36h2M68 36h2M74 36h8M0 37h8M12 37h2M20 37h2M31 37h2M38 37h2M45 37h2M53 37h2M60 37h2M68 37h2M74 37h8M0 38h8M12 38h2M20 38h2M31 38h2M38 38h2M45 38h2M53 38h2M60 38h2M68 38h2M74 38h8M0 39h8M12 39h2M20 39h2M31 39h2M38 39h2M45 39h2M53 39h2M68 39h2M74 39h8M0 40h8M12 40h2M20 40h2M31 40h2M38 40h2M45 40h2M53 40h2M68 40h2M74 40h8M0 41h8M12 41h2M20 41h2M31 41h2M38 41h2M45 41h2M53 41h2M68 41h2M74 41h8M0 42h8M12 42h2M20 42h2M31 42h2M38 42h2M45 42h2M53 42h2M68 42h2M74 42h8M0 43h8M12 43h2M20 43h2M31 43h2M38 43h2M45 43h2M53 43h2M68 43h2M74 43h8M0 44h8M12 44h2M20 44h2M31 44h2M38 44h2M45 44h2M53 44h2M68 44h2M74 44h8M0 45h8M12 45h2M31 45h2M38 45h2M45 45h2M53 45h2M68 45h2M74 45h8M0 46h8M12 46h2M31 46h2M38 46h2M45 46h2M53 46h2M68 46h2M74 46h8M0 47h8M12 47h2M31 47h2M38 47h2M45 47h2M53 47h2M68 47h2M74 47h8M0 48h8M12 48h2M31 48h2M38 48h2M45 48h2M53 48h2M68 48h2M74 48h8M0 49h8M12 49h2M31 49h2M38 49h2M45 49h2M53 49h17M74 49h8M0 50h8M12 50h2M31 50h2M38 50h2M45 50h2M53 50h17M74 50h8M0 51h8M12 51h2M31 51h2M38 51h2M45 51h2M74 51h8M0 52h8M12 52h21M38 52h2M45 52h2M74 52h8M0 53h8M12 53h21M38 53h2M45 53h2M74 53h8M0 54h8M38 54h2M45 54h2M74 54h8M0 55h8M38 55h2M45 55h2M74 55h8M0 56h8M38 56h2M45 56h2M74 56h8M0 57h8M38 57h2M45 57h2M74 57h8M0 58h8M38 58h2M45 58h2M74 58h8M0 59h8M38 59h2M45 59h2M74 59h8M0 60h8M38 60h2M45 60h2M74 60h8M0 61h8M38 61h2M45 61h2M74 61h8M0 62h8M38 62h2M45 62h2M74 62h8M0 63h8M38 63h2M45 63h2M74 63h8M0 64h8M38 64h2M45 64h2M74 64h8M0 65h8M38 65h2M45 65h2M74 65h8M0 66h8M38 66h2M45 66h2M74 66h8M0 67h8M38 67h2M45 67h2M74 67h8M0 68h8M38 68h2M45 68h2M74 68h8M0 69h8M38 69h2M45 69h2M74 69h8M0 70h8M38 70h2M45 70h2M74 70h8M0 71h8M38 71h2M45 71h2M74 71h8M0 72h8M38 72h2M45 72h2M74 72h8M0 73h8M38 73h2M45 73h2M74 73h8M0 74h82M0 75h82M0 76h82M0 77h82M0 78h82M0 79h82M0 80h82" />
</svg>