<svg xmlns="http://www.w3.org/2000/svg" viewBox="0 0 100 100">
<path stroke="#fff" d="M47 0h7M47 1h7M47 2h7M46 3h9M45 4h11M9 5h5M18 5h5M27 5h5M36 5h5M45 5h11M60 5h5M69 5h4M78 5h4M87 5h5M8 6h6M18 6h5M27 6h5M36 6h5M45 6h11M60 6h5M69 6h4M78 6h4M87 6h6M7 7h7M18 7h5M27 7h5M36 7h5M44 7h13M60 7h5M69 7h4M78 7h4M87 7h7M6 8h8M18 8h5M27 8h5M36 8h5M43 8h14M60 8h5M69 8h4M78 8h4M87 8h8M5 9h91M5 10h91M5 11h91M5 12h91M5 13h91M9 14h82M9 15h82M9 16h82M9 17h11M81 17h10M5 18h14M82 18h14M5 19h13M83 19h13M5 20h12M84 20h12M5 21h12M84 21h12M5 22h12M84 22h12M9 23h8M84 23h7M9 24h8M84 24h7M9 25h8M84 25h7M9 26h8M84 26h7M5 27h12M84 27h12M5 28h12M84 28h12M5 29h12M84 29h12M5 30h12M84 30h12M5 31h12M84 31h12M9 32h8M84 32h7M9 33h8M21 33h20M84 33h7M9 34h8M21 34h20M55 34h20M84 34h7M9 35h8M21 35h20M55 35h20M84 35h7M5 36h12M21 36h3M41 36h3M55 36h20M84 36h12M5 37h12M21 37h3M41 37h3M52 37h3M72 37h3M84 37h12M5 38h12M21 38h3M41 38h3M52 38h3M72 38h3M84 38h12M5 39h12M41 39h3M52 39h3M84 39h12M5 40h12M41 40h3M52 40h3M84 40h12M9 41h8M31 41h4M41 41h3M52 41h3M61 41h4M84 41h7M9 42h8M24 42h3M31 42h4M61 42h4M74 42h3M84 42h7M8 43h9M24 43h3M31 43h4M61 43h4M74 43h3M84 43h9M6 44h11M24 44h3M31 44h4M61 44h4M74 44h3M84 44h11M4 45h13M24 45h3M43 45h4M61 45h4M74 45h3M84 45h13M2 46h15M24 46h3M43 46h4M54 46h3M74 46h3M84 46h15M0 47h17M24 47h3M43 47h4M54 47h3M74 47h3M84 47h16M0 48h17M24 48h23M54 48h3M74 48h3M84 48h16M0 49h17M24 49h23M54 49h23M84 49h16M0 50h17M24 50h23M54 50h23M84 50h16M0 51h17M54 51h23M84 51h16M0 52h17M84 52h16M2 53h15M84 53h15M3 54h14M84 54h14M6 55h11M84 55h11M7 56h10M84 56h10M9 57h8M84 57h7M9 58h8M84 58h7M9 59h8M84 59h7M5 60h12M25 60h3M74 60h3M84 60h12M5 61h12M25 61h3M74 61h3M84 61h12M5 62h12M25 62h3M74 62h3M84 62h12M5 63h12M25 63h3M74 63h3M84 63h12M9 64h8M25 64h52M84 64h7M9 65h8M25 65h52M84 65h7M9 66h8M25 66h52M84 66h7M9 67h8M84 67h7M9 68h8M84 68h7M5 69h12M84 69h12M5 70h12M84 70h12M5 71h12M84 71h12M5 72h12M84 72h12M9 73h8M84 73h7M9 74h8M84 74h7M9 75h8M84 75h7M9 76h8M84 76h7M9 77h8M84 77h7M5 78h12M84 78h12M5 79h12M84 79h12M5 80h13M83 80h13M5 81h13M82 81h14M9 82h11M81 82h10M9 83h82M9 84h82M9 85h82M9 86h82M5 87h91M5 88h91M5 89h91M5 90h91M6 91h8M18 91h5M27 91h5M36 91h5M43 91h14M60 91h5M69 91h4M78 91h4M87 91h8M7 92h7M18 92h5M27 92h5M36 92h5M44 92h13M60 92h5M69 92h4M78 92h4M87 92h7M8 93h6M18 93h5M27 93h5M36 93h5M44 93h13M60 93h5M69 93h4M78 93h4M87 93h6M9 94h5M18 94h5M27 94h5M36 94h5M45 94h11M60 94h5M69 94h4M78 94h4M87 94h5M9 95h5M18 95h5M27 95h5M36 95h5M45 95h11M60 95h5M69 95h4M78 95h4M87 95h4M46 96h9M46 97h9M47 98h7M47 99h7" />
</svg>