<svg xmlns="http://www.w3.org/2000/svg" viewBox="0 0 82 82">
<path stroke="#fff" d="M0 0h82M0 1h82M0 2h82M0 3h82M0 4h82M0 5h82M0 6h82M0 7h82M0 8h8M74 8h8M0 9h8M9 9h4M35 9h3M41 9h1M74 9h8M0 10h8M9 10h4M35 10h3M41 10h1M74 10h8M0 11h8M9 11h4M23 11h1M35 11h3M55 11h4M74 11h8M0 12h8M9 12h4M35 12h3M46 12h1M52 12h2M55 12h4M65 12h4M74 12h8M0 13h8M14 13h4M19 13h1M55 13h4M65 13h4M74 13h8M0 14h8M14 14h4M19 14h1M55 14h4M65 14h4M74 14h8M0 15h8M14 15h4M65 15h4M74 15h8M0 16h8M14 16h4M26 16h3M74 16h8M0 17h8M26 17h3M36 17h1M59 17h1M69 17h3M74 17h8M0 18h8M20 18h2M26 18h3M50 18h1M69 18h3M74 18h8M0 19h8M20 19h2M26 19h3M50 19h1M69 19h3M74 19h8M0 20h8M74 20h8M0 21h8M9 21h1M37 21h4M64 21h1M74 21h8M0 22h8M19 22h1M37 22h4M74 22h8M0 23h8M37 23h4M46 23h1M56 23h2M74 23h8M0 24h8M37 24h4M46 24h1M56 24h2M74 24h8M0 25h8M74 25h8M0 26h8M13 26h2M74 26h8M0 27h8M13 27h2M27 27h2M33 27h2M40 27h2M68 27h4M74 27h8M0 28h8M13 28h2M27 28h2M33 28h2M40 28h2M68 28h4M74 28h8M0 29h8M18 29h4M27 29h2M40 29h2M68 29h4M74 29h8M0 30h8M18 30h4M50 30h1M68 30h4M74 30h8M0 31h8M18 31h4M58 31h3M74 31h8M0 32h8M58 32h3M74 32h8M0 33h8M58 33h3M74 33h8M0 34h8M9 34h4M58 34h3M74 34h8M0 35h8M9 35h4M17 35h2M29 35h2M36 35h4M49 35h2M74 35h8M0 36h8M9 36h4M17 36h2M36 36h4M49 36h2M70 36h2M74 36h8M0 37h8M9 37h4M17 37h2M36 37h4M49 37h2M70 37h2M74 37h8M0 38h8M27 38h1M36 38h4M74 38h8M0 39h8M74 39h8M0 40h8M74 40h8M0 41h8M46 41h4M61 41h2M69 41h1M74 41h8M0 42h8M46 42h4M61 42h2M69 42h1M74 42h8M0 43h8M13 43h1M46 43h4M74 43h8M0 44h8M41 44h1M46 44h4M60 44h1M74 44h8M0 45h8M17 45h3M35 45h1M74 45h8M0 46h8M17 46h3M35 46h1M74 46h8M0 47h8M17 47h3M24 47h3M55 47h1M72 47h10M0 48h8M17 48h3M24 48h3M72 48h10M0 49h8M10 49h2M74 49h8M0 50h8M63 50h1M74 50h8M0 51h8M63 51h1M74 51h8M0 52h8M36 52h1M74 52h8M0 53h8M27 53h1M38 53h2M47 53h2M68 53h4M74 53h8M0 54h8M15 54h2M32 54h4M55 54h4M68 54h4M74 54h8M0 55h8M32 55h4M55 55h4M68 55h4M74 55h8M0 56h8M32 56h4M55 56h4M68 56h4M74 56h8M0 57h8M32 57h4M44 57h2M55 57h4M74 57h8M0 58h8M9 58h1M19 58h3M44 58h2M61 58h2M74 58h8M0 59h8M19 59h3M74 59h8M0 60h8M19 60h3M74 60h8M0 61h8M74 61h8M0 62h8M13 62h1M27 62h4M41 62h1M74 62h8M0 63h8M27 63h4M60 63h1M74 63h8M0 64h8M27 64h4M50 64h1M72 64h1M74 64h8M0 65h8M27 65h4M50 65h1M72 65h1M74 65h8M0 66h8M12 66h3M65 66h4M74 66h8M0 67h8M12 67h3M65 67h4M74 67h8M0 68h8M12 68h3M41 68h4M65 68h4M74 68h8M0 69h8M12 69h3M41 69h4M65 69h4M74 69h8M0 70h8M28 70h1M41 70h4M74 70h8M0 71h8M20 71h2M36 71h2M41 71h4M60 71h1M74 71h8M0 72h8M13 72h1M36 72h2M51 72h3M68 72h1M74 72h8M0 73h8M51 73h3M74 73h8M0 74h8M51 74h3M74 74h8M0 75h82M0 76h82M0 77h82M0 78h82M0 79h82M0 80h82M0 81h82" />
</svg>