<svg xmlns="http://www.w3.org/2000/svg" viewBox="0 0 82 82">
<path stroke="#fff" d="M0 0h82M0 1h82M0 2h82M0 3h82M0 4h82M0 5h82M0 6h82M0 7h82M0 8h7M74 8h8M0 9h7M74 9h8M0 10h7M74 10h8M0 11h7M74 11h8M0 12h7M74 12h8M0 13h7M74 13h8M0 14h7M74 14h8M0 15h7M74 15h8M0 16h7M74 16h8M0 17h7M74 17h8M0 18h7M74 18h8M0 19h7M74 19h8M0 20h7M74 20h8M0 21h7M74 21h8M0 22h7M74 22h8M0 23h7M74 23h8M0 24h7M74 24h8M0 25h7M74 25h8M0 26h7M74 26h8M0 27h7M74 27h8M0 28h7M74 28h8M0 29h7M74 29h8M0 30h7M74 30h8M0 31h7M74 31h8M0 32h7M74 32h8M0 33h7M74 33h8M0 34h7M74 34h8M0 35h7M74 35h8M0 36h7M14 36h3M50 36h3M74 36h8M0 37h7M14 37h3M50 37h3M74 37h8M0 38h7M14 38h3M50 38h3M74 38h8M0 39h7M14 39h3M50 39h3M74 39h8M0 40h7M14 40h52M74 40h8M0 41h7M14 41h52M74 41h8M0 42h7M14 42h52M74 42h8M0 43h7M14 43h52M74 43h8M0 44h7M14 44h3M50 44h3M74 44h8M0 45h7M14 45h3M50 45h3M74 45h8M0 46h7M14 46h3M50 46h3M74 46h8M0 47h7M74 47h8M0 48h7M74 48h8M0 49h7M74 49h8M0 50h7M74 50h8M0 51h7M74 51h8M0 52h7M74 52h8M0 53h7M74 53h8M0 54h7M74 54h8M0 55h7M74 55h8M0 56h7M74 56h8M0 57h7M74 57h8M0 58h7M74 58h8M0 59h7M74 59h8M0 60h7M74 60h8M0 61h7M74 61h8M0 62h7M74 62h8M0 63h7M74 63h8M0 64h7M74 64h8M0 65h7M74 65h8M0 66h7M74 66h8M0 67h7M74 67h8M0 68h7M74 68h8M0 69h7M74 69h8M0 70h7M74 70h8M0 71h7M74 71h8M0 72h7M74 72h8M0 73h7M74 73h8M0 74h82M0 75h82M0 76h82M0 77h82M0 78h82M0 79h82M0 80h82M0 81h82" />
</svg>