<svg xmlns="http://www.w3.org/2000/svg" viewBox="0 0 82 82">
<path stroke="#fff" d="M0 0h82M0 1h82M0 2h82M0 3h82M0 4h82M0 5h82M0 6h82M0 7h82M0 8h8M75 8h7M0 9h8M75 9h7M0 10h8M75 10h7M0 11h8M75 11h7M0 12h8M75 12h7M0 13h8M75 13h7M0 14h8M75 14h7M0 15h8M75 15h7M0 16h8M75 16h7M0 17h8M18 17h48M75 17h7M0 18h8M18 18h48M75 18h7M0 19h8M18 19h2M56 19h3M64 19h2M75 19h7M0 20h8M18 20h2M24 20h2M33 20h2M56 20h3M64 20h2M75 20h7M0 21h8M18 21h5M24 21h2M33 21h2M39 21h3M56 21h3M64 21h2M75 21h7M0 22h8M18 22h5M39 22h3M57 22h2M64 22h2M75 22h7M0 23h8M18 23h5M39 23h3M57 23h2M64 23h2M75 23h7M0 24h8M18 24h2M36 24h2M48 24h2M64 24h2M75 24h7M0 25h8M18 25h2M36 25h2M48 25h2M64 25h2M75 25h7M0 26h8M18 26h2M29 26h2M54 26h3M64 26h2M75 26h7M0 27h8M18 27h2M29 27h2M54 27h3M64 27h2M75 27h7M0 28h8M18 28h2M54 28h3M64 28h2M75 28h7M0 29h8M18 29h3M43 29h2M64 29h2M75 29h7M0 30h8M18 30h3M43 30h2M64 30h2M75 30h7M0 31h8M18 31h2M54 31h2M64 31h2M75 31h7M0 32h8M18 32h2M25 32h3M54 32h2M64 32h2M75 32h7M0 33h8M18 33h2M25 33h3M60 33h2M64 33h2M75 33h7M0 34h8M18 34h2M35 34h2M60 34h2M64 34h2M75 34h7M0 35h8M18 35h2M35 35h2M64 35h2M75 35h7M0 36h8M18 36h2M21 36h2M27 36h3M36 36h3M64 36h2M75 36h7M0 37h8M18 37h2M21 37h2M27 37h3M36 37h3M47 37h2M61 37h5M75 37h7M0 38h8M18 38h2M27 38h3M36 38h3M47 38h2M61 38h5M75 38h7M0 39h8M18 39h2M27 39h3M36 39h3M61 39h5M75 39h7M0 40h8M18 40h2M31 40h2M58 40h2M64 40h2M75 40h7M0 41h8M18 41h2M31 41h2M58 41h2M64 41h2M75 41h7M0 42h8M18 42h2M64 42h2M75 42h7M0 43h8M18 43h2M23 43h2M64 43h2M75 43h7M0 44h8M18 44h2M23 44h2M61 44h1M64 44h2M75 44h7M0 45h8M18 45h2M44 45h2M61 45h1M64 45h2M75 45h7M0 46h8M18 46h2M44 46h2M64 46h2M75 46h7M0 47h8M18 47h4M37 47h2M64 47h2M75 47h7M0 48h8M18 48h4M37 48h2M64 48h2M75 48h7M0 49h8M18 49h4M32 49h2M48 49h2M55 49h2M64 49h2M75 49h7M0 50h8M18 50h2M36 50h3M55 50h2M64 50h2M75 50h7M0 51h8M18 51h2M36 51h3M64 51h2M75 51h7M0 52h8M18 52h2M36 52h3M64 52h2M75 52h7M0 53h8M18 53h2M21 53h2M36 53h3M64 53h2M75 53h7M0 54h8M18 54h2M21 54h2M64 54h2M75 54h7M0 55h8M18 55h2M55 55h2M64 55h2M75 55h7M0 56h8M18 56h2M40 56h2M55 56h2M64 56h2M75 56h7M0 57h8M18 57h2M25 57h2M40 57h2M64 57h2M75 57h7M0 58h8M18 58h2M25 58h2M29 58h3M64 58h2M75 58h7M0 59h8M18 59h2M29 59h3M43 59h3M64 59h2M75 59h7M0 60h8M18 60h2M29 60h3M43 60h3M55 60h4M64 60h2M75 60h7M0 61h8M18 61h2M43 61h3M50 61h2M55 61h4M64 61h2M75 61h7M0 62h8M18 62h48M75 62h7M0 63h8M18 63h48M75 63h7M0 64h8M75 64h7M0 65h8M75 65h7M0 66h8M75 66h7M0 67h8M75 67h7M0 68h8M75 68h7M0 69h8M75 69h7M0 70h8M75 70h7M0 71h8M75 71h7M0 72h8M75 72h7M0 73h8M75 73h7M0 74h82M0 75h82M0 76h82M0 77h82M0 78h82M0 79h82M0 80h82M0 81h82" />
</svg>