<svg xmlns="http://www.w3.org/2000/svg" viewBox="0 0 82 82">
<path stroke="#fff" d="M0 0h82M0 1h82M0 2h82M0 3h82M0 4h82M0 5h82M0 6h82M0 7h82M0 8h7M74 8h8M0 9h7M74 9h8M0 10h7M74 10h8M0 11h7M74 11h8M0 12h7M10 12h33M48 12h23M74 12h8M0 13h7M10 13h33M48 13h23M74 13h8M0 14h7M10 14h2M14 14h2M41 14h2M48 14h2M65 14h2M69 14h2M74 14h8M0 15h7M10 15h2M26 15h2M36 15h2M41 15h2M48 15h2M65 15h2M69 15h2M74 15h8M0 16h7M10 16h2M26 16h2M36 16h2M41 16h2M48 16h2M53 16h2M69 16h2M74 16h8M0 17h7M10 17h2M41 17h2M48 17h2M53 17h2M69 17h2M74 17h8M0 18h7M10 18h2M41 18h2M48 18h2M61 18h2M69 18h2M74 18h8M0 19h7M10 19h4M41 19h2M48 19h2M69 19h2M74 19h8M0 20h7M10 20h4M25 20h2M35 20h2M41 20h2M48 20h2M69 20h2M74 20h8M0 21h7M10 21h2M17 21h2M25 21h2M35 21h2M41 21h2M48 21h2M55 21h2M69 21h2M74 21h8M0 22h7M10 22h2M17 22h2M41 22h2M48 22h2M55 22h2M66 22h1M69 22h2M74 22h8M0 23h7M10 23h2M41 23h2M48 23h2M51 23h2M66 23h1M69 23h2M74 23h8M0 24h7M10 24h2M41 24h2M48 24h2M51 24h2M69 24h2M74 24h8M0 25h7M10 25h2M29 25h2M41 25h2M48 25h2M69 25h2M74 25h8M0 26h7M10 26h2M29 26h2M41 26h2M48 26h2M69 26h2M74 26h8M0 27h7M10 27h2M19 27h2M33 27h2M41 27h2M48 27h2M65 27h2M69 27h2M74 27h8M0 28h7M10 28h4M19 28h2M28 28h2M33 28h2M41 28h2M48 28h2M52 28h2M60 28h2M69 28h2M74 28h8M0 29h7M10 29h4M28 29h2M37 29h2M41 29h2M48 29h2M52 29h2M60 29h2M69 29h2M74 29h8M0 30h7M10 30h2M37 30h2M41 30h2M48 30h2M69 30h2M74 30h8M0 31h7M10 31h2M41 31h2M48 31h2M69 31h2M74 31h8M0 32h7M10 32h2M41 32h2M48 32h23M74 32h8M0 33h7M10 33h2M41 33h2M48 33h23M74 33h8M0 34h7M10 34h2M41 34h2M74 34h8M0 35h7M10 35h2M18 35h2M28 35h2M41 35h2M74 35h8M0 36h7M10 36h2M18 36h2M28 36h2M41 36h2M74 36h8M0 37h7M10 37h2M34 37h2M41 37h2M74 37h8M0 38h7M10 38h2M34 38h2M41 38h2M48 38h23M74 38h8M0 39h7M10 39h2M41 39h2M48 39h23M74 39h8M0 40h7M10 40h2M41 40h2M48 40h2M69 40h2M74 40h8M0 41h7M10 41h2M13 41h2M25 41h1M41 41h2M48 41h2M69 41h2M74 41h8M0 42h7M10 42h2M13 42h2M25 42h1M41 42h2M48 42h2M51 42h2M69 42h2M74 42h8M0 43h7M10 43h33M48 43h2M51 43h2M55 43h2M62 43h2M69 43h2M74 43h8M0 44h7M48 44h2M69 44h2M74 44h8M0 45h7M48 45h2M69 45h2M74 45h8M0 46h7M48 46h2M69 46h2M74 46h8M0 47h7M48 47h2M57 47h1M69 47h2M74 47h8M0 48h7M10 48h6M19 48h24M48 48h2M57 48h1M69 48h2M74 48h8M0 49h7M10 49h6M19 49h24M48 49h2M69 49h2M74 49h8M0 50h7M14 50h2M19 50h2M41 50h2M48 50h2M69 50h2M74 50h8M0 51h7M14 51h2M19 51h2M41 51h2M48 51h2M51 51h2M69 51h2M74 51h8M0 52h7M14 52h2M19 52h2M41 52h2M48 52h2M51 52h2M63 52h2M69 52h2M74 52h8M0 53h7M14 53h2M19 53h2M41 53h2M48 53h2M63 53h2M69 53h2M74 53h8M0 54h7M14 54h2M19 54h2M25 54h1M41 54h2M48 54h2M69 54h2M74 54h8M0 55h7M14 55h2M19 55h2M25 55h1M36 55h2M41 55h2M48 55h2M58 55h2M69 55h2M74 55h8M0 56h7M14 56h2M19 56h2M36 56h2M41 56h2M48 56h2M58 56h2M69 56h2M74 56h8M0 57h7M14 57h2M19 57h2M41 57h2M48 57h2M69 57h2M74 57h8M0 58h7M14 58h2M19 58h2M41 58h2M48 58h23M74 58h8M0 59h7M10 59h2M14 59h2M19 59h2M41 59h2M48 59h23M74 59h8M0 60h7M14 60h2M19 60h2M29 60h2M35 60h2M41 60h2M74 60h8M0 61h7M14 61h2M19 61h2M29 61h2M35 61h2M41 61h2M74 61h8M0 62h7M14 62h2M19 62h2M41 62h2M74 62h8M0 63h7M14 63h2M19 63h2M41 63h2M48 63h9M62 63h9M74 63h8M0 64h7M14 64h2M19 64h2M41 64h2M48 64h9M62 64h9M74 64h8M0 65h7M14 65h2M19 65h2M41 65h2M48 65h2M55 65h2M62 65h2M69 65h2M74 65h8M0 66h7M14 66h2M19 66h2M41 66h2M48 66h2M53 66h4M62 66h2M65 66h2M69 66h2M74 66h8M0 67h7M14 67h2M19 67h2M22 67h2M41 67h2M48 67h2M55 67h2M62 67h2M65 67h2M69 67h2M74 67h8M0 68h7M14 68h2M19 68h2M22 68h2M41 68h2M48 68h2M55 68h2M62 68h2M69 68h2M74 68h8M0 69h7M14 69h2M19 69h2M34 69h1M41 69h2M48 69h3M55 69h2M62 69h2M69 69h2M74 69h8M0 70h7M10 70h6M19 70h24M48 70h9M62 70h9M74 70h8M0 71h7M10 71h6M19 71h24M48 71h9M62 71h9M74 71h8M0 72h7M74 72h8M0 73h7M74 73h8M0 74h7M74 74h8M0 75h82M0 76h82M0 77h82M0 78h82M0 79h82M0 80h82M0 81h82" />
</svg>