<svg xmlns="http://www.w3.org/2000/svg" viewBox="0 -0.5 82 82" shape-rendering="crispEdges">
<path stroke="#fff" d="M0 0h82M0 1h82M0 2h82M0 3h82M0 4h82M0 5h82M0 6h82M0 7h82M0 8h7M74 8h8M0 9h7M74 9h8M0 10h7M74 10h8M0 11h7M74 11h8M0 12h7M74 12h8M0 13h7M30 13h17M74 13h8M0 14h7M29 14h21M74 14h8M0 15h7M27 15h28M74 15h8M0 16h7M25 16h31M74 16h8M0 17h7M25 17h31M74 17h8M0 18h7M25 18h32M74 18h8M0 19h7M25 19h33M74 19h8M0 20h7M24 20h37M74 20h8M0 21h7M23 21h3M28 21h34M74 21h8M0 22h7M23 22h2M46 22h17M74 22h8M0 23h7M22 23h3M46 23h18M74 23h8M0 24h7M21 24h3M46 24h18M74 24h8M0 25h7M21 25h2M46 25h19M74 25h8M0 26h7M21 26h2M46 26h19M74 26h8M0 27h7M20 27h3M48 27h18M74 27h8M0 28h7M20 28h2M48 28h18M74 28h8M0 29h7M20 29h2M27 29h3M50 29h16M74 29h8M0 30h7M20 30h2M27 30h3M51 30h15M74 30h8M0 31h7M20 31h1M27 31h3M52 31h15M74 31h8M0 32h7M20 32h1M53 32h15M74 32h8M0 33h7M20 33h1M53 33h15M74 33h8M0 34h7M20 34h1M53 34h15M74 34h8M0 35h7M20 35h1M53 35h15M74 35h8M0 36h7M20 36h1M53 36h16M74 36h8M0 37h7M20 37h2M53 37h16M74 37h8M0 38h7M20 38h2M53 38h16M74 38h8M0 39h7M20 39h2M51 39h18M74 39h8M0 40h7M20 40h3M51 40h18M74 40h8M0 41h7M21 41h2M51 41h18M74 41h8M0 42h7M21 42h2M52 42h17M74 42h8M0 43h7M21 43h4M52 43h17M74 43h8M0 44h7M22 44h3M52 44h17M74 44h8M0 45h7M23 45h3M49 45h20M74 45h8M0 46h7M23 46h3M49 46h20M74 46h8M0 47h7M24 47h3M49 47h20M74 47h8M0 48h7M25 48h4M49 48h20M74 48h8M0 49h7M26 49h4M49 49h20M74 49h8M0 50h7M28 50h4M49 50h20M74 50h8M0 51h7M28 51h5M48 51h21M74 51h8M0 52h7M30 52h7M43 52h26M74 52h8M0 53h7M32 53h17M50 53h19M74 53h8M0 54h7M36 54h8M50 54h19M74 54h8M0 55h7M50 55h19M74 55h8M0 56h7M52 56h17M74 56h8M0 57h7M33 57h13M52 57h17M74 57h8M0 58h7M33 58h13M52 58h17M74 58h8M0 59h7M32 59h3M44 59h2M52 59h17M74 59h8M0 60h7M32 60h2M44 60h2M52 60h17M74 60h8M0 61h7M32 61h2M44 61h3M52 61h5M59 61h10M74 61h8M0 62h7M32 62h2M44 62h3M52 62h5M59 62h10M74 62h8M0 63h7M31 63h3M45 63h2M52 63h4M59 63h10M74 63h8M0 64h7M31 64h2M45 64h3M52 64h4M61 64h7M74 64h8M0 65h7M30 65h3M46 65h2M52 65h4M61 65h7M74 65h8M0 66h7M30 66h2M46 66h2M52 66h4M62 66h6M74 66h8M0 67h7M30 67h2M46 67h2M62 67h6M74 67h8M0 68h7M30 68h2M46 68h3M64 68h4M74 68h8M0 69h7M30 69h2M46 69h3M64 69h3M74 69h8M0 70h7M29 70h3M47 70h3M65 70h1M74 70h8M0 71h7M29 71h2M47 71h3M74 71h8M0 72h7M28 72h3M48 72h2M74 72h8M0 73h7M28 73h2M48 73h2M74 73h8M0 74h7M28 74h2M48 74h2M74 74h8M0 75h82M0 76h82M0 77h82M0 78h82M0 79h82M0 80h82M0 81h82" />
</svg>