<svg xmlns="http://www.w3.org/2000/svg" viewBox="0 -0.5 82 82" shape-rendering="crispEdges">
<path stroke="#fff" d="M0 0h82M0 1h82M0 2h82M0 3h82M0 4h82M0 5h82M0 6h82M0 7h82M0 8h7M74 8h8M0 9h7M74 9h8M0 10h7M74 10h8M0 11h7M74 11h8M0 12h7M16 12h4M74 12h8M0 13h7M16 13h4M74 13h8M0 14h7M16 14h4M74 14h8M0 15h7M16 15h4M74 15h8M0 16h7M74 16h8M0 17h7M74 17h8M0 18h7M18 18h2M25 18h4M45 18h19M74 18h8M0 19h7M18 19h2M25 19h4M45 19h19M74 19h8M0 20h7M18 20h2M25 20h4M45 20h19M74 20h8M0 21h7M18 21h2M25 21h4M45 21h19M74 21h8M0 22h7M11 22h2M18 22h2M45 22h19M74 22h8M0 23h7M11 23h2M18 23h2M25 23h2M45 23h19M74 23h8M0 24h7M11 24h2M18 24h2M25 24h2M45 24h19M74 24h8M0 25h7M18 25h2M24 25h3M45 25h19M74 25h8M0 26h7M13 26h1M18 26h2M24 26h3M45 26h19M74 26h8M0 27h7M13 27h2M18 27h2M23 27h3M45 27h19M74 27h8M0 28h7M13 28h2M18 28h2M23 28h2M45 28h19M74 28h8M0 29h7M13 29h3M18 29h2M22 29h3M45 29h19M74 29h8M0 30h7M14 30h2M18 30h2M22 30h3M45 30h19M74 30h8M0 31h7M14 31h3M18 31h2M21 31h3M45 31h19M74 31h8M0 32h7M14 32h3M18 32h2M21 32h2M45 32h19M74 32h8M0 33h7M15 33h2M45 33h19M74 33h8M0 34h7M14 34h11M45 34h19M74 34h8M0 35h7M14 35h11M45 35h19M74 35h8M0 36h7M14 36h11M74 36h8M0 37h7M14 37h11M74 37h8M0 38h7M14 38h11M54 38h17M74 38h8M0 39h7M14 39h11M54 39h17M74 39h8M0 40h7M14 40h11M54 40h17M74 40h8M0 41h7M14 41h11M54 41h17M74 41h8M0 42h7M14 42h11M54 42h17M74 42h8M0 43h7M14 43h11M54 43h17M74 43h8M0 44h7M14 44h11M54 44h17M74 44h8M0 45h7M18 45h3M54 45h17M74 45h8M0 46h7M18 46h3M54 46h17M74 46h8M0 47h7M18 47h3M54 47h17M74 47h8M0 48h7M18 48h3M54 48h17M74 48h8M0 49h7M18 49h3M54 49h17M74 49h8M0 50h7M18 50h3M54 50h17M74 50h8M0 51h7M18 51h3M54 51h17M74 51h8M0 52h7M13 52h39M54 52h17M74 52h8M0 53h7M13 53h39M54 53h17M74 53h8M0 54h7M13 54h39M54 54h17M74 54h8M0 55h7M13 55h39M54 55h17M74 55h8M0 56h7M13 56h39M54 56h17M74 56h8M0 57h7M13 57h39M54 57h17M74 57h8M0 58h7M13 58h39M54 58h17M74 58h8M0 59h7M13 59h39M54 59h17M74 59h8M0 60h7M13 60h39M54 60h17M74 60h8M0 61h7M13 61h39M54 61h17M74 61h8M0 62h7M13 62h39M54 62h17M74 62h8M0 63h7M54 63h17M74 63h8M0 64h7M54 64h17M74 64h8M0 65h7M54 65h17M74 65h8M0 66h7M54 66h17M74 66h8M0 67h7M54 67h17M74 67h8M0 68h7M54 68h17M74 68h8M0 69h7M54 69h17M74 69h8M0 70h7M54 70h17M74 70h8M0 71h7M54 71h17M74 71h8M0 72h7M74 72h8M0 73h7M74 73h8M0 74h82M0 75h82M0 76h82M0 77h82M0 78h82M0 79h82M0 80h82M0 81h82" />
</svg>