<svg xmlns="http://www.w3.org/2000/svg" viewBox="0 -0.5 82 82" shape-rendering="crispEdges">
<path stroke="#fff" d="M0 0h82M0 1h82M0 2h82M0 3h82M0 4h82M0 5h82M0 6h82M0 7h8M74 7h8M0 8h8M74 8h8M0 9h8M74 9h8M0 10h8M74 10h8M0 11h8M74 11h8M0 12h8M74 12h8M0 13h8M74 13h8M0 14h8M74 14h8M0 15h8M74 15h8M0 16h8M13 16h2M17 16h49M74 16h8M0 17h8M13 17h2M17 17h49M74 17h8M0 18h8M11 18h4M17 18h49M74 18h8M0 19h8M11 19h3M17 19h49M74 19h8M0 20h8M10 20h3M17 20h3M29 20h4M50 20h3M63 20h3M74 20h8M0 21h8M9 21h3M17 21h3M29 21h4M50 21h3M63 21h3M74 21h8M0 22h8M9 22h2M17 22h3M29 22h4M50 22h3M63 22h3M74 22h8M0 23h8M17 23h3M29 23h4M50 23h3M63 23h3M74 23h8M0 24h8M17 24h3M29 24h24M63 24h3M74 24h8M0 25h8M17 25h3M29 25h24M63 25h3M74 25h8M0 26h8M17 26h3M29 26h24M63 26h3M74 26h8M0 27h8M17 27h3M63 27h3M74 27h8M0 28h8M17 28h3M63 28h3M74 28h8M0 29h8M17 29h10M55 29h11M74 29h8M0 30h8M17 30h10M55 30h11M74 30h8M0 31h8M17 31h10M55 31h11M74 31h8M0 32h8M17 32h3M24 32h3M55 32h3M63 32h3M74 32h8M0 33h8M17 33h3M24 33h3M55 33h3M63 33h3M74 33h8M0 34h8M17 34h3M24 34h3M55 34h3M63 34h3M74 34h8M0 35h8M17 35h3M24 35h3M55 35h3M63 35h3M74 35h8M0 36h8M17 36h3M24 36h3M55 36h3M63 36h3M74 36h8M0 37h8M17 37h3M24 37h3M55 37h3M63 37h3M74 37h8M0 38h8M17 38h3M24 38h3M55 38h3M63 38h3M74 38h8M0 39h8M17 39h3M24 39h3M55 39h3M63 39h3M74 39h8M0 40h8M17 40h3M24 40h3M55 40h3M63 40h3M74 40h8M0 41h8M17 41h3M24 41h3M55 41h3M63 41h3M74 41h8M0 42h8M17 42h3M24 42h3M55 42h3M63 42h3M74 42h8M0 43h8M17 43h3M24 43h3M55 43h3M63 43h3M74 43h8M0 44h8M17 44h3M24 44h3M55 44h3M63 44h3M74 44h8M0 45h8M17 45h3M24 45h3M55 45h3M63 45h3M74 45h8M0 46h8M17 46h3M24 46h3M55 46h3M63 46h3M74 46h8M0 47h8M17 47h3M24 47h3M55 47h3M63 47h3M74 47h8M0 48h8M17 48h3M24 48h3M55 48h3M63 48h3M74 48h8M0 49h8M17 49h3M24 49h3M55 49h3M63 49h3M74 49h8M0 50h8M17 50h10M55 50h11M74 50h8M0 51h8M17 51h10M55 51h11M74 51h8M0 52h8M17 52h10M55 52h11M74 52h8M0 53h8M17 53h3M63 53h3M74 53h8M0 54h8M17 54h3M63 54h3M74 54h8M0 55h8M17 55h3M29 55h24M63 55h3M74 55h8M0 56h8M17 56h3M29 56h24M63 56h3M74 56h8M0 57h8M17 57h3M29 57h24M63 57h3M74 57h8M0 58h8M17 58h3M29 58h4M50 58h3M63 58h3M74 58h8M0 59h8M17 59h3M29 59h4M50 59h3M63 59h3M74 59h8M0 60h8M17 60h3M29 60h4M50 60h3M63 60h3M74 60h8M0 61h8M17 61h3M29 61h4M50 61h3M63 61h3M74 61h8M0 62h8M17 62h3M29 62h4M50 62h3M63 62h3M74 62h8M0 63h8M17 63h49M74 63h8M0 64h8M17 64h49M74 64h8M0 65h8M17 65h49M74 65h8M0 66h8M14 66h2M74 66h8M0 67h8M13 67h3M63 67h2M74 67h8M0 68h8M12 68h3M62 68h3M74 68h8M0 69h8M11 69h4M61 69h4M74 69h8M0 70h8M10 70h3M60 70h3M74 70h8M0 71h8M10 71h2M60 71h2M74 71h8M0 72h8M74 72h8M0 73h8M74 73h8M0 74h82M0 75h82M0 76h82M0 77h82M0 78h82M0 79h82M0 80h82M0 81h82" />
</svg>