<svg xmlns="http://www.w3.org/2000/svg" viewBox="0 -0.5 82 82" shape-rendering="crispEdges">
<path stroke="#fff" d="M0 0h82M0 1h82M0 2h82M0 3h82M0 4h82M0 5h82M0 6h82M0 7h82M0 8h8M74 8h8M0 9h8M74 9h8M0 10h8M74 10h8M0 11h8M74 11h8M0 12h8M74 12h8M0 13h8M74 13h8M0 14h8M74 14h8M0 15h8M74 15h8M0 16h8M74 16h8M0 17h8M74 17h8M0 18h8M74 18h8M0 19h8M74 19h8M0 20h8M74 20h8M0 21h8M74 21h8M0 22h8M74 22h8M0 23h8M74 23h8M0 24h8M74 24h8M0 25h8M74 25h8M0 26h8M74 26h8M0 27h8M74 27h8M0 28h8M74 28h8M0 29h8M74 29h8M0 30h8M74 30h8M0 31h8M74 31h8M0 32h8M74 32h8M0 33h8M74 33h8M0 34h8M74 34h8M0 35h8M74 35h8M0 36h8M74 36h8M0 37h8M74 37h8M0 38h8M74 38h8M0 39h8M74 39h8M0 40h8M74 40h8M0 41h8M74 41h8M0 42h8M74 42h8M0 43h8M74 43h8M0 44h8M74 44h8M0 45h8M74 45h8M0 46h8M74 46h8M0 47h8M74 47h8M0 48h8M74 48h8M0 49h8M74 49h8M0 50h8M74 50h8M0 51h8M74 51h8M0 52h8M74 52h8M0 53h8M74 53h8M0 54h8M74 54h8M0 55h8M74 55h8M0 56h8M74 56h8M0 57h8M74 57h8M0 58h8M74 58h8M0 59h8M74 59h8M0 60h8M74 60h8M0 61h8M74 61h8M0 62h8M74 62h8M0 63h8M74 63h8M0 64h8M74 64h8M0 65h8M74 65h8M0 66h8M74 66h8M0 67h8M74 67h8M0 68h8M74 68h8M0 69h8M74 69h8M0 70h8M74 70h8M0 71h8M74 71h8M0 72h8M74 72h8M0 73h8M74 73h8M0 74h82M0 75h82M0 76h82M0 77h82M0 78h82M0 79h82M0 80h82M0 81h82" />
</svg>