<svg xmlns="http://www.w3.org/2000/svg" viewBox="0 -0.5 82 82" shape-rendering="crispEdges">
<path stroke="#fff" d="M0 0h82M0 1h82M0 2h82M0 3h82M0 4h82M0 5h82M0 6h82M0 7h82M0 8h8M74 8h8M0 9h8M74 9h8M0 10h8M36 10h10M74 10h8M0 11h8M31 11h21M74 11h8M0 12h8M29 12h9M45 12h8M74 12h8M0 13h8M26 13h6M51 13h5M74 13h8M0 14h8M26 14h5M52 14h5M74 14h8M0 15h8M24 15h4M42 15h2M55 15h4M74 15h8M0 16h8M22 16h4M41 16h3M57 16h4M74 16h8M0 17h8M21 17h4M41 17h3M58 17h3M74 17h8M0 18h8M20 18h3M60 18h3M74 18h8M0 19h8M19 19h3M60 19h3M74 19h8M0 20h8M18 20h3M26 20h3M61 20h4M74 20h8M0 21h8M17 21h3M25 21h5M62 21h3M74 21h8M0 22h8M16 22h3M24 22h3M28 22h3M63 22h4M74 22h8M0 23h8M16 23h3M24 23h2M29 23h2M64 23h3M74 23h8M0 24h8M15 24h3M24 24h2M29 24h2M65 24h3M74 24h8M0 25h8M14 25h3M24 25h3M28 25h3M51 25h5M66 25h2M74 25h8M0 26h8M13 26h4M24 26h7M51 26h5M66 26h3M74 26h8M0 27h8M13 27h2M26 27h3M36 27h2M50 27h2M54 27h3M67 27h3M74 27h8M0 28h8M13 28h2M36 28h3M50 28h2M55 28h2M67 28h3M74 28h8M0 29h8M12 29h3M36 29h3M50 29h3M54 29h3M68 29h2M74 29h8M0 30h8M12 30h3M36 30h2M51 30h5M68 30h2M74 30h8M0 31h8M12 31h2M52 31h3M68 31h3M74 31h8M0 32h8M12 32h1M69 32h2M74 32h8M0 33h8M11 33h2M60 33h1M69 33h3M74 33h8M0 34h8M11 34h2M50 34h2M59 34h3M70 34h2M74 34h8M0 35h8M11 35h2M49 35h3M59 35h3M70 35h2M74 35h8M0 36h8M10 36h3M19 36h2M49 36h3M70 36h2M74 36h8M0 37h8M10 37h3M19 37h3M40 37h3M50 37h2M70 37h2M74 37h8M0 38h8M10 38h2M19 38h3M38 38h6M70 38h2M74 38h8M0 39h8M10 39h2M19 39h2M38 39h3M42 39h2M70 39h2M74 39h8M0 40h8M10 40h2M38 40h3M42 40h2M70 40h2M74 40h8M0 41h8M10 41h2M39 41h5M70 41h2M74 41h8M0 42h8M10 42h2M40 42h3M70 42h2M74 42h8M0 43h8M10 43h2M29 43h2M70 43h2M74 43h8M0 44h8M10 44h2M28 44h3M70 44h2M74 44h8M0 45h8M10 45h3M28 45h3M70 45h2M74 45h8M0 46h8M11 46h2M29 46h2M70 46h2M74 46h8M0 47h8M11 47h2M70 47h2M74 47h8M0 48h8M11 48h2M69 48h3M74 48h8M0 49h8M12 49h1M69 49h2M74 49h8M0 50h8M12 50h2M52 50h4M68 50h3M74 50h8M0 51h8M12 51h2M52 51h4M68 51h3M74 51h8M0 52h8M12 52h3M51 52h7M68 52h2M74 52h8M0 53h8M13 53h2M45 53h2M51 53h2M55 53h3M68 53h2M74 53h8M0 54h8M13 54h2M24 54h4M45 54h3M51 54h2M55 54h3M61 54h2M67 54h3M74 54h8M0 55h8M13 55h3M24 55h4M45 55h3M51 55h7M61 55h3M67 55h2M74 55h8M0 56h8M14 56h3M22 56h7M52 56h4M61 56h3M66 56h2M74 56h8M0 57h8M15 57h3M22 57h2M28 57h1M65 57h3M74 57h8M0 58h8M15 58h3M22 58h3M27 58h2M65 58h2M74 58h8M0 59h8M16 59h3M23 59h6M63 59h4M74 59h8M0 60h8M17 60h3M24 60h4M63 60h3M74 60h8M0 61h8M18 61h3M61 61h4M74 61h8M0 62h8M19 62h3M61 62h3M74 62h8M0 63h8M20 63h3M60 63h3M74 63h8M0 64h8M21 64h4M40 64h2M58 64h3M74 64h8M0 65h8M22 65h4M39 65h3M57 65h4M74 65h8M0 66h8M24 66h4M39 66h3M55 66h4M74 66h8M0 67h8M24 67h5M40 67h2M54 67h4M74 67h8M0 68h8M26 68h6M51 68h5M74 68h8M0 69h8M28 69h7M48 69h7M74 69h8M0 70h8M31 70h21M74 70h8M0 71h8M33 71h16M74 71h8M0 72h8M74 72h8M0 73h8M74 73h8M0 74h82M0 75h82M0 76h82M0 77h82M0 78h82M0 79h82M0 80h82M0 81h82" />
</svg>