<svg xmlns="http://www.w3.org/2000/svg" viewBox="0 0 100 100">
<path stroke="#fff" d="M47 0h7M47 1h7M47 2h7M46 3h9M45 4h10M9 5h5M18 5h5M27 5h5M36 5h5M45 5h11M60 5h4M69 5h4M78 5h4M87 5h5M8 6h6M18 6h5M27 6h5M36 6h5M45 6h11M60 6h4M69 6h4M78 6h4M87 6h6M7 7h7M18 7h5M27 7h5M36 7h5M44 7h13M60 7h4M69 7h4M78 7h4M87 7h7M6 8h8M18 8h5M27 8h5M36 8h5M43 8h14M60 8h4M69 8h4M78 8h4M87 8h8M5 9h91M5 10h91M5 11h91M5 12h91M5 13h91M9 14h82M9 15h82M9 16h82M9 17h11M81 17h10M5 18h14M82 18h14M5 19h13M83 19h13M5 20h12M84 20h12M5 21h12M84 21h12M5 22h12M84 22h12M9 23h8M84 23h7M9 24h8M84 24h7M9 25h8M84 25h7M9 26h8M84 26h7M5 27h12M27 27h46M84 27h12M5 28h12M27 28h46M84 28h12M5 29h12M27 29h46M84 29h12M5 30h12M27 30h46M84 30h12M5 31h12M27 31h46M84 31h12M9 32h8M27 32h46M84 32h7M9 33h8M27 33h4M32 33h36M69 33h4M84 33h7M9 34h8M27 34h4M33 34h34M69 34h4M84 34h7M9 35h8M27 35h4M34 35h32M69 35h4M84 35h7M5 36h12M27 36h4M35 36h30M69 36h4M84 36h12M5 37h12M27 37h4M36 37h28M69 37h4M84 37h12M5 38h12M27 38h4M37 38h26M69 38h4M84 38h12M5 39h12M27 39h4M38 39h24M69 39h4M84 39h12M5 40h12M27 40h4M39 40h22M69 40h4M84 40h12M9 41h8M27 41h4M40 41h20M69 41h4M84 41h7M9 42h8M27 42h32M69 42h4M84 42h7M8 43h9M27 43h31M69 43h4M84 43h9M6 44h11M27 44h46M84 44h11M4 45h13M27 45h46M84 45h12M2 46h15M27 46h46M84 46h15M0 47h17M27 47h46M84 47h16M0 48h17M27 48h46M84 48h16M0 49h17M27 49h46M84 49h16M0 50h17M27 50h46M84 50h16M0 51h17M27 51h46M84 51h16M0 52h17M27 52h46M84 52h16M2 53h15M27 53h46M84 53h15M3 54h14M27 54h46M84 54h14M6 55h11M27 55h46M84 55h11M7 56h10M27 56h46M84 56h10M9 57h8M27 57h46M84 57h7M9 58h8M27 58h46M84 58h7M9 59h8M27 59h46M84 59h7M5 60h12M27 60h46M84 60h12M5 61h12M27 61h46M84 61h12M5 62h12M27 62h46M84 62h12M5 63h12M27 63h5M69 63h4M84 63h12M9 64h8M27 64h5M69 64h4M84 64h7M9 65h8M27 65h5M69 65h4M84 65h7M9 66h8M27 66h5M69 66h4M84 66h7M9 67h8M27 67h5M69 67h4M84 67h7M9 68h8M27 68h5M69 68h4M84 68h7M5 69h12M27 69h46M84 69h12M5 70h12M27 70h46M84 70h12M5 71h12M27 71h46M84 71h12M5 72h12M27 72h46M84 72h12M9 73h8M27 73h46M84 73h7M9 74h8M84 74h7M9 75h8M84 75h7M9 76h8M84 76h7M9 77h8M84 77h7M5 78h12M84 78h12M5 79h12M84 79h12M5 80h13M83 80h13M5 81h14M82 81h14M9 82h11M81 82h10M9 83h82M9 84h82M9 85h82M9 86h82M5 87h91M5 88h91M5 89h91M5 90h91M6 91h8M18 91h5M27 91h5M36 91h5M43 91h14M60 91h4M69 91h4M78 91h4M87 91h8M7 92h7M18 92h5M27 92h5M36 92h5M44 92h13M60 92h4M69 92h4M78 92h4M87 92h7M7 93h7M18 93h5M27 93h5M36 93h5M44 93h13M60 93h4M69 93h4M78 93h4M87 93h6M9 94h5M18 94h5M27 94h5M36 94h5M45 94h11M60 94h4M69 94h4M78 94h4M87 94h5M9 95h5M18 95h5M27 95h5M36 95h5M45 95h10M60 95h4M69 95h4M78 95h4M87 95h4M46 96h9M47 97h7M47 98h7M47 99h7" />
</svg>