<svg xmlns="http://www.w3.org/2000/svg" viewBox="0 -0.5 82 82" shape-rendering="crispEdges">
<path stroke="#fff" d="M0 0h82M0 1h82M0 2h82M0 3h82M0 4h82M0 5h82M0 6h82M0 7h82M0 8h8M74 8h8M0 9h8M74 9h8M0 10h8M50 10h6M74 10h8M0 11h8M17 11h9M48 11h11M74 11h8M0 12h8M16 12h4M23 12h4M46 12h4M56 12h4M74 12h8M0 13h8M15 13h4M24 13h4M46 13h3M58 13h3M74 13h8M0 14h8M15 14h2M26 14h2M45 14h3M59 14h3M74 14h8M0 15h8M14 15h3M26 15h3M45 15h3M59 15h3M74 15h8M0 16h8M14 16h2M27 16h2M45 16h2M60 16h2M74 16h8M0 17h8M14 17h2M27 17h2M45 17h2M60 17h2M74 17h8M0 18h8M14 18h2M27 18h2M45 18h3M59 18h3M74 18h8M0 19h8M14 19h3M26 19h3M46 19h3M58 19h3M74 19h8M0 20h8M15 20h2M26 20h2M46 20h4M56 20h4M74 20h8M0 21h8M15 21h4M24 21h4M48 21h11M74 21h8M0 22h8M16 22h4M23 22h4M49 22h9M74 22h8M0 23h8M17 23h9M48 23h12M74 23h8M0 24h8M15 24h13M48 24h12M74 24h8M0 25h8M15 25h13M48 25h3M58 25h2M74 25h8M0 26h8M15 26h2M26 26h2M48 26h3M58 26h2M74 26h8M0 27h8M15 27h2M26 27h2M47 27h3M58 27h4M74 27h8M0 28h8M15 28h2M26 28h2M46 28h4M58 28h4M74 28h8M0 29h8M14 29h3M26 29h2M46 29h4M58 29h5M74 29h8M0 30h8M14 30h3M26 30h3M44 30h6M58 30h2M61 30h2M74 30h8M0 31h8M14 31h3M26 31h3M44 31h3M48 31h2M58 31h2M61 31h3M74 31h8M0 32h8M14 32h3M26 32h4M43 32h3M48 32h2M58 32h2M62 32h2M74 32h8M0 33h8M14 33h3M26 33h4M42 33h4M48 33h2M58 33h2M62 33h2M74 33h8M0 34h8M13 34h4M26 34h6M41 34h3M48 34h2M58 34h2M62 34h3M74 34h8M0 35h8M13 35h4M26 35h2M29 35h3M40 35h4M48 35h2M58 35h2M62 35h3M74 35h8M0 36h8M12 36h5M26 36h2M30 36h2M40 36h2M48 36h2M58 36h2M63 36h2M74 36h8M0 37h8M12 37h2M15 37h2M26 37h2M30 37h3M39 37h3M48 37h2M58 37h2M64 37h1M74 37h8M0 38h8M12 38h2M15 38h2M26 38h2M31 38h2M38 38h3M48 38h2M58 38h2M64 38h2M74 38h8M0 39h8M12 39h2M15 39h2M26 39h2M32 39h3M37 39h3M48 39h2M58 39h2M64 39h3M74 39h8M0 40h8M12 40h2M15 40h2M26 40h2M32 40h3M37 40h2M48 40h2M58 40h2M64 40h3M74 40h8M0 41h8M11 41h3M15 41h2M26 41h2M33 41h6M48 41h2M58 41h2M65 41h2M74 41h8M0 42h8M11 42h2M15 42h2M26 42h2M33 42h5M48 42h2M58 42h2M65 42h2M74 42h8M0 43h8M10 43h3M15 43h2M26 43h2M34 43h3M48 43h2M58 43h2M65 43h2M74 43h8M0 44h8M10 44h2M15 44h2M26 44h2M48 44h2M58 44h2M74 44h8M0 45h8M10 45h2M15 45h2M26 45h2M48 45h2M58 45h2M74 45h8M0 46h8M10 46h2M15 46h2M26 46h2M48 46h2M58 46h2M74 46h8M0 47h8M10 47h2M15 47h2M26 47h2M48 47h2M58 47h2M74 47h8M0 48h8M15 48h2M26 48h2M48 48h2M58 48h2M74 48h8M0 49h8M15 49h2M26 49h2M48 49h2M58 49h2M74 49h8M0 50h8M15 50h2M26 50h2M48 50h2M58 50h2M74 50h8M0 51h8M15 51h2M26 51h2M48 51h2M58 51h2M74 51h8M0 52h8M15 52h2M26 52h2M48 52h2M58 52h2M74 52h8M0 53h8M15 53h2M26 53h2M48 53h2M58 53h2M74 53h8M0 54h8M15 54h2M26 54h2M48 54h2M58 54h2M74 54h8M0 55h8M15 55h13M48 55h12M74 55h8M0 56h8M15 56h13M48 56h12M74 56h8M0 57h8M17 57h2M23 57h2M50 57h2M56 57h2M74 57h8M0 58h8M17 58h2M23 58h2M50 58h2M56 58h2M74 58h8M0 59h8M17 59h2M23 59h2M50 59h2M56 59h2M74 59h8M0 60h8M17 60h2M23 60h2M50 60h2M56 60h2M74 60h8M0 61h8M17 61h2M23 61h2M50 61h2M56 61h2M74 61h8M0 62h8M17 62h2M23 62h2M50 62h2M56 62h2M74 62h8M0 63h8M17 63h2M23 63h2M50 63h2M56 63h2M74 63h8M0 64h8M17 64h2M23 64h2M50 64h2M56 64h2M74 64h8M0 65h8M17 65h2M23 65h2M50 65h2M56 65h2M74 65h8M0 66h8M17 66h2M23 66h2M50 66h2M56 66h2M74 66h8M0 67h8M17 67h2M23 67h2M50 67h2M56 67h2M74 67h8M0 68h8M17 68h2M23 68h2M50 68h2M56 68h2M74 68h8M0 69h8M17 69h2M23 69h2M50 69h2M56 69h2M74 69h8M0 70h8M17 70h2M23 70h2M50 70h2M56 70h2M74 70h8M0 71h8M17 71h2M23 71h2M50 71h2M56 71h2M74 71h8M0 72h8M17 72h2M23 72h2M50 72h2M56 72h2M74 72h8M0 73h8M17 73h2M23 73h2M50 73h2M56 73h2M74 73h8M0 74h8M17 74h2M50 74h2M56 74h2M74 74h8M0 75h82M0 76h82M0 77h82M0 78h82M0 79h82M0 80h82M0 81h82" />
</svg>