<svg xmlns="http://www.w3.org/2000/svg" viewBox="0 -0.5 82 82" shape-rendering="crispEdges">
<path stroke="#fff" d="M0 0h82M0 1h82M0 2h82M0 3h82M0 4h82M0 5h82M0 6h82M0 7h82M0 8h8M74 8h8M0 9h8M74 9h8M0 10h8M74 10h8M0 11h8M74 11h8M0 12h8M39 12h5M74 12h8M0 13h8M39 13h5M74 13h8M0 14h8M39 14h5M52 14h3M74 14h8M0 15h8M28 15h4M39 15h5M52 15h3M74 15h8M0 16h8M28 16h4M52 16h3M74 16h8M0 17h8M28 17h4M74 17h8M0 18h8M41 18h1M74 18h8M0 19h8M17 19h4M41 19h1M61 19h5M74 19h8M0 20h8M17 20h4M41 20h1M61 20h5M74 20h8M0 21h8M17 21h4M41 21h1M61 21h5M74 21h8M0 22h8M17 22h4M41 22h1M61 22h5M74 22h8M0 23h8M17 23h4M41 23h1M61 23h5M74 23h8M0 24h8M23 24h2M41 24h1M58 24h2M74 24h8M0 25h8M23 25h2M41 25h1M57 25h3M74 25h8M0 26h8M23 26h3M41 26h1M56 26h3M74 26h8M0 27h8M24 27h3M41 27h1M55 27h3M74 27h8M0 28h8M25 28h3M41 28h1M54 28h3M74 28h8M0 29h8M26 29h3M41 29h1M53 29h4M74 29h8M0 30h8M14 30h3M27 30h3M52 30h3M66 30h3M74 30h8M0 31h8M14 31h3M28 31h4M51 31h3M66 31h3M74 31h8M0 32h8M14 32h3M29 32h3M50 32h3M66 32h3M74 32h8M0 33h8M50 33h2M74 33h8M0 34h8M74 34h8M0 35h8M74 35h8M0 36h8M74 36h8M0 37h8M74 37h8M0 38h8M74 38h8M0 39h8M67 39h4M74 39h8M0 40h8M13 40h4M57 40h8M67 40h4M74 40h8M0 41h8M13 41h4M57 41h8M67 41h4M74 41h8M0 42h8M13 42h4M20 42h10M67 42h4M74 42h8M0 43h8M13 43h4M20 43h10M67 43h4M74 43h8M0 44h8M13 44h4M74 44h8M0 45h8M74 45h8M0 46h8M74 46h8M0 47h8M74 47h8M0 48h8M74 48h8M0 49h8M66 49h3M74 49h8M0 50h8M66 50h3M74 50h8M0 51h8M14 51h3M50 51h1M66 51h3M74 51h8M0 52h8M14 52h3M30 52h2M50 52h2M66 52h3M74 52h8M0 53h8M14 53h3M29 53h3M50 53h3M74 53h8M0 54h8M28 54h3M41 54h1M51 54h4M74 54h8M0 55h8M27 55h3M41 55h1M52 55h3M74 55h8M0 56h8M26 56h3M41 56h1M53 56h4M59 56h5M74 56h8M0 57h8M26 57h2M41 57h1M54 57h3M59 57h5M74 57h8M0 58h8M41 58h1M55 58h3M59 58h5M74 58h8M0 59h8M21 59h4M41 59h1M56 59h2M59 59h5M74 59h8M0 60h8M21 60h4M41 60h1M59 60h5M74 60h8M0 61h8M21 61h4M41 61h1M74 61h8M0 62h8M21 62h4M41 62h1M74 62h8M0 63h8M74 63h8M0 64h8M74 64h8M0 65h8M29 65h3M39 65h5M51 65h4M74 65h8M0 66h8M29 66h3M39 66h5M51 66h4M74 66h8M0 67h8M29 67h3M39 67h5M51 67h4M74 67h8M0 68h8M29 68h3M39 68h5M51 68h4M74 68h8M0 69h8M39 69h5M74 69h8M0 70h8M74 70h8M0 71h8M74 71h8M0 72h8M74 72h8M0 73h8M74 73h8M0 74h82M0 75h82M0 76h82M0 77h82M0 78h82M0 79h82M0 80h82M0 81h82" />
</svg>