<svg xmlns="http://www.w3.org/2000/svg" viewBox="0 -0.5 82 82" shape-rendering="crispEdges">
<path stroke="#fff" d="M0 0h82M0 1h82M0 2h82M0 3h82M0 4h82M0 5h82M0 6h82M0 7h82M0 8h8M74 8h8M0 9h8M74 9h8M0 10h8M38 10h3M74 10h8M0 11h8M37 11h4M74 11h8M0 12h8M31 12h2M37 12h4M74 12h8M0 13h8M30 13h3M37 13h4M50 13h1M74 13h8M0 14h8M30 14h3M37 14h4M50 14h1M74 14h8M0 15h8M30 15h3M36 15h5M49 15h2M74 15h8M0 16h8M29 16h4M36 16h5M49 16h2M56 16h1M74 16h8M0 17h8M14 17h1M29 17h4M35 17h6M49 17h2M56 17h2M74 17h8M0 18h8M14 18h2M29 18h4M35 18h6M49 18h2M56 18h2M74 18h8M0 19h8M14 19h2M29 19h4M35 19h7M49 19h2M56 19h2M74 19h8M0 20h8M15 20h2M28 20h5M35 20h7M49 20h2M55 20h3M74 20h8M0 21h8M15 21h2M28 21h5M35 21h7M49 21h2M55 21h3M74 21h8M0 22h8M14 22h3M28 22h14M48 22h3M55 22h3M74 22h8M0 23h8M14 23h3M28 23h14M48 23h3M55 23h3M74 23h8M0 24h8M14 24h3M28 24h14M48 24h3M54 24h4M64 24h1M74 24h8M0 25h8M14 25h4M24 25h2M28 25h15M48 25h3M54 25h4M64 25h1M74 25h8M0 26h8M14 26h4M24 26h2M28 26h15M47 26h4M53 26h5M64 26h1M74 26h8M0 27h8M12 27h6M23 27h3M28 27h16M46 27h5M52 27h5M62 27h3M74 27h8M0 28h8M12 28h6M23 28h3M28 28h10M39 28h5M46 28h5M52 28h5M62 28h3M74 28h8M0 29h8M12 29h6M23 29h4M28 29h10M41 29h3M45 29h12M63 29h3M74 29h8M0 30h8M12 30h6M23 30h4M28 30h10M41 30h16M63 30h3M74 30h8M0 31h8M13 31h5M23 31h10M34 31h4M41 31h16M63 31h3M74 31h8M0 32h8M14 32h3M23 32h10M35 32h3M42 32h15M63 32h3M74 32h8M0 33h8M14 33h3M23 33h10M36 33h2M42 33h15M64 33h3M74 33h8M0 34h8M14 34h3M23 34h10M36 34h1M42 34h7M50 34h7M64 34h3M74 34h8M0 35h8M14 35h3M24 35h9M42 35h7M51 35h6M64 35h3M74 35h8M0 36h8M14 36h3M25 36h8M42 36h6M51 36h6M64 36h3M74 36h8M0 37h8M14 37h3M25 37h8M42 37h6M51 37h6M64 37h4M74 37h8M0 38h8M14 38h3M25 38h8M42 38h6M51 38h5M64 38h4M74 38h8M0 39h8M14 39h3M25 39h8M42 39h6M51 39h5M64 39h4M74 39h8M0 40h8M14 40h3M25 40h8M42 40h5M51 40h6M64 40h4M74 40h8M0 41h8M14 41h3M25 41h8M42 41h4M51 41h6M64 41h4M74 41h8M0 42h8M14 42h3M25 42h8M42 42h4M51 42h7M63 42h5M74 42h8M0 43h8M14 43h3M25 43h8M42 43h4M51 43h7M63 43h4M74 43h8M0 44h8M14 44h4M23 44h2M26 44h7M42 44h3M50 44h8M62 44h5M74 44h8M0 45h8M14 45h4M23 45h2M26 45h7M43 45h1M50 45h8M62 45h5M74 45h8M0 46h8M14 46h4M23 46h2M26 46h7M43 46h1M49 46h9M62 46h4M74 46h8M0 47h8M14 47h3M23 47h10M43 47h1M49 47h9M62 47h4M74 47h8M0 48h8M14 48h3M23 48h10M43 48h1M49 48h9M62 48h4M74 48h8M0 49h8M14 49h2M23 49h10M49 49h9M64 49h1M74 49h8M0 50h8M14 50h2M23 50h10M49 50h9M64 50h1M74 50h8M0 51h8M14 51h2M23 51h5M31 51h2M49 51h8M63 51h2M74 51h8M0 52h8M14 52h2M23 52h5M32 52h1M48 52h9M63 52h3M74 52h8M0 53h8M14 53h1M23 53h6M32 53h1M48 53h9M63 53h3M74 53h8M0 54h8M14 54h1M23 54h6M47 54h9M63 54h3M74 54h8M0 55h8M14 55h1M23 55h6M47 55h9M63 55h3M74 55h8M0 56h8M14 56h1M24 56h6M46 56h9M63 56h2M74 56h8M0 57h8M14 57h1M24 57h6M46 57h9M63 57h2M74 57h8M0 58h8M25 58h6M46 58h7M63 58h1M74 58h8M0 59h8M25 59h7M45 59h8M63 59h1M74 59h8M0 60h8M26 60h7M44 60h9M74 60h8M0 61h8M26 61h9M42 61h10M74 61h8M0 62h8M27 62h9M41 62h10M74 62h8M0 63h8M28 63h9M40 63h11M74 63h8M0 64h8M29 64h9M39 64h12M74 64h8M0 65h8M30 65h20M74 65h8M0 66h8M31 66h18M74 66h8M0 67h8M32 67h17M74 67h8M0 68h8M34 68h14M74 68h8M0 69h8M36 69h12M74 69h8M0 70h8M39 70h5M74 70h8M0 71h8M74 71h8M0 72h8M74 72h8M0 73h8M74 73h8M0 74h82M0 75h82M0 76h82M0 77h82M0 78h82M0 79h82M0 80h82M0 81h82" />
</svg>