<svg xmlns="http://www.w3.org/2000/svg" viewBox="0 0 82 82">
<path stroke="#fff" d="M0 0h82M0 1h82M0 2h82M0 3h82M0 4h82M0 5h82M0 6h82M0 7h82M0 8h8M74 8h8M0 9h8M74 9h8M0 10h8M74 10h8M0 11h8M74 11h8M0 12h8M74 12h8M0 13h8M43 13h23M74 13h8M0 14h8M43 14h23M74 14h8M0 15h8M43 15h23M74 15h8M0 16h8M43 16h23M74 16h8M0 17h8M43 17h23M74 17h8M0 18h8M43 18h23M74 18h8M0 19h8M43 19h23M74 19h8M0 20h8M43 20h23M74 20h8M0 21h8M43 21h23M74 21h8M0 22h8M43 22h23M74 22h8M0 23h8M43 23h23M74 23h8M0 24h8M43 24h23M74 24h8M0 25h8M43 25h23M74 25h8M0 26h8M43 26h23M74 26h8M0 27h8M43 27h23M74 27h8M0 28h8M44 28h2M53 28h2M62 28h2M74 28h8M0 29h8M44 29h2M53 29h2M62 29h2M74 29h8M0 30h8M44 30h2M53 30h2M62 30h2M74 30h8M0 31h8M44 31h2M53 31h2M62 31h3M74 31h8M0 32h8M44 32h3M53 32h2M63 32h2M74 32h8M0 33h8M44 33h3M53 33h2M63 33h2M74 33h8M0 34h8M45 34h2M53 34h2M63 34h2M74 34h8M0 35h8M45 35h2M53 35h2M64 35h1M74 35h8M0 36h8M45 36h2M53 36h2M64 36h2M74 36h8M0 37h8M45 37h3M53 37h2M64 37h3M74 37h8M0 38h8M46 38h2M53 38h2M64 38h3M74 38h8M0 39h8M46 39h2M53 39h2M65 39h2M74 39h8M0 40h8M46 40h2M53 40h2M65 40h2M74 40h8M0 41h8M13 41h3M19 41h19M46 41h2M53 41h2M65 41h2M74 41h8M0 42h8M13 42h3M19 42h19M46 42h2M53 42h2M65 42h3M74 42h8M0 43h8M13 43h3M19 43h19M46 43h2M53 43h2M66 43h2M74 43h8M0 44h8M13 44h25M46 44h2M53 44h3M66 44h3M74 44h8M0 45h8M13 45h25M46 45h3M54 45h2M66 45h3M74 45h8M0 46h8M13 46h25M47 46h2M54 46h2M67 46h2M74 46h8M0 47h8M13 47h25M47 47h2M54 47h2M67 47h2M74 47h8M0 48h8M13 48h3M19 48h19M47 48h2M54 48h2M67 48h2M74 48h8M0 49h8M13 49h3M19 49h19M47 49h2M54 49h2M67 49h3M74 49h8M0 50h8M13 50h3M19 50h19M48 50h1M54 50h2M68 50h2M74 50h8M0 51h8M48 51h1M54 51h2M68 51h2M74 51h8M0 52h8M48 52h1M74 52h8M0 53h8M74 53h8M0 54h8M74 54h8M0 55h8M74 55h8M0 56h8M74 56h8M0 57h8M74 57h8M0 58h8M25 58h3M32 58h18M74 58h8M0 59h8M25 59h3M32 59h18M74 59h8M0 60h8M25 60h3M32 60h18M74 60h8M0 61h8M25 61h25M74 61h8M0 62h8M25 62h25M74 62h8M0 63h8M25 63h25M74 63h8M0 64h8M25 64h3M32 64h18M74 64h8M0 65h8M25 65h3M32 65h18M74 65h8M0 66h8M25 66h3M32 66h18M74 66h8M0 67h8M25 67h3M32 67h18M74 67h8M0 68h8M74 68h8M0 69h8M74 69h8M0 70h8M74 70h8M0 71h8M74 71h8M0 72h8M74 72h8M0 73h8M74 73h8M0 74h8M74 74h8M0 75h82M0 76h82M0 77h82M0 78h82M0 79h82M0 80h82M0 81h82" />
</svg>