<svg xmlns="http://www.w3.org/2000/svg" viewBox="0 0 100 100">
<path stroke="#fff" d="M47 0h6M46 1h8M45 2h9M45 3h9M9 4h4M18 4h4M27 4h4M36 4h4M45 4h10M59 4h5M68 4h5M77 4h5M86 4h5M8 5h5M18 5h4M27 5h4M36 5h4M44 5h12M59 5h5M68 5h5M77 5h5M86 5h5M7 6h6M18 6h4M27 6h4M36 6h4M43 6h13M59 6h5M68 6h5M77 6h5M86 6h7M6 7h7M18 7h4M27 7h4M36 7h4M43 7h14M59 7h5M68 7h5M77 7h5M86 7h8M5 8h8M18 8h4M27 8h4M36 8h4M43 8h14M59 8h5M68 8h5M77 8h5M86 8h9M4 9h91M4 10h91M4 11h91M4 12h91M9 13h82M9 14h82M9 15h82M9 16h11M80 16h11M9 17h10M80 17h11M4 18h14M82 18h13M4 19h13M82 19h13M4 20h12M83 20h12M4 21h12M83 21h12M9 22h7M83 22h8M9 23h7M83 23h8M9 24h7M83 24h8M9 25h7M83 25h8M9 26h7M83 26h8M4 27h12M83 27h12M4 28h12M83 28h12M4 29h12M23 29h52M83 29h12M4 30h12M23 30h1M75 30h1M83 30h12M9 31h7M23 31h1M75 31h1M83 31h8M9 32h7M23 32h1M75 32h1M83 32h8M9 33h7M23 33h1M75 33h1M83 33h8M9 34h7M23 34h1M75 34h1M83 34h8M9 35h7M23 35h1M75 35h1M83 35h8M4 36h12M23 36h1M40 36h19M75 36h1M83 36h12M4 37h12M23 37h1M40 37h20M75 37h1M83 37h12M4 38h12M23 38h1M40 38h20M75 38h1M83 38h12M4 39h12M23 39h1M40 39h8M50 39h10M75 39h1M83 39h12M9 40h7M23 40h1M40 40h8M50 40h10M75 40h1M83 40h8M9 41h7M23 41h1M40 41h8M50 41h10M75 41h1M83 41h8M9 42h7M23 42h1M40 42h8M50 42h10M75 42h1M83 42h8M6 43h10M23 43h1M40 43h5M54 43h6M75 43h1M83 43h10M5 44h11M23 44h1M40 44h5M54 44h6M75 44h1M83 44h12M2 45h14M23 45h1M40 45h8M50 45h10M75 45h1M83 45h14M0 46h16M23 46h1M40 46h8M50 46h10M75 46h1M83 46h17M0 47h16M23 47h1M40 47h8M50 47h10M75 47h1M83 47h17M0 48h16M23 48h1M40 48h20M75 48h1M83 48h17M0 49h16M23 49h1M40 49h20M75 49h1M83 49h17M0 50h16M23 50h1M40 50h20M75 50h1M83 50h17M0 51h16M23 51h1M40 51h20M75 51h1M83 51h17M0 52h16M23 52h1M40 52h20M75 52h1M83 52h17M1 53h15M23 53h1M40 53h20M75 53h1M83 53h15M4 54h12M23 54h1M40 54h20M75 54h1M83 54h13M6 55h10M23 55h52M83 55h10M7 56h9M24 56h51M83 56h9M9 57h7M40 57h20M83 57h8M9 58h7M40 58h6M54 58h6M83 58h8M4 59h12M24 59h22M54 59h21M83 59h12M4 60h12M23 60h52M83 60h12M4 61h12M23 61h1M40 61h20M75 61h1M83 61h12M4 62h12M23 62h1M40 62h20M75 62h1M83 62h12M4 63h12M23 63h1M40 63h20M75 63h1M83 63h12M9 64h7M23 64h1M40 64h20M75 64h1M83 64h8M9 65h7M23 65h1M40 65h19M75 65h1M83 65h8M9 66h7M23 66h1M75 66h1M83 66h8M9 67h7M23 67h1M75 67h1M83 67h8M4 68h12M23 68h1M75 68h1M83 68h12M4 69h12M23 69h1M75 69h1M83 69h12M4 70h12M23 70h53M83 70h12M4 71h12M25 71h2M29 71h1M32 71h2M37 71h1M41 71h1M44 71h1M47 71h1M51 71h1M54 71h2M59 71h1M61 71h2M64 71h1M68 71h2M72 71h1M83 71h12M4 72h12M25 72h2M29 72h1M32 72h2M37 72h1M41 72h1M44 72h1M47 72h1M51 72h1M54 72h2M59 72h1M61 72h2M64 72h1M68 72h2M72 72h1M83 72h12M9 73h7M83 73h8M9 74h7M83 74h8M9 75h7M83 75h8M9 76h7M83 76h8M4 77h12M83 77h12M4 78h12M83 78h12M4 79h12M83 79h12M4 80h14M82 80h13M4 81h14M81 81h14M9 82h11M80 82h11M9 83h82M9 84h82M9 85h82M4 86h91M4 87h91M4 88h91M4 89h91M4 90h91M6 91h7M18 91h4M27 91h4M36 91h4M43 91h14M59 91h5M68 91h5M77 91h5M86 91h8M6 92h7M18 92h4M27 92h4M36 92h4M43 92h13M59 92h5M68 92h5M77 92h5M86 92h7M7 93h6M18 93h4M27 93h4M36 93h4M44 93h12M59 93h5M68 93h5M77 93h5M86 93h6M9 94h4M18 94h4M27 94h4M36 94h4M45 94h10M59 94h5M68 94h5M77 94h5M86 94h5M45 95h10M45 96h9M46 97h8M47 98h6M47 99h6" />
</svg>