<svg xmlns="http://www.w3.org/2000/svg" viewBox="0 0 82 82">
<path stroke="#fff" d="M0 0h82M0 1h82M0 2h82M0 3h82M0 4h82M0 5h82M0 6h82M0 7h82M0 8h7M74 8h8M0 9h7M74 9h8M0 10h7M74 10h8M0 11h7M74 11h8M0 12h7M74 12h8M0 13h7M20 13h2M74 13h8M0 14h7M39 14h2M74 14h8M0 15h7M40 15h1M74 15h8M0 16h7M74 16h8M0 17h7M74 17h8M0 18h7M74 18h8M0 19h7M74 19h8M0 20h7M39 20h2M59 20h3M74 20h8M0 21h7M19 21h2M39 21h3M59 21h3M74 21h8M0 22h7M19 22h3M39 22h3M59 22h2M74 22h8M0 23h7M19 23h2M74 23h8M0 24h7M74 24h8M0 25h7M74 25h8M0 26h7M74 26h8M0 27h7M74 27h8M0 28h7M74 28h8M0 29h7M74 29h8M0 30h7M74 30h8M0 31h7M74 31h8M0 32h7M74 32h8M0 33h7M55 33h8M74 33h8M0 34h7M17 34h8M36 34h8M55 34h2M62 34h1M74 34h8M0 35h7M17 35h1M23 35h2M36 35h1M43 35h1M55 35h2M62 35h1M74 35h8M0 36h7M17 36h1M23 36h2M36 36h1M43 36h1M55 36h2M62 36h1M74 36h8M0 37h7M17 37h1M23 37h2M36 37h1M43 37h1M55 37h2M62 37h1M74 37h8M0 38h7M17 38h1M23 38h2M36 38h1M43 38h1M55 38h2M62 38h1M74 38h8M0 39h7M17 39h8M36 39h8M55 39h8M74 39h8M0 40h7M17 40h8M36 40h8M74 40h8M0 41h7M74 41h8M0 42h7M55 42h8M74 42h8M0 43h7M17 43h8M36 43h8M55 43h2M62 43h1M74 43h8M0 44h7M17 44h1M23 44h2M36 44h1M43 44h1M52 44h5M62 44h4M74 44h8M0 45h7M14 45h4M23 45h5M33 45h4M43 45h4M52 45h1M55 45h2M62 45h1M65 45h1M74 45h8M0 46h7M14 46h1M17 46h1M23 46h2M27 46h1M33 46h1M36 46h1M43 46h1M46 46h1M52 46h1M55 46h2M62 46h1M65 46h1M74 46h8M0 47h7M14 47h1M17 47h1M23 47h2M27 47h1M33 47h1M36 47h1M43 47h1M46 47h1M52 47h1M55 47h2M62 47h1M65 47h1M74 47h8M0 48h7M14 48h1M17 48h1M23 48h2M27 48h1M33 48h1M36 48h1M43 48h1M46 48h1M52 48h1M55 48h2M62 48h1M65 48h1M74 48h8M0 49h7M14 49h1M17 49h1M23 49h2M27 49h1M33 49h1M36 49h1M43 49h1M46 49h1M52 49h1M55 49h2M62 49h1M65 49h1M74 49h8M0 50h7M14 50h1M17 50h1M23 50h2M27 50h1M33 50h1M36 50h1M43 50h1M46 50h1M52 50h1M55 50h2M62 50h1M65 50h1M74 50h8M0 51h7M14 51h1M17 51h1M23 51h2M27 51h1M33 51h1M36 51h1M43 51h1M46 51h1M52 51h1M55 51h2M62 51h1M65 51h1M74 51h8M0 52h7M14 52h1M17 52h1M23 52h2M27 52h1M33 52h1M36 52h1M43 52h1M46 52h1M52 52h1M55 52h2M62 52h1M65 52h1M74 52h8M0 53h7M14 53h1M17 53h1M23 53h2M27 53h1M33 53h1M36 53h1M43 53h1M46 53h1M52 53h1M55 53h2M62 53h1M65 53h1M74 53h8M0 54h7M14 54h1M17 54h1M23 54h2M27 54h1M33 54h1M36 54h1M43 54h1M46 54h1M52 54h1M55 54h2M62 54h1M74 54h8M0 55h7M17 55h1M23 55h2M36 55h1M43 55h1M55 55h2M62 55h1M74 55h8M0 56h7M17 56h1M23 56h2M36 56h1M43 56h1M55 56h2M62 56h1M74 56h8M0 57h7M17 57h1M23 57h2M36 57h1M43 57h1M55 57h2M62 57h1M74 57h8M0 58h7M17 58h1M23 58h2M36 58h1M43 58h1M55 58h2M62 58h1M74 58h8M0 59h7M17 59h8M36 59h8M55 59h8M74 59h8M0 60h7M17 60h8M36 60h8M56 60h1M60 60h1M74 60h8M0 61h7M18 61h1M21 61h2M37 61h1M41 61h1M56 61h1M60 61h1M74 61h8M0 62h7M18 62h1M21 62h2M37 62h1M41 62h1M56 62h1M60 62h1M74 62h8M0 63h7M18 63h1M21 63h2M37 63h1M41 63h1M56 63h1M60 63h1M74 63h8M0 64h7M18 64h1M21 64h2M37 64h1M41 64h1M56 64h1M60 64h1M74 64h8M0 65h7M18 65h1M21 65h2M37 65h1M41 65h1M56 65h1M60 65h1M74 65h8M0 66h7M18 66h1M21 66h2M37 66h1M41 66h1M56 66h1M60 66h1M74 66h8M0 67h7M18 67h1M21 67h2M37 67h1M41 67h1M56 67h1M60 67h1M74 67h8M0 68h7M18 68h1M21 68h2M37 68h1M41 68h1M56 68h1M60 68h1M74 68h8M0 69h7M18 69h1M21 69h2M37 69h1M41 69h1M74 69h8M0 70h7M74 70h8M0 71h7M74 71h8M0 72h7M74 72h8M0 73h7M74 73h8M0 74h7M74 74h8M0 75h82M0 76h82M0 77h82M0 78h82M0 79h82M0 80h82M0 81h82" />
</svg>