<svg xmlns="http://www.w3.org/2000/svg" viewBox="0 0 82 82">
<path stroke="#fff" d="M0 0h82M0 1h82M0 2h82M0 3h82M0 4h82M0 5h82M0 6h82M0 7h82M0 8h8M44 8h4M49 8h3M53 8h4M74 8h8M0 9h8M44 9h4M49 9h3M53 9h4M74 9h8M0 10h8M45 10h3M49 10h3M53 10h3M74 10h8M0 11h8M49 11h3M74 11h8M0 12h8M49 12h3M74 12h8M0 13h8M49 13h3M74 13h8M0 14h8M49 14h3M74 14h8M0 15h8M49 15h3M74 15h8M0 16h8M49 16h3M74 16h8M0 17h8M49 17h3M74 17h8M0 18h8M49 18h3M74 18h8M0 19h8M49 19h3M74 19h8M0 20h8M49 20h3M74 20h8M0 21h8M49 21h3M74 21h8M0 22h8M49 22h3M74 22h8M0 23h8M49 23h3M74 23h8M0 24h8M49 24h3M74 24h8M0 25h8M49 25h3M74 25h8M0 26h10M49 26h3M72 26h10M0 27h12M49 27h3M71 27h11M0 28h12M49 28h3M71 28h11M0 29h12M49 29h3M71 29h11M0 30h12M49 30h3M71 30h11M0 31h82M0 32h82M0 33h82M0 34h8M49 34h3M74 34h8M0 35h12M49 35h3M71 35h11M0 36h12M49 36h3M71 36h11M0 37h12M49 37h3M71 37h11M0 38h10M49 38h3M72 38h10M0 39h10M49 39h3M72 39h10M0 40h8M49 40h3M74 40h8M0 41h8M49 41h3M74 41h8M0 42h8M49 42h3M74 42h8M0 43h8M49 43h3M74 43h8M0 44h8M49 44h3M74 44h8M0 45h8M49 45h3M74 45h8M0 46h8M49 46h3M74 46h8M0 47h8M49 47h3M74 47h8M0 48h8M49 48h3M74 48h8M0 49h8M49 49h3M74 49h8M0 50h8M49 50h3M74 50h8M0 51h8M49 51h3M74 51h8M0 52h8M49 52h3M74 52h8M0 53h8M49 53h3M74 53h8M0 54h8M49 54h3M74 54h8M0 55h8M49 55h3M74 55h8M0 56h8M49 56h3M74 56h8M0 57h8M49 57h3M74 57h8M0 58h8M49 58h3M74 58h8M0 59h8M49 59h3M74 59h8M0 60h8M49 60h3M74 60h8M0 61h8M49 61h3M74 61h8M0 62h8M49 62h3M74 62h8M0 63h8M49 63h3M74 63h8M0 64h8M49 64h3M74 64h8M0 65h8M49 65h3M74 65h8M0 66h8M49 66h3M74 66h8M0 67h8M49 67h3M74 67h8M0 68h8M49 68h3M74 68h8M0 69h8M49 69h3M74 69h8M0 70h8M45 70h3M49 70h3M53 70h3M74 70h8M0 71h8M45 71h3M49 71h3M53 71h3M74 71h8M0 72h8M43 72h5M49 72h3M53 72h4M74 72h8M0 73h8M43 73h3M49 73h3M54 73h3M74 73h8M0 74h82M0 75h82M0 76h82M0 77h82M0 78h82M0 79h82M0 80h82M0 81h82" />
</svg>