<svg xmlns="http://www.w3.org/2000/svg" viewBox="0 0 82 82">
<path stroke="#fff" d="M0 0h82M0 1h82M0 2h82M0 3h82M0 4h82M0 5h82M0 6h82M0 7h82M0 8h7M74 8h8M0 9h7M62 9h2M74 9h8M0 10h7M61 10h3M74 10h8M0 11h7M60 11h3M74 11h8M0 12h7M59 12h3M71 12h2M74 12h8M0 13h7M58 13h4M71 13h2M74 13h8M0 14h7M58 14h2M71 14h2M74 14h8M0 15h7M57 15h3M70 15h3M74 15h8M0 16h7M56 16h3M70 16h2M74 16h8M0 17h7M55 17h3M69 17h3M74 17h8M0 18h7M55 18h2M69 18h2M74 18h8M0 19h7M53 19h4M69 19h2M74 19h8M0 20h7M53 20h3M69 20h2M74 20h8M0 21h7M52 21h3M68 21h3M74 21h8M0 22h7M51 22h3M68 22h3M74 22h8M0 23h7M51 23h2M67 23h3M74 23h8M0 24h7M51 24h2M67 24h3M74 24h8M0 25h7M46 25h4M67 25h2M74 25h8M0 26h7M46 26h4M67 26h2M74 26h8M0 27h7M46 27h4M66 27h3M74 27h8M0 28h7M46 28h4M66 28h2M74 28h8M0 29h7M46 29h4M66 29h2M74 29h8M0 30h7M66 30h2M74 30h8M0 31h7M66 31h1M74 31h8M0 32h7M65 32h2M74 32h8M0 33h7M65 33h2M74 33h8M0 34h7M11 34h3M74 34h8M0 35h7M12 35h5M60 35h4M74 35h8M0 36h7M13 36h5M60 36h4M74 36h8M0 37h7M16 37h4M60 37h4M74 37h8M0 38h7M17 38h4M60 38h4M74 38h8M0 39h7M19 39h5M74 39h8M0 40h7M20 40h5M74 40h8M0 41h7M23 41h4M74 41h8M0 42h7M23 42h5M74 42h8M0 43h7M26 43h4M74 43h8M0 44h7M9 44h2M28 44h2M74 44h8M0 45h7M9 45h2M74 45h8M0 46h7M9 46h3M32 46h4M74 46h8M0 47h7M10 47h2M32 47h4M74 47h8M0 48h7M10 48h4M32 48h4M74 48h8M0 49h7M11 49h3M32 49h4M74 49h8M0 50h7M12 50h3M32 50h4M74 50h8M0 51h7M13 51h3M74 51h8M0 52h7M14 52h2M74 52h8M0 53h7M14 53h3M74 53h8M0 54h7M15 54h2M74 54h8M0 55h7M16 55h1M74 55h8M0 56h7M74 56h8M0 57h7M18 57h5M74 57h8M0 58h7M18 58h5M74 58h8M0 59h7M18 59h5M74 59h8M0 60h7M18 60h5M74 60h8M0 61h7M18 61h5M74 61h8M0 62h7M74 62h8M0 63h7M74 63h8M0 64h7M74 64h8M0 65h7M74 65h8M0 66h7M74 66h8M0 67h7M74 67h8M0 68h7M74 68h8M0 69h7M74 69h8M0 70h7M74 70h8M0 71h7M74 71h8M0 72h7M74 72h8M0 73h7M74 73h8M0 74h7M74 74h8M0 75h82M0 76h82M0 77h82M0 78h82M0 79h82M0 80h82M0 81h82" />
</svg>