<svg xmlns="http://www.w3.org/2000/svg" viewBox="0 0 100 100">
<path stroke="#fff" d="M47 0h6M46 1h8M45 2h9M45 3h9M9 4h4M18 4h4M27 4h4M36 4h4M45 4h10M59 4h5M68 4h5M77 4h5M86 4h5M8 5h5M18 5h4M27 5h4M36 5h4M44 5h12M59 5h5M68 5h5M77 5h5M86 5h5M7 6h6M18 6h4M27 6h4M36 6h4M43 6h13M59 6h5M68 6h5M77 6h5M86 6h7M6 7h7M18 7h4M27 7h4M36 7h4M43 7h13M59 7h5M68 7h5M77 7h5M86 7h7M5 8h8M18 8h4M27 8h4M36 8h4M43 8h14M59 8h5M68 8h5M77 8h5M86 8h9M4 9h91M4 10h91M4 11h91M4 12h91M9 13h82M9 14h82M9 15h82M9 16h11M80 16h11M9 17h10M81 17h10M4 18h14M82 18h13M4 19h13M24 19h14M82 19h13M4 20h13M24 20h14M83 20h12M4 21h13M24 21h14M83 21h12M9 22h8M24 22h3M31 22h2M36 22h2M83 22h8M9 23h8M24 23h3M31 23h2M36 23h2M83 23h8M9 24h8M24 24h3M31 24h2M36 24h2M83 24h8M9 25h8M24 25h14M79 25h2M83 25h8M9 26h8M24 26h14M78 26h3M83 26h8M4 27h13M24 27h14M75 27h6M83 27h12M4 28h13M24 28h14M73 28h8M83 28h12M4 29h13M24 29h14M70 29h11M83 29h12M4 30h13M24 30h14M68 30h13M83 30h12M9 31h8M65 31h16M83 31h8M9 32h8M62 32h19M83 32h8M9 33h8M31 33h26M60 33h21M83 33h8M9 34h8M31 34h26M59 34h22M83 34h8M9 35h8M31 35h26M59 35h22M83 35h8M4 36h13M27 36h2M31 36h26M59 36h18M83 36h12M4 37h13M26 37h3M31 37h26M59 37h17M83 37h12M4 38h13M24 38h5M31 38h26M59 38h14M83 38h12M4 39h13M23 39h6M31 39h26M59 39h13M83 39h12M9 40h8M21 40h8M31 40h26M59 40h9M83 40h8M9 41h8M18 41h11M31 41h26M59 41h6M83 41h8M9 42h8M18 42h11M31 42h26M59 42h5M83 42h8M6 43h11M18 43h11M31 43h26M59 43h2M83 43h10M5 44h12M18 44h11M31 44h26M83 44h12M2 45h15M18 45h9M31 45h26M83 45h14M1 46h16M18 46h9M31 46h26M83 46h15M0 47h17M18 47h7M31 47h26M83 47h17M0 48h17M18 48h5M31 48h26M83 48h17M0 49h17M18 49h4M31 49h26M83 49h17M0 50h17M18 50h2M31 50h26M83 50h17M0 51h17M31 51h26M83 51h17M0 52h17M31 52h26M83 52h17M1 53h16M31 53h26M83 53h15M4 54h13M31 54h26M83 54h13M5 55h12M31 55h26M83 55h12M8 56h9M31 56h26M83 56h9M9 57h8M31 57h26M83 57h8M9 58h8M31 58h26M83 58h8M4 59h13M31 59h26M83 59h12M4 60h13M31 60h26M83 60h12M4 61h13M83 61h12M4 62h13M83 62h12M4 63h13M31 63h7M50 63h8M83 63h12M9 64h8M30 64h8M51 64h7M83 64h8M9 65h8M29 65h9M51 65h8M83 65h8M9 66h8M29 66h8M52 66h7M83 66h8M9 67h8M29 67h8M52 67h7M83 67h8M4 68h13M28 68h8M53 68h7M83 68h12M4 69h13M28 69h8M53 69h8M83 69h12M4 70h13M27 70h9M54 70h7M83 70h12M4 71h13M27 71h8M54 71h8M83 71h12M4 72h13M27 72h7M55 72h8M83 72h12M9 73h8M26 73h8M56 73h7M83 73h8M9 74h8M26 74h8M56 74h7M83 74h8M9 75h8M25 75h9M56 75h8M83 75h8M9 76h8M25 76h8M57 76h8M83 76h8M4 77h13M25 77h8M58 77h7M83 77h12M4 78h13M24 78h9M58 78h7M83 78h12M4 79h13M24 79h8M58 79h8M83 79h12M4 80h14M24 80h7M59 80h7M82 80h13M4 81h14M81 81h14M9 82h11M80 82h11M9 83h82M9 84h82M9 85h82M4 86h91M4 87h91M4 88h91M4 89h91M4 90h91M6 91h7M18 91h4M27 91h4M36 91h4M43 91h14M59 91h5M68 91h5M77 91h5M86 91h8M6 92h7M18 92h4M27 92h4M36 92h4M43 92h13M59 92h5M68 92h5M77 92h5M86 92h7M8 93h5M18 93h4M27 93h4M36 93h4M44 93h12M59 93h5M68 93h5M77 93h5M86 93h6M8 94h5M18 94h4M27 94h4M36 94h4M44 94h12M59 94h5M68 94h5M77 94h5M86 94h5M45 95h10M45 96h9M46 97h8M47 98h6M47 99h6" />
</svg>