<svg xmlns="http://www.w3.org/2000/svg" viewBox="0 0 82 82">
<path stroke="#fff" d="M0 0h82M0 1h82M0 2h82M0 3h82M0 4h82M0 5h82M0 6h82M0 7h82M0 8h8M74 8h8M0 9h8M74 9h8M0 10h8M74 10h8M0 11h8M74 11h8M0 12h8M74 12h8M0 13h8M74 13h8M0 14h8M74 14h8M0 15h8M74 15h8M0 16h8M74 16h8M0 17h8M74 17h8M0 18h8M74 18h8M0 19h8M74 19h8M0 20h8M74 20h8M0 21h8M26 21h30M74 21h8M0 22h8M26 22h30M74 22h8M0 23h8M26 23h30M74 23h8M0 24h8M26 24h30M74 24h8M0 25h8M26 25h30M74 25h8M0 26h8M26 26h30M74 26h8M0 27h8M26 27h2M55 27h1M74 27h8M0 28h8M26 28h2M55 28h1M74 28h8M0 29h8M26 29h2M55 29h1M74 29h8M0 30h8M26 30h2M55 30h1M74 30h8M0 31h8M26 31h2M55 31h1M74 31h8M0 32h8M26 32h30M74 32h8M0 33h8M26 33h30M74 33h8M0 34h8M26 34h30M74 34h8M0 35h8M26 35h30M74 35h8M0 36h8M26 36h30M74 36h8M0 37h8M26 37h30M74 37h8M0 38h8M26 38h30M74 38h8M0 39h8M26 39h30M74 39h8M0 40h8M26 40h30M74 40h8M0 41h8M26 41h30M74 41h8M0 42h8M26 42h30M74 42h8M0 43h8M26 43h30M74 43h8M0 44h8M26 44h30M74 44h8M0 45h8M26 45h30M74 45h8M0 46h8M26 46h30M74 46h8M0 47h8M26 47h30M74 47h8M0 48h8M26 48h30M74 48h8M0 49h8M26 49h30M74 49h8M0 50h8M26 50h30M74 50h8M0 51h8M26 51h30M74 51h8M0 52h8M74 52h8M0 53h8M74 53h8M0 54h8M26 54h2M54 54h2M74 54h8M0 55h8M26 55h2M40 55h2M54 55h2M74 55h8M0 56h8M26 56h2M40 56h2M54 56h2M74 56h8M0 57h8M26 57h2M40 57h2M54 57h2M74 57h8M0 58h8M26 58h2M40 58h2M54 58h2M74 58h8M0 59h8M26 59h2M40 59h2M54 59h2M74 59h8M0 60h8M26 60h2M40 60h2M54 60h2M74 60h8M0 61h8M26 61h2M40 61h2M54 61h2M74 61h8M0 62h8M26 62h2M40 62h2M54 62h2M74 62h8M0 63h8M26 63h2M40 63h2M54 63h2M74 63h8M0 64h8M26 64h2M40 64h2M54 64h2M74 64h8M0 65h8M40 65h2M74 65h8M0 66h8M40 66h2M74 66h8M0 67h8M40 67h2M74 67h8M0 68h8M40 68h2M74 68h8M0 69h8M40 69h2M74 69h8M0 70h8M40 70h2M74 70h8M0 71h8M40 71h2M74 71h8M0 72h8M74 72h8M0 73h8M74 73h8M0 74h8M74 74h8M0 75h82M0 76h82M0 77h82M0 78h82M0 79h82M0 80h82M0 81h82" />
</svg>