<svg xmlns="http://www.w3.org/2000/svg" viewBox="0 0 82 82">
<path stroke="#fff" d="M0 0h82M0 1h82M0 2h82M0 3h82M0 4h82M0 5h82M0 6h82M0 7h8M75 7h7M0 8h8M75 8h7M0 9h8M75 9h7M0 10h8M75 10h7M0 11h8M75 11h7M0 12h8M75 12h7M0 13h8M75 13h7M0 14h8M75 14h7M0 15h8M75 15h7M0 16h8M75 16h7M0 17h8M75 17h7M0 18h8M75 18h7M0 19h8M75 19h7M0 20h8M75 20h7M0 21h8M75 21h7M0 22h8M11 22h61M75 22h7M0 23h8M11 23h61M75 23h7M0 24h8M11 24h2M70 24h2M75 24h7M0 25h8M11 25h2M21 25h4M70 25h2M75 25h7M0 26h8M11 26h2M22 26h5M70 26h2M75 26h7M0 27h8M11 27h2M15 27h3M23 27h4M70 27h2M75 27h7M0 28h8M11 28h2M14 28h7M24 28h3M63 28h1M70 28h2M75 28h7M0 29h8M11 29h2M14 29h7M24 29h3M60 29h4M70 29h2M75 29h7M0 30h8M11 30h2M17 30h4M24 30h4M46 30h2M58 30h4M70 30h2M75 30h7M0 31h8M11 31h2M19 31h2M23 31h5M33 31h2M45 31h3M57 31h5M70 31h2M75 31h7M0 32h8M11 32h2M18 32h3M25 32h3M30 32h6M45 32h3M55 32h5M70 32h2M75 32h7M0 33h8M11 33h2M14 33h1M18 33h2M25 33h2M29 33h7M45 33h3M53 33h5M70 33h2M75 33h7M0 34h8M11 34h2M14 34h6M29 34h8M45 34h3M51 34h5M70 34h2M75 34h7M0 35h8M11 35h11M29 35h8M45 35h9M70 35h2M75 35h7M0 36h8M11 36h2M16 36h8M29 36h8M45 36h7M70 36h2M75 36h7M0 37h8M11 37h2M21 37h3M29 37h7M45 37h5M70 37h2M75 37h7M0 38h8M11 38h2M29 38h7M45 38h4M70 38h2M75 38h7M0 39h8M11 39h2M24 39h1M26 39h2M31 39h3M45 39h8M64 39h2M70 39h2M75 39h7M0 40h8M11 40h2M24 40h5M31 40h3M45 40h8M58 40h4M64 40h2M70 40h2M75 40h7M0 41h8M11 41h2M25 41h9M50 41h3M57 41h5M64 41h2M70 41h2M75 41h7M0 42h8M11 42h2M27 42h19M59 42h3M64 42h2M70 42h2M75 42h7M0 43h8M11 43h2M28 43h18M59 43h4M64 43h2M70 43h2M75 43h7M0 44h8M11 44h2M29 44h11M57 44h6M64 44h2M70 44h2M75 44h7M0 45h8M11 45h2M30 45h4M57 45h5M64 45h2M70 45h2M75 45h7M0 46h8M11 46h2M30 46h3M57 46h4M64 46h2M68 46h1M70 46h2M75 46h7M0 47h8M11 47h2M30 47h3M57 47h4M64 47h2M70 47h2M75 47h7M0 48h8M11 48h2M29 48h3M57 48h6M70 48h2M75 48h7M0 49h8M11 49h2M29 49h3M58 49h5M70 49h2M75 49h7M0 50h8M11 50h2M29 50h3M70 50h2M75 50h7M0 51h8M11 51h2M28 51h6M64 51h3M70 51h2M75 51h7M0 52h8M11 52h2M27 52h7M59 52h2M64 52h3M70 52h2M75 52h7M0 53h8M11 53h2M26 53h10M59 53h2M69 53h3M75 53h7M0 54h8M11 54h2M25 54h4M31 54h5M70 54h2M75 54h7M0 55h8M11 55h2M25 55h2M32 55h4M70 55h2M75 55h7M0 56h8M11 56h2M33 56h1M70 56h2M75 56h7M0 57h8M11 57h2M33 57h2M70 57h2M75 57h7M0 58h8M11 58h61M75 58h7M0 59h8M11 59h61M75 59h7M0 60h8M75 60h7M0 61h8M75 61h7M0 62h8M75 62h7M0 63h8M75 63h7M0 64h8M75 64h7M0 65h8M75 65h7M0 66h8M75 66h7M0 67h8M75 67h7M0 68h8M75 68h7M0 69h8M75 69h7M0 70h8M75 70h7M0 71h8M75 71h7M0 72h8M75 72h7M0 73h8M75 73h7M0 74h82M0 75h82M0 76h82M0 77h82M0 78h82M0 79h82M0 80h82M0 81h82" />
</svg>