<svg xmlns="http://www.w3.org/2000/svg" viewBox="0 0 82 82">
<path stroke="#fff" d="M0 0h82M0 1h82M0 2h82M0 3h82M0 4h82M0 5h82M0 6h82M0 7h7M74 7h8M0 8h7M74 8h8M0 9h7M74 9h8M0 10h7M74 10h8M0 11h7M55 11h2M71 11h2M74 11h8M0 12h7M55 12h2M71 12h2M74 12h8M0 13h7M30 13h2M74 13h8M0 14h7M30 14h2M71 14h2M74 14h8M0 15h7M28 15h6M71 15h2M74 15h8M0 16h7M28 16h6M53 16h2M74 16h8M0 17h7M16 17h2M26 17h2M30 17h2M34 17h1M53 17h2M74 17h8M0 18h7M16 18h2M26 18h2M30 18h2M34 18h1M74 18h8M0 19h7M24 19h13M74 19h8M0 20h7M24 20h13M74 20h8M0 21h7M26 21h2M30 21h2M34 21h1M58 21h2M74 21h8M0 22h7M16 22h2M26 22h2M30 22h2M34 22h1M58 22h2M74 22h8M0 23h7M28 23h6M56 23h6M74 23h8M0 24h7M28 24h6M56 24h6M74 24h8M0 25h7M30 25h2M54 25h2M58 25h2M62 25h2M74 25h8M0 26h7M30 26h2M54 26h2M58 26h2M62 26h2M74 26h8M0 27h7M52 27h14M74 27h8M0 28h7M35 28h2M52 28h14M74 28h8M0 29h7M35 29h2M54 29h2M58 29h2M62 29h2M74 29h8M0 30h7M56 30h6M74 30h8M0 31h7M56 31h6M74 31h8M0 32h7M37 32h2M58 32h2M74 32h8M0 33h7M37 33h2M58 33h2M74 33h8M0 34h7M74 34h8M0 35h7M74 35h8M0 36h7M74 36h8M0 37h7M74 37h8M0 38h7M43 38h2M74 38h8M0 39h7M43 39h2M74 39h8M0 40h7M41 40h6M74 40h8M0 41h7M9 41h2M41 41h6M74 41h8M0 42h7M9 42h2M39 42h2M43 42h2M47 42h2M74 42h8M0 43h7M39 43h2M43 43h2M47 43h2M74 43h8M0 44h7M37 44h14M74 44h8M0 45h7M37 45h14M74 45h8M0 46h7M11 46h2M39 46h2M43 46h2M47 46h2M67 46h2M74 46h8M0 47h7M11 47h2M39 47h2M43 47h2M47 47h2M67 47h2M74 47h8M0 48h7M31 48h2M41 48h6M74 48h8M0 49h7M31 49h2M41 49h6M74 49h8M0 50h7M43 50h2M65 50h2M74 50h8M0 51h7M43 51h2M59 51h2M65 51h2M74 51h8M0 52h7M29 52h3M59 52h2M74 52h8M0 53h7M29 53h3M57 53h6M74 53h8M0 54h7M57 54h6M74 54h8M0 55h7M22 55h2M55 55h2M59 55h2M63 55h2M74 55h8M0 56h7M22 56h2M55 56h2M59 56h2M63 56h2M74 56h8M0 57h7M20 57h6M53 57h14M74 57h8M0 58h7M20 58h6M53 58h14M74 58h8M0 59h7M18 59h2M22 59h2M26 59h2M55 59h2M59 59h2M63 59h2M74 59h8M0 60h7M18 60h2M22 60h2M26 60h2M55 60h2M59 60h2M63 60h2M74 60h8M0 61h7M16 61h14M57 61h6M74 61h8M0 62h7M18 62h2M22 62h2M26 62h2M59 62h2M74 62h8M0 63h7M18 63h2M22 63h2M26 63h2M59 63h2M74 63h8M0 64h7M20 64h6M44 64h2M74 64h8M0 65h7M20 65h6M44 65h2M74 65h8M0 66h7M22 66h2M74 66h8M0 67h7M22 67h2M74 67h8M0 68h7M74 68h8M0 69h7M74 69h8M0 70h7M46 70h2M74 70h8M0 71h7M74 71h8M0 72h7M74 72h8M0 73h7M74 73h8M0 74h82M0 75h82M0 76h82M0 77h82M0 78h82M0 79h82M0 80h82M0 81h82" />
</svg>