<svg xmlns="http://www.w3.org/2000/svg" viewBox="0 0 82 82">
<path stroke="#fff" d="M0 0h82M0 1h82M0 2h82M0 3h82M0 4h82M0 5h82M0 6h82M0 7h82M0 8h8M75 8h7M0 9h8M75 9h7M0 10h8M75 10h7M0 11h8M75 11h7M0 12h8M75 12h7M0 13h8M75 13h7M0 14h8M75 14h7M0 15h8M75 15h7M0 16h8M38 16h9M75 16h7M0 17h8M38 17h9M75 17h7M0 18h8M38 18h9M75 18h7M0 19h8M38 19h9M75 19h7M0 20h8M38 20h9M75 20h7M0 21h8M38 21h9M75 21h7M0 22h8M38 22h9M75 22h7M0 23h8M38 23h9M75 23h7M0 24h8M38 24h9M75 24h7M0 25h8M38 25h9M75 25h7M0 26h8M75 26h7M0 27h8M75 27h7M0 28h8M35 28h15M75 28h7M0 29h8M35 29h15M75 29h7M0 30h8M35 30h15M75 30h7M0 31h8M35 31h15M75 31h7M0 32h8M35 32h15M75 32h7M0 33h8M35 33h15M75 33h7M0 34h8M35 34h15M75 34h7M0 35h8M35 35h15M75 35h7M0 36h8M35 36h15M75 36h7M0 37h8M35 37h15M75 37h7M0 38h8M35 38h15M75 38h7M0 39h8M35 39h15M75 39h7M0 40h8M35 40h15M75 40h7M0 41h8M35 41h15M75 41h7M0 42h8M35 42h15M75 42h7M0 43h8M75 43h7M0 44h8M75 44h7M0 45h8M75 45h7M0 46h8M32 46h21M75 46h7M0 47h8M32 47h21M75 47h7M0 48h8M32 48h21M75 48h7M0 49h8M32 49h21M75 49h7M0 50h8M32 50h21M75 50h7M0 51h8M32 51h21M75 51h7M0 52h8M32 52h21M75 52h7M0 53h8M32 53h21M75 53h7M0 54h8M32 54h21M75 54h7M0 55h8M32 55h21M75 55h7M0 56h8M32 56h21M75 56h7M0 57h8M32 57h21M75 57h7M0 58h8M32 58h21M75 58h7M0 59h8M32 59h21M75 59h7M0 60h8M32 60h21M75 60h7M0 61h8M32 61h21M75 61h7M0 62h8M32 62h21M75 62h7M0 63h8M32 63h21M75 63h7M0 64h8M32 64h21M75 64h7M0 65h8M32 65h21M75 65h7M0 66h8M32 66h21M75 66h7M0 67h8M75 67h7M0 68h8M75 68h7M0 69h8M75 69h7M0 70h8M75 70h7M0 71h8M75 71h7M0 72h8M75 72h7M0 73h8M75 73h7M0 74h8M75 74h7M0 75h82M0 76h82M0 77h82M0 78h82M0 79h82M0 80h82M0 81h82" />
</svg>