<svg xmlns="http://www.w3.org/2000/svg" viewBox="0 0 82 82">
<path stroke="#fff" d="M0 0h82M0 1h82M0 2h82M0 3h82M0 4h82M0 5h82M0 6h82M0 7h82M0 8h8M74 8h8M0 9h8M74 9h8M0 10h8M74 10h8M0 11h8M74 11h8M0 12h8M74 12h8M0 13h8M74 13h8M0 14h8M74 14h8M0 15h8M16 15h2M74 15h8M0 16h8M16 16h4M33 16h9M62 16h3M74 16h8M0 17h8M17 17h4M33 17h9M61 17h4M74 17h8M0 18h8M19 18h3M31 18h13M59 18h4M74 18h8M0 19h8M20 19h2M30 19h15M58 19h4M74 19h8M0 20h8M30 20h16M58 20h2M74 20h8M0 21h8M29 21h17M58 21h2M74 21h8M0 22h8M28 22h19M74 22h8M0 23h8M28 23h19M74 23h8M0 24h8M28 24h19M74 24h8M0 25h8M28 25h19M74 25h8M0 26h8M28 26h20M74 26h8M0 27h8M28 27h21M74 27h8M0 28h8M28 28h21M74 28h8M0 29h8M28 29h21M74 29h8M0 30h8M28 30h21M74 30h8M0 31h8M29 31h20M74 31h8M0 32h8M30 32h18M74 32h8M0 33h8M30 33h17M74 33h8M0 34h8M30 34h17M74 34h8M0 35h8M30 35h17M74 35h8M0 36h8M31 36h16M74 36h8M0 37h8M31 37h16M74 37h8M0 38h8M31 38h16M63 38h6M74 38h8M0 39h8M32 39h15M63 39h6M74 39h8M0 40h8M33 40h14M74 40h8M0 41h8M12 41h6M33 41h14M74 41h8M0 42h8M12 42h6M33 42h14M74 42h8M0 43h8M34 43h13M74 43h8M0 44h8M34 44h13M74 44h8M0 45h8M35 45h13M74 45h8M0 46h8M35 46h14M74 46h8M0 47h8M35 47h14M74 47h8M0 48h8M36 48h13M74 48h8M0 49h8M36 49h13M74 49h8M0 50h8M37 50h10M74 50h8M0 51h8M37 51h10M74 51h8M0 52h8M37 52h9M74 52h8M0 53h8M38 53h8M74 53h8M0 54h8M38 54h7M74 54h8M0 55h8M38 55h7M74 55h8M0 56h8M39 56h5M74 56h8M0 57h8M40 57h5M74 57h8M0 58h8M40 58h5M74 58h8M0 59h8M40 59h6M74 59h8M0 60h8M40 60h6M74 60h8M0 61h8M41 61h5M74 61h8M0 62h8M41 62h5M74 62h8M0 63h8M42 63h5M74 63h8M0 64h8M18 64h2M42 64h4M74 64h8M0 65h8M17 65h3M42 65h4M60 65h2M74 65h8M0 66h8M17 66h2M43 66h2M60 66h3M74 66h8M0 67h8M16 67h3M61 67h2M74 67h8M0 68h8M15 68h3M62 68h2M74 68h8M0 69h8M15 69h2M62 69h2M74 69h8M0 70h8M74 70h8M0 71h8M74 71h8M0 72h8M74 72h8M0 73h8M74 73h8M0 74h8M74 74h8M0 75h82M0 76h82M0 77h82M0 78h82M0 79h82M0 80h82M0 81h82" />
</svg>