<svg xmlns="http://www.w3.org/2000/svg" viewBox="0 0 100 100">
<path stroke="#fff" d="M47 0h6M47 1h6M46 2h8M45 3h9M45 4h10M8 5h5M18 5h4M27 5h4M36 5h4M44 5h12M59 5h5M68 5h5M77 5h5M86 5h5M7 6h6M18 6h4M27 6h4M36 6h4M44 6h12M59 6h5M68 6h5M77 6h5M86 6h6M6 7h7M18 7h4M27 7h4M36 7h4M43 7h13M59 7h5M68 7h5M77 7h5M86 7h7M6 8h7M18 8h4M27 8h4M36 8h4M43 8h14M59 8h5M68 8h5M77 8h5M86 8h8M4 9h91M4 10h91M4 11h91M4 12h91M4 13h91M9 14h82M9 15h82M9 16h82M9 17h11M80 17h11M4 18h14M81 18h14M4 19h13M45 19h9M82 19h13M4 20h12M41 20h16M83 20h12M4 21h12M38 21h8M53 21h8M83 21h12M4 22h12M36 22h7M56 22h7M83 22h12M9 23h7M34 23h5M60 23h5M83 23h8M9 24h7M32 24h6M61 24h5M83 24h8M9 25h7M31 25h4M64 25h4M83 25h8M9 26h7M30 26h4M65 26h4M83 26h8M4 27h12M29 27h3M66 27h4M83 27h12M4 28h12M27 28h4M68 28h4M83 28h12M4 29h12M27 29h3M69 29h3M83 29h12M4 30h12M25 30h4M70 30h3M83 30h12M4 31h12M25 31h3M36 31h5M71 31h2M83 31h12M9 32h7M24 32h3M34 32h9M56 32h8M72 32h3M83 32h8M9 33h7M23 33h4M33 33h4M40 33h4M55 33h9M72 33h3M83 33h8M9 34h7M23 34h2M32 34h3M42 34h3M54 34h3M63 34h3M73 34h3M83 34h8M9 35h7M22 35h3M31 35h6M43 35h3M53 35h3M64 35h2M74 35h3M83 35h8M4 36h12M22 36h3M31 36h7M43 36h3M52 36h3M64 36h3M74 36h3M83 36h12M4 37h12M22 37h2M31 37h7M44 37h2M52 37h2M59 37h4M65 37h2M75 37h2M83 37h12M4 38h12M21 38h2M31 38h7M44 38h2M52 38h2M58 38h5M65 38h2M75 38h3M83 38h12M4 39h12M21 39h2M31 39h7M44 39h2M52 39h2M58 39h5M65 39h2M76 39h2M83 39h12M4 40h12M20 40h3M31 40h7M43 40h3M52 40h2M58 40h5M65 40h2M76 40h3M83 40h12M9 41h7M20 41h2M32 41h2M43 41h2M52 41h3M59 41h3M64 41h3M77 41h2M83 41h8M9 42h7M20 42h2M32 42h3M42 42h3M53 42h3M64 42h2M77 42h2M83 42h8M7 43h9M20 43h2M33 43h4M40 43h4M54 43h3M63 43h3M77 43h2M83 43h9M5 44h11M20 44h2M34 44h9M55 44h9M77 44h2M83 44h12M4 45h12M19 45h3M36 45h5M56 45h8M77 45h3M83 45h13M1 46h15M19 46h2M78 46h2M83 46h15M0 47h16M19 47h2M78 47h2M83 47h17M0 48h16M19 48h2M78 48h2M83 48h17M0 49h16M19 49h2M78 49h2M83 49h17M0 50h16M19 50h2M78 50h2M83 50h17M0 51h16M19 51h2M78 51h2M83 51h17M0 52h16M19 52h2M78 52h2M83 52h17M1 53h15M19 53h3M77 53h3M83 53h15M2 54h14M19 54h3M77 54h3M83 54h14M5 55h11M20 55h2M77 55h2M83 55h12M6 56h10M20 56h2M77 56h2M83 56h10M9 57h7M20 57h2M77 57h2M83 57h8M9 58h7M20 58h2M30 58h40M77 58h2M83 58h8M9 59h7M20 59h3M31 59h39M76 59h3M83 59h8M4 60h12M21 60h2M31 60h38M75 60h3M83 60h12M4 61h12M21 61h2M31 61h38M75 61h3M83 61h12M4 62h12M22 62h2M32 62h36M75 62h2M83 62h12M4 63h12M22 63h3M33 63h34M74 63h3M83 63h12M9 64h7M23 64h2M34 64h32M73 64h3M83 64h8M9 65h7M23 65h2M34 65h32M73 65h3M83 65h8M9 66h7M23 66h4M36 66h28M72 66h3M83 66h8M9 67h7M25 67h2M38 67h25M72 67h2M83 67h8M9 68h7M25 68h3M39 68h22M71 68h2M83 68h8M4 69h12M26 69h3M41 69h18M70 69h3M83 69h12M4 70h12M27 70h3M43 70h14M69 70h3M83 70h12M4 71h12M28 71h3M68 71h3M83 71h12M4 72h12M29 72h3M66 72h4M83 72h12M9 73h7M30 73h4M65 73h4M83 73h8M9 74h7M31 74h4M64 74h4M83 74h8M9 75h7M32 75h6M61 75h5M83 75h8M9 76h7M35 76h6M58 76h6M83 76h8M9 77h7M36 77h7M56 77h7M83 77h8M4 78h12M39 78h20M83 78h12M4 79h12M41 79h16M83 79h12M4 80h13M82 80h13M4 81h14M82 81h13M9 82h10M80 82h11M9 83h82M9 84h82M9 85h82M9 86h82M4 87h91M4 88h91M4 89h91M4 90h91M5 91h8M18 91h4M27 91h4M36 91h4M43 91h14M59 91h5M68 91h5M77 91h5M86 91h9M6 92h7M18 92h4M27 92h4M36 92h4M43 92h13M59 92h5M68 92h5M77 92h5M86 92h7M7 93h6M18 93h4M27 93h4M36 93h4M43 93h13M59 93h5M68 93h5M77 93h5M86 93h7M8 94h5M18 94h4M27 94h4M36 94h4M44 94h12M59 94h5M68 94h5M77 94h5M86 94h5M9 95h4M18 95h4M27 95h4M36 95h4M45 95h10M59 95h5M68 95h5M77 95h5M86 95h5M45 96h9M45 97h9M46 98h8M47 99h6" />
</svg>