<svg xmlns="http://www.w3.org/2000/svg" viewBox="0 0 82 82">
<path stroke="#fff" d="M0 0h82M0 1h82M0 2h82M0 3h82M0 4h82M0 5h82M0 6h82M0 7h82M0 8h8M74 8h8M0 9h8M74 9h8M0 10h8M41 10h1M74 10h8M0 11h8M39 11h4M74 11h8M0 12h8M39 12h5M74 12h8M0 13h8M37 13h8M74 13h8M0 14h8M36 14h10M74 14h8M0 15h8M35 15h12M74 15h8M0 16h8M34 16h6M42 16h6M74 16h8M0 17h8M33 17h6M43 17h6M74 17h8M0 18h8M32 18h6M44 18h6M74 18h8M0 19h8M32 19h5M45 19h6M74 19h8M0 20h8M30 20h6M46 20h6M74 20h8M0 21h8M30 21h5M47 21h6M74 21h8M0 22h8M28 22h6M48 22h6M74 22h8M0 23h8M27 23h6M49 23h6M74 23h8M0 24h8M26 24h6M50 24h6M74 24h8M0 25h8M25 25h6M51 25h6M74 25h8M0 26h8M25 26h5M52 26h6M74 26h8M0 27h8M23 27h6M53 27h6M74 27h8M0 28h8M23 28h5M54 28h6M74 28h8M0 29h8M21 29h6M55 29h6M74 29h8M0 30h8M20 30h6M57 30h5M74 30h8M0 31h8M19 31h6M57 31h6M74 31h8M0 32h8M18 32h6M58 32h6M74 32h8M0 33h8M17 33h6M59 33h6M74 33h8M0 34h8M16 34h6M60 34h6M74 34h8M0 35h8M16 35h5M61 35h6M74 35h8M0 36h8M14 36h6M62 36h6M74 36h8M0 37h8M14 37h5M63 37h6M74 37h8M0 38h8M12 38h6M64 38h6M74 38h8M0 39h8M11 39h6M65 39h6M74 39h8M0 40h8M10 40h6M66 40h6M74 40h8M0 41h8M10 41h6M67 41h6M74 41h8M0 42h8M10 42h6M66 42h6M74 42h8M0 43h8M12 43h5M65 43h6M74 43h8M0 44h8M12 44h6M64 44h6M74 44h8M0 45h8M14 45h5M63 45h6M74 45h8M0 46h8M15 46h6M62 46h5M74 46h8M0 47h8M16 47h5M61 47h6M74 47h8M0 48h8M17 48h6M60 48h5M74 48h8M0 49h8M17 49h6M59 49h6M74 49h8M0 50h8M19 50h6M58 50h6M74 50h8M0 51h8M19 51h6M57 51h6M74 51h8M0 52h8M21 52h5M56 52h6M74 52h8M0 53h8M21 53h6M55 53h6M74 53h8M0 54h8M23 54h5M54 54h6M74 54h8M0 55h8M24 55h6M53 55h5M74 55h8M0 56h8M25 56h5M52 56h6M74 56h8M0 57h8M26 57h6M51 57h6M74 57h8M0 58h8M26 58h6M50 58h6M74 58h8M0 59h8M28 59h5M49 59h6M74 59h8M0 60h8M28 60h6M48 60h6M74 60h8M0 61h8M30 61h5M47 61h6M74 61h8M0 62h8M31 62h6M46 62h5M74 62h8M0 63h8M32 63h5M45 63h6M74 63h8M0 64h8M33 64h6M44 64h5M74 64h8M0 65h8M33 65h6M43 65h6M74 65h8M0 66h8M35 66h6M42 66h6M74 66h8M0 67h8M35 67h12M74 67h8M0 68h8M34 68h14M74 68h8M0 69h8M33 69h16M74 69h8M0 70h8M32 70h18M74 70h8M0 71h8M31 71h20M74 71h8M0 72h8M30 72h22M74 72h8M0 73h8M29 73h24M74 73h8M0 74h8M28 74h26M74 74h8M0 75h82M0 76h82M0 77h82M0 78h82M0 79h82M0 80h82M0 81h82" />
</svg>