<svg xmlns="http://www.w3.org/2000/svg" viewBox="0 0 82 82">
<path stroke="#fff" d="M0 0h82M0 1h82M0 2h82M0 3h82M0 4h82M0 5h82M0 6h82M0 7h82M0 8h14M18 8h2M24 8h2M34 8h2M42 8h2M51 8h2M58 8h2M64 8h2M68 8h14M0 9h14M18 9h2M24 9h2M34 9h2M42 9h2M51 9h2M58 9h2M64 9h2M68 9h14M0 10h14M18 10h2M24 10h2M30 10h2M34 10h2M38 10h2M42 10h2M51 10h2M58 10h2M61 10h2M64 10h2M68 10h14M0 11h14M18 11h2M24 11h2M30 11h2M34 11h2M38 11h2M42 11h2M51 11h2M58 11h2M61 11h2M64 11h2M68 11h14M0 12h14M18 12h2M24 12h2M30 12h2M38 12h2M42 12h2M51 12h2M58 12h2M61 12h2M64 12h2M68 12h14M0 13h14M30 13h2M38 13h2M42 13h2M51 13h2M58 13h2M61 13h2M64 13h2M68 13h14M0 14h14M21 14h2M30 14h2M38 14h2M51 14h2M58 14h2M61 14h2M68 14h14M0 15h14M21 15h2M30 15h2M38 15h2M44 15h2M51 15h2M61 15h2M68 15h14M0 16h14M16 16h2M21 16h2M27 16h1M30 16h2M34 16h2M38 16h2M44 16h2M51 16h2M55 16h2M61 16h2M68 16h14M0 17h14M16 17h2M21 17h2M27 17h1M30 17h2M34 17h2M38 17h2M44 17h2M51 17h2M55 17h2M61 17h2M68 17h14M0 18h14M16 18h2M21 18h2M27 18h1M30 18h2M34 18h2M44 18h2M51 18h2M55 18h2M61 18h2M68 18h14M0 19h14M16 19h2M21 19h2M27 19h1M30 19h2M34 19h2M44 19h2M51 19h2M55 19h2M61 19h2M68 19h14M0 20h14M16 20h2M21 20h2M27 20h1M30 20h2M34 20h2M44 20h2M51 20h2M55 20h2M61 20h2M68 20h14M0 21h14M16 21h2M21 21h2M27 21h1M30 21h2M34 21h2M44 21h2M51 21h2M55 21h2M61 21h2M68 21h14M0 22h14M16 22h2M21 22h2M27 22h1M30 22h2M34 22h2M44 22h2M51 22h2M55 22h2M61 22h2M74 22h8M0 23h7M16 23h2M21 23h2M27 23h1M34 23h2M44 23h2M51 23h2M55 23h2M61 23h2M74 23h8M0 24h7M16 24h2M21 24h2M27 24h1M34 24h2M38 24h2M44 24h2M51 24h2M55 24h2M61 24h2M74 24h8M0 25h7M16 25h2M21 25h2M27 25h1M34 25h2M38 25h2M44 25h2M51 25h2M55 25h2M61 25h2M74 25h8M0 26h7M16 26h2M21 26h2M27 26h1M34 26h2M38 26h2M44 26h2M55 26h2M61 26h2M74 26h8M0 27h7M16 27h2M21 27h2M27 27h1M34 27h2M38 27h2M44 27h2M55 27h2M61 27h2M74 27h8M0 28h7M21 28h2M27 28h1M34 28h2M38 28h2M44 28h2M49 28h2M55 28h2M74 28h8M0 29h7M21 29h2M27 29h1M34 29h2M38 29h2M44 29h2M49 29h2M55 29h2M74 29h8M0 30h7M21 30h2M27 30h1M34 30h2M38 30h2M44 30h2M49 30h2M55 30h2M74 30h8M0 31h7M21 31h2M27 31h1M38 31h2M44 31h2M49 31h2M55 31h2M74 31h8M0 32h7M21 32h2M27 32h1M38 32h2M44 32h2M49 32h2M55 32h2M74 32h8M0 33h7M21 33h2M27 33h1M38 33h2M44 33h2M49 33h2M55 33h2M74 33h8M0 34h7M21 34h2M30 34h2M38 34h2M42 34h4M49 34h2M55 34h2M74 34h8M0 35h7M21 35h2M30 35h2M38 35h2M42 35h4M49 35h2M55 35h2M74 35h8M0 36h7M21 36h2M30 36h2M38 36h2M42 36h4M49 36h2M55 36h2M74 36h8M0 37h7M21 37h2M30 37h2M38 37h2M42 37h4M49 37h2M55 37h2M74 37h8M0 38h7M21 38h2M30 38h2M38 38h2M42 38h2M49 38h2M55 38h2M74 38h8M0 39h7M21 39h2M30 39h2M38 39h2M42 39h2M49 39h2M55 39h2M74 39h8M0 40h7M21 40h2M30 40h2M38 40h2M42 40h2M49 40h2M55 40h2M74 40h8M0 41h7M21 41h2M38 41h2M42 41h2M49 41h2M55 41h2M74 41h8M0 42h7M38 42h2M49 42h2M55 42h2M74 42h8M0 43h7M38 43h2M49 43h2M55 43h2M74 43h8M0 44h7M38 44h2M49 44h2M55 44h2M74 44h8M0 45h7M34 45h2M38 45h2M49 45h2M74 45h8M0 46h7M34 46h2M38 46h2M49 46h2M74 46h8M0 47h7M34 47h2M38 47h2M49 47h2M74 47h8M0 48h7M34 48h2M38 48h2M49 48h2M74 48h8M0 49h7M34 49h2M38 49h2M49 49h2M74 49h8M0 50h7M34 50h2M38 50h2M49 50h2M74 50h8M0 51h7M34 51h2M38 51h2M74 51h8M0 52h7M34 52h2M38 52h2M74 52h8M0 53h7M34 53h2M38 53h2M74 53h8M0 54h7M34 54h2M38 54h2M74 54h8M0 55h7M74 55h8M0 56h7M74 56h8M0 57h7M38 57h2M74 57h8M0 58h7M38 58h2M74 58h8M0 59h7M38 59h2M74 59h8M0 60h7M38 60h2M74 60h8M0 61h7M38 61h2M74 61h8M0 62h7M74 62h8M0 63h7M74 63h8M0 64h7M74 64h8M0 65h7M74 65h8M0 66h7M74 66h8M0 67h7M74 67h8M0 68h7M74 68h8M0 69h7M74 69h8M0 70h7M74 70h8M0 71h7M74 71h8M0 72h7M74 72h8M0 73h7M74 73h8M0 74h82M0 75h82M0 76h82M0 77h82M0 78h82M0 79h82M0 80h82M0 81h82" />
</svg>