<?xml version="1.0" standalone="no"?>
<!DOCTYPE svg PUBLIC "-//W3C//DTD SVG 20010904//EN"
 "http://www.w3.org/TR/2001/REC-SVG-20010904/DTD/svg10.dtd">
<svg version="1.0" xmlns="http://www.w3.org/2000/svg"
 width="512.000000pt" height="512.000000pt" viewBox="0 0 512.000000 512.000000"
 preserveAspectRatio="xMidYMid meet">
<metadata>
Created by potrace 1.14, written by Peter Selinger 2001-2017
</metadata>
<g transform="translate(0.000000,512.000000) scale(0.100000,-0.100000)"
fill="#000000" stroke="none">
<path d="M1150 4860 l0 -180 180 0 180 0 0 -175 0 -175 180 0 180 0 0 -180 0
-180 175 0 175 0 0 -345 0 -345 -175 0 -175 0 0 -180 0 -180 -180 0 -180 0 0
-180 0 -180 -180 0 -180 0 0 -175 0 -175 -180 0 -180 0 0 -345 0 -345 180 0
180 0 0 165 0 165 360 0 360 0 0 180 0 180 175 0 175 0 0 -345 0 -345 -175 0
-175 0 0 -180 0 -180 -180 0 -180 0 0 -180 0 -180 180 0 180 0 0 180 0 180
175 0 175 0 0 180 0 180 170 0 170 0 0 165 0 165 175 0 175 0 0 -345 0 -345
180 0 180 0 0 -355 0 -355 180 0 180 0 0 -180 0 -180 700 0 700 0 0 1060 0
1060 -180 0 -180 0 0 175 0 175 180 0 180 0 0 360 0 360 -180 0 -180 0 0 165
0 165 -175 0 -175 0 0 180 0 180 -165 0 -165 0 0 180 0 180 -180 0 -180 0 0
175 0 175 -180 0 -180 0 0 -175 0 -175 -180 0 -180 0 0 175 0 175 -175 0 -175
0 0 -355 0 -355 -170 0 -170 0 0 180 0 180 -175 0 -175 0 0 175 0 175 -180 0
-180 0 0 180 0 180 -180 0 -180 0 0 -180z m2480 -1070 l0 -180 180 0 180 0 0
-165 0 -165 165 0 165 0 0 -180 0 -180 175 0 175 0 0 -180 0 -180 -175 0 -175
0 0 180 0 180 -165 0 -165 0 0 180 0 180 -180 0 -180 0 0 165 0 165 -180 0
-180 0 0 180 0 180 180 0 180 0 0 -180z m-720 -690 l0 -180 180 0 180 0 0
-180 0 -180 -180 0 -180 0 0 180 0 180 -175 0 -175 0 0 -180 0 -180 -170 0
-170 0 0 180 0 180 170 0 170 0 0 180 0 180 175 0 175 0 0 -180z"/>
</g>
</svg>
