<svg xmlns="http://www.w3.org/2000/svg" viewBox="0 -0.5 132 134" shape-rendering="crispEdges">
<path stroke="#ffffff" d="M50 0h32M50 1h32M50 2h32M50 3h32M50 4h32M50 5h32M50 6h32M50 7h32M50 8h32M50 9h32M50 10h32M50 11h32M50 12h32M50 13h32M50 14h32M50 15h32M50 16h32M50 17h32M50 18h32M50 19h32M50 20h32M50 21h32M50 22h32M50 23h32M50 24h32M50 25h32M50 26h32M50 27h32M50 28h32M50 29h32M50 30h32M50 31h32M50 32h32M50 33h32M50 34h32M50 35h32M50 36h32M50 37h32M50 38h32M50 39h32M50 40h32M50 41h32M50 42h32M50 43h32M50 44h32M50 45h32M50 46h32M50 47h32M50 48h32M50 49h32M0 50h132M0 51h132M0 52h132M0 53h132M0 54h132M0 55h132M0 56h132M0 57h132M0 58h132M0 59h132M0 60h132M0 61h132M0 62h132M0 63h132M0 64h132M0 65h132M0 66h132M0 67h132M0 68h132M0 69h132M0 70h132M0 71h132M0 72h132M0 73h132M0 74h132M0 75h132M0 76h132M0 77h132M0 78h132M0 79h132M0 80h132M0 81h132M0 82h132M0 83h132M50 84h32M50 85h32M50 86h32M50 87h32M50 88h32M50 89h32M50 90h32M50 91h32M50 92h32M50 93h32M50 94h32M50 95h32M50 96h32M50 97h32M50 98h32M50 99h32M50 100h32M50 101h32M50 102h32M50 103h32M50 104h32M50 105h32M50 106h32M50 107h32M50 108h32M50 109h32M50 110h32M50 111h32M50 112h32M50 113h32M50 114h32M50 115h32M50 116h32M50 117h32M50 118h32M50 119h32M50 120h32M50 121h32M50 122h32M50 123h32M50 124h32M50 125h32M50 126h32M50 127h32M50 128h32M50 129h32M50 130h32M50 131h32M50 132h32M50 133h32" />
</svg>