<svg xmlns="http://www.w3.org/2000/svg" viewBox="0 -0.5 20 20" shape-rendering="crispEdges">
<path stroke="#ff94e7" d="M16 0h2" />
<path stroke="#646363" d="M15 1h2M14 2h2M14 3h1" />
<path stroke="#f871d7" d="M17 1h2M18 2h1" />
<path stroke="#515252" d="M16 2h2M15 3h3M14 4h3M15 5h1" />
<path stroke="#d158b4" d="M19 2h1M19 3h1" />
<path stroke="#ffe34d" d="M13 3h1M12 4h2M11 5h2M10 6h2M9 7h2M8 8h2M7 9h2" />
<path stroke="#323334" d="M18 3h1M17 4h2M16 5h2" />
<path stroke="#233b69" d="M0 4h4M0 5h1M0 6h1M0 7h1M0 8h1M15 8h1M0 9h1M15 9h1M0 10h1M15 10h1M0 11h1M15 11h1M0 12h1M15 12h1M0 13h1M15 13h1M0 14h1M15 14h1M0 15h1M15 15h1M0 16h1M15 16h1M0 17h1M15 17h1M0 18h1M15 18h1M0 19h2M14 19h2" />
<path stroke="#d8d7d5" d="M4 4h8" />
<path stroke="#2d4b87" d="M1 5h1M1 6h1M1 7h1M1 8h1M1 9h1M14 9h1M1 10h6M13 10h2M1 11h1M14 11h1M1 12h1M14 12h1M1 13h1M14 13h1M1 14h1M14 14h1M1 15h1M14 15h1M1 16h1M14 16h1M1 17h1M14 17h1M1 18h1M14 18h1" />
<path stroke="#294479" d="M2 5h2M9 5h2M2 6h2M9 6h1M2 7h2M2 8h2M2 9h2" />
<path stroke="#bfc0bb" d="M4 5h5M4 6h5M4 7h5M4 8h4M4 9h3M4 13h8M4 15h8M4 17h8" />
<path stroke="#ffd802" d="M13 5h2M12 6h3M11 7h3M10 8h3M9 9h3M8 10h3M9 11h1" />
<path stroke="#a88d01" d="M15 6h2M14 7h2M13 8h2M12 9h2M11 10h2M10 11h2M10 12h1" />
<path stroke="#aa7f56" d="M7 10h1M7 11h1" />
<path stroke="#d7d8d3" d="M2 11h5M12 11h2M2 12h1M13 12h1M2 13h1M13 13h1M2 14h1M13 14h1M2 15h1M13 15h1M2 16h1M13 16h1M2 17h1M13 17h1M2 18h1M13 18h1" />
<path stroke="#906a49" d="M8 11h1M8 12h2" />
<path stroke="#ffffff" d="M3 12h4M11 12h2M3 13h1M12 13h1M3 14h10M3 15h1M12 15h1M3 16h10M3 17h1M12 17h1M3 18h10" />
<path stroke="#020502" d="M7 12h1" />
<path stroke="#9fa09b" d="M2 19h12" />
</svg>