<svg xmlns="http://www.w3.org/2000/svg" viewBox="0 0 230 187" shape-rendering="crispEdges">
<path stroke="#ffffff" d="M13 0h106M13 1h106M13 2h2M117 2h2M13 3h2M117 3h2M13 4h2M117 4h2M13 5h2M117 5h2M13 6h2M117 6h2M128 6h47M13 7h2M117 7h2M128 7h47M13 8h2M117 8h2M128 8h2M173 8h2M13 9h2M117 9h2M128 9h2M173 9h2M13 10h2M117 10h2M128 10h2M173 10h2M13 11h2M117 11h2M128 11h2M173 11h2M13 12h2M117 12h2M128 12h2M173 12h2M13 13h2M117 13h2M128 13h2M173 13h2M13 14h2M117 14h2M128 14h2M173 14h2M13 15h2M117 15h2M128 15h2M173 15h2M13 16h2M117 16h2M128 16h2M173 16h2M13 17h2M117 17h2M128 17h2M173 17h2M183 17h47M13 18h2M117 18h2M128 18h2M173 18h2M183 18h47M13 19h2M117 19h2M128 19h2M173 19h2M183 19h2M228 19h2M13 20h2M117 20h2M128 20h2M173 20h2M183 20h2M228 20h2M13 21h2M117 21h2M128 21h2M145 21h13M173 21h2M183 21h2M228 21h2M13 22h2M117 22h2M128 22h2M145 22h13M173 22h2M183 22h2M228 22h2M13 23h2M117 23h2M128 23h2M145 23h13M173 23h2M183 23h2M228 23h2M13 24h2M117 24h2M128 24h2M145 24h13M173 24h2M183 24h2M228 24h2M13 25h2M117 25h2M128 25h2M145 25h13M173 25h2M183 25h2M228 25h2M13 26h2M117 26h2M128 26h2M145 26h13M173 26h2M183 26h2M228 26h2M13 27h2M117 27h2M128 27h2M145 27h13M173 27h2M183 27h2M228 27h2M13 28h2M117 28h2M128 28h2M145 28h13M173 28h2M183 28h2M228 28h2M13 29h2M117 29h2M128 29h2M145 29h13M173 29h2M183 29h2M228 29h2M13 30h2M117 30h2M128 30h2M145 30h13M173 30h2M183 30h2M228 30h2M13 31h2M117 31h2M128 31h2M145 31h13M173 31h2M183 31h2M228 31h2M13 32h2M40 32h52M117 32h2M128 32h2M145 32h13M173 32h2M183 32h2M202 32h13M228 32h2M13 33h2M40 33h52M117 33h2M128 33h2M145 33h13M173 33h2M183 33h2M202 33h13M228 33h2M13 34h2M40 34h2M89 34h3M117 34h2M128 34h2M145 34h13M173 34h2M183 34h2M202 34h13M228 34h2M13 35h2M40 35h2M89 35h3M117 35h2M128 35h2M145 35h13M173 35h2M183 35h2M202 35h13M228 35h2M13 36h2M40 36h2M89 36h3M117 36h2M128 36h2M145 36h13M173 36h2M183 36h2M202 36h13M228 36h2M13 37h2M40 37h2M89 37h3M117 37h2M128 37h2M145 37h13M173 37h2M183 37h2M202 37h13M228 37h2M13 38h2M40 38h2M89 38h3M117 38h2M128 38h2M173 38h2M183 38h2M202 38h13M228 38h2M13 39h2M40 39h2M89 39h3M117 39h2M128 39h2M173 39h2M183 39h2M202 39h13M228 39h2M13 40h2M40 40h2M89 40h3M117 40h2M128 40h2M173 40h2M183 40h2M202 40h13M228 40h2M13 41h2M40 41h2M89 41h3M117 41h2M128 41h2M173 41h2M183 41h2M202 41h13M228 41h2M13 42h2M40 42h2M89 42h3M117 42h2M128 42h2M173 42h2M183 42h2M202 42h13M228 42h2M13 43h2M40 43h2M89 43h3M117 43h2M128 43h2M173 43h2M183 43h2M202 43h13M228 43h2M13 44h2M40 44h2M89 44h3M117 44h2M128 44h2M173 44h2M183 44h2M202 44h13M228 44h2M13 45h2M40 45h2M89 45h3M117 45h2M128 45h2M173 45h2M183 45h2M202 45h13M228 45h2M13 46h2M40 46h2M89 46h3M117 46h2M128 46h2M173 46h2M183 46h2M202 46h13M228 46h2M13 47h2M40 47h2M89 47h3M117 47h2M128 47h2M173 47h2M183 47h2M202 47h13M228 47h2M13 48h2M40 48h2M89 48h3M117 48h2M128 48h2M173 48h2M183 48h2M202 48h13M228 48h2M13 49h2M40 49h2M89 49h3M117 49h2M128 49h2M173 49h2M183 49h2M228 49h2M13 50h2M40 50h2M89 50h3M117 50h2M128 50h2M173 50h2M183 50h2M228 50h2M13 51h2M40 51h2M89 51h3M117 51h2M128 51h47M183 51h2M228 51h2M13 52h2M40 52h2M89 52h3M117 52h2M128 52h47M183 52h2M228 52h2M13 53h2M40 53h2M89 53h3M117 53h2M153 53h3M164 53h2M183 53h2M228 53h2M13 54h2M40 54h2M89 54h3M117 54h2M153 54h3M164 54h2M183 54h2M228 54h2M13 55h2M40 55h2M89 55h3M117 55h2M153 55h3M164 55h2M183 55h2M228 55h2M13 56h2M40 56h2M89 56h3M117 56h2M153 56h3M164 56h2M183 56h2M228 56h2M13 57h2M40 57h2M89 57h3M117 57h2M153 57h3M164 57h2M183 57h2M228 57h2M13 58h2M40 58h2M89 58h3M117 58h2M153 58h3M164 58h2M183 58h2M228 58h2M13 59h2M40 59h2M89 59h3M117 59h2M153 59h3M164 59h2M183 59h2M228 59h2M13 60h2M40 60h2M89 60h3M117 60h2M153 60h3M164 60h2M183 60h2M228 60h2M13 61h2M40 61h2M89 61h3M117 61h2M153 61h3M164 61h2M183 61h2M228 61h2M13 62h2M40 62h2M89 62h3M117 62h2M153 62h3M164 62h2M183 62h47M13 63h2M40 63h2M89 63h3M117 63h2M153 63h3M164 63h2M183 63h47M13 64h2M40 64h2M66 64h2M89 64h3M117 64h2M153 64h3M164 64h2M209 64h2M220 64h2M13 65h2M40 65h2M66 65h2M89 65h3M117 65h2M153 65h3M164 65h2M209 65h2M220 65h2M13 66h2M40 66h2M66 66h2M89 66h3M117 66h2M153 66h3M164 66h2M209 66h2M220 66h2M13 67h2M40 67h2M66 67h2M89 67h3M117 67h2M153 67h3M164 67h2M209 67h2M220 67h2M13 68h2M40 68h2M66 68h2M89 68h3M117 68h2M153 68h3M164 68h2M209 68h2M220 68h2M13 69h2M40 69h2M66 69h2M89 69h3M117 69h2M153 69h3M164 69h2M209 69h2M220 69h2M13 70h2M40 70h2M66 70h2M89 70h3M117 70h2M153 70h3M164 70h2M209 70h2M220 70h2M13 71h2M40 71h2M66 71h2M89 71h3M117 71h2M153 71h3M164 71h2M209 71h2M220 71h2M13 72h2M40 72h2M66 72h2M89 72h3M117 72h2M153 72h3M164 72h2M209 72h2M220 72h2M13 73h2M40 73h2M66 73h2M89 73h3M117 73h2M153 73h3M164 73h2M209 73h2M220 73h2M13 74h2M40 74h2M66 74h2M89 74h3M117 74h2M153 74h3M164 74h2M209 74h2M220 74h2M13 75h2M40 75h2M66 75h2M89 75h3M117 75h2M153 75h3M164 75h2M209 75h2M220 75h2M13 76h2M40 76h2M66 76h2M89 76h3M117 76h2M153 76h3M164 76h2M209 76h2M220 76h2M13 77h2M40 77h2M66 77h2M89 77h3M117 77h2M153 77h3M164 77h2M209 77h2M220 77h2M13 78h2M40 78h2M66 78h2M89 78h3M117 78h2M153 78h3M164 78h2M209 78h2M220 78h2M13 79h2M40 79h2M66 79h2M89 79h3M117 79h2M153 79h3M164 79h2M209 79h2M220 79h2M13 80h2M40 80h2M66 80h2M89 80h3M117 80h2M153 80h3M164 80h2M209 80h2M220 80h2M13 81h2M40 81h2M66 81h2M89 81h3M117 81h2M153 81h3M164 81h2M209 81h2M220 81h2M13 82h2M40 82h2M66 82h2M89 82h3M117 82h2M153 82h3M164 82h2M209 82h2M220 82h2M13 83h2M40 83h2M66 83h2M89 83h3M117 83h2M153 83h3M164 83h2M209 83h2M220 83h2M13 84h2M40 84h2M66 84h2M89 84h3M117 84h2M153 84h3M164 84h2M209 84h2M220 84h2M13 85h2M40 85h2M66 85h2M89 85h3M117 85h2M153 85h3M164 85h2M209 85h2M220 85h2M13 86h2M40 86h2M66 86h2M89 86h3M117 86h2M153 86h3M164 86h2M209 86h2M220 86h2M13 87h2M40 87h2M66 87h2M89 87h3M117 87h2M153 87h3M164 87h2M209 87h2M220 87h2M13 88h2M40 88h2M66 88h2M89 88h3M117 88h2M153 88h3M164 88h2M209 88h2M220 88h2M13 89h2M40 89h2M66 89h2M89 89h3M117 89h2M153 89h3M164 89h2M209 89h2M220 89h2M13 90h2M40 90h2M66 90h2M89 90h3M117 90h2M153 90h3M164 90h2M209 90h2M220 90h2M13 91h2M40 91h2M66 91h2M89 91h3M117 91h2M153 91h3M164 91h2M209 91h2M220 91h2M13 92h2M40 92h2M66 92h2M89 92h3M117 92h2M153 92h3M164 92h2M209 92h2M220 92h2M13 93h2M40 93h2M66 93h2M89 93h3M117 93h2M153 93h3M164 93h2M209 93h2M220 93h2M13 94h2M40 94h2M66 94h2M89 94h3M117 94h2M153 94h3M164 94h2M209 94h2M220 94h2M13 95h2M40 95h2M66 95h2M89 95h3M117 95h2M153 95h3M164 95h2M209 95h2M220 95h2M13 96h2M40 96h2M66 96h2M89 96h3M117 96h2M153 96h3M164 96h2M209 96h2M220 96h2M13 97h2M40 97h2M66 97h2M89 97h3M117 97h2M153 97h3M164 97h2M209 97h2M220 97h2M13 98h2M40 98h2M66 98h2M89 98h3M117 98h2M153 98h3M164 98h2M209 98h2M220 98h2M13 99h2M40 99h2M66 99h2M89 99h3M117 99h2M153 99h3M164 99h2M209 99h2M220 99h2M13 100h2M40 100h2M66 100h2M89 100h3M117 100h2M153 100h3M164 100h2M209 100h2M220 100h2M13 101h2M40 101h2M66 101h2M89 101h3M117 101h2M153 101h3M164 101h2M209 101h2M220 101h2M13 102h2M40 102h2M66 102h2M89 102h3M117 102h2M153 102h3M164 102h2M209 102h2M220 102h2M13 103h2M40 103h2M66 103h2M89 103h3M117 103h2M153 103h3M164 103h2M209 103h2M220 103h2M13 104h2M40 104h2M66 104h2M89 104h3M117 104h2M153 104h3M164 104h2M209 104h2M220 104h2M13 105h2M40 105h2M66 105h2M89 105h3M117 105h2M153 105h3M164 105h2M209 105h2M220 105h2M13 106h2M40 106h2M66 106h2M89 106h3M117 106h2M153 106h3M164 106h2M209 106h2M220 106h2M13 107h2M40 107h2M66 107h2M89 107h3M117 107h2M153 107h3M164 107h2M209 107h2M220 107h2M13 108h2M40 108h2M66 108h2M89 108h3M117 108h2M153 108h3M164 108h2M209 108h2M220 108h2M13 109h2M40 109h2M66 109h2M89 109h3M117 109h2M153 109h3M164 109h2M209 109h2M220 109h2M13 110h2M40 110h2M66 110h2M89 110h3M117 110h2M153 110h3M164 110h2M209 110h2M220 110h2M13 111h2M40 111h2M66 111h2M89 111h3M117 111h2M153 111h3M164 111h2M209 111h2M220 111h2M13 112h2M40 112h2M66 112h2M89 112h3M117 112h2M153 112h3M164 112h2M209 112h2M220 112h2M13 113h2M40 113h2M66 113h2M89 113h3M117 113h2M153 113h3M164 113h2M209 113h2M220 113h2M13 114h2M40 114h2M66 114h2M89 114h3M117 114h2M153 114h3M164 114h2M209 114h2M220 114h2M13 115h2M40 115h2M66 115h2M89 115h3M117 115h2M153 115h3M164 115h2M209 115h2M220 115h2M13 116h2M40 116h2M66 116h2M89 116h3M117 116h2M153 116h3M164 116h2M209 116h2M220 116h2M13 117h2M40 117h2M66 117h2M89 117h3M117 117h2M153 117h3M164 117h2M209 117h2M220 117h2M13 118h2M40 118h2M66 118h2M89 118h3M117 118h2M153 118h3M164 118h2M209 118h2M220 118h2M13 119h2M40 119h2M66 119h2M89 119h3M117 119h2M153 119h3M164 119h2M209 119h2M220 119h2M13 120h2M40 120h2M66 120h2M89 120h3M117 120h2M153 120h3M164 120h2M209 120h2M220 120h2M13 121h2M40 121h2M66 121h2M89 121h3M117 121h2M153 121h3M164 121h2M209 121h2M220 121h2M13 122h2M40 122h2M66 122h2M89 122h3M117 122h2M153 122h3M164 122h2M209 122h2M220 122h2M13 123h2M40 123h2M66 123h2M89 123h3M117 123h2M153 123h3M164 123h2M209 123h2M220 123h2M13 124h2M40 124h2M66 124h2M89 124h3M117 124h2M153 124h3M164 124h2M209 124h2M220 124h2M13 125h2M40 125h2M66 125h2M89 125h3M117 125h2M153 125h3M164 125h2M209 125h2M220 125h2M13 126h2M40 126h2M66 126h2M89 126h3M117 126h2M153 126h3M164 126h2M209 126h2M220 126h2M13 127h2M40 127h2M66 127h2M89 127h3M117 127h2M153 127h3M164 127h2M209 127h2M220 127h2M13 128h2M40 128h2M66 128h2M89 128h3M117 128h2M153 128h3M164 128h2M209 128h2M220 128h2M13 129h2M40 129h2M66 129h2M89 129h3M117 129h2M153 129h3M164 129h2M209 129h2M220 129h2M13 130h2M40 130h2M66 130h2M89 130h3M117 130h2M153 130h3M164 130h2M209 130h2M220 130h2M13 131h2M40 131h2M66 131h2M89 131h3M117 131h2M153 131h3M164 131h2M209 131h2M220 131h2M13 132h2M40 132h2M66 132h2M89 132h3M117 132h2M153 132h3M164 132h2M209 132h2M220 132h2M13 133h2M40 133h2M66 133h2M89 133h3M117 133h2M153 133h3M164 133h2M209 133h2M220 133h2M13 134h2M40 134h2M66 134h2M89 134h3M117 134h2M153 134h3M164 134h2M209 134h2M220 134h2M13 135h2M40 135h2M66 135h2M89 135h3M117 135h2M153 135h3M164 135h2M209 135h2M220 135h2M13 136h2M40 136h2M66 136h2M89 136h3M117 136h2M153 136h3M164 136h2M209 136h2M220 136h2M13 137h2M40 137h2M66 137h2M89 137h3M117 137h2M153 137h3M164 137h2M209 137h2M220 137h2M13 138h2M40 138h2M66 138h2M89 138h3M117 138h2M153 138h3M164 138h2M209 138h2M220 138h2M13 139h2M40 139h2M66 139h2M89 139h3M117 139h2M153 139h3M164 139h2M209 139h2M220 139h2M13 140h2M40 140h2M66 140h2M89 140h3M117 140h2M153 140h3M164 140h2M209 140h2M220 140h2M13 141h2M40 141h2M66 141h26M117 141h2M153 141h3M164 141h2M209 141h2M220 141h2M13 142h2M40 142h2M66 142h26M117 142h2M153 142h3M164 142h2M209 142h2M220 142h2M13 143h2M40 143h2M117 143h2M153 143h3M164 143h2M209 143h2M220 143h2M13 144h2M40 144h2M117 144h2M153 144h3M164 144h2M209 144h2M220 144h2M13 145h2M40 145h2M117 145h2M153 145h3M164 145h2M209 145h2M220 145h2M13 146h2M40 146h2M117 146h2M153 146h3M164 146h2M209 146h2M220 146h2M13 147h2M40 147h2M117 147h2M153 147h3M164 147h2M209 147h2M220 147h2M13 148h2M40 148h2M117 148h2M153 148h3M164 148h2M209 148h2M220 148h2M13 149h2M40 149h2M117 149h2M153 149h3M164 149h2M209 149h2M220 149h2M13 150h2M40 150h2M117 150h2M153 150h3M164 150h2M209 150h2M220 150h2M13 151h2M40 151h2M117 151h2M153 151h3M164 151h2M209 151h2M220 151h2M13 152h2M40 152h2M117 152h2M153 152h3M164 152h2M209 152h2M220 152h2M13 153h2M40 153h2M117 153h2M153 153h3M164 153h2M209 153h2M220 153h2M13 154h2M40 154h2M117 154h2M153 154h3M164 154h2M209 154h2M220 154h2M13 155h2M40 155h2M117 155h2M153 155h3M164 155h2M209 155h2M220 155h2M13 156h2M40 156h2M117 156h2M153 156h3M164 156h2M209 156h2M220 156h2M13 157h2M40 157h2M117 157h2M153 157h3M164 157h2M209 157h2M220 157h2M13 158h2M40 158h2M117 158h2M153 158h3M164 158h2M209 158h2M220 158h2M13 159h2M40 159h2M117 159h2M153 159h3M164 159h2M209 159h2M220 159h2M13 160h2M40 160h2M117 160h2M153 160h3M164 160h2M209 160h2M220 160h2M13 161h2M40 161h2M117 161h2M153 161h3M164 161h2M209 161h2M220 161h2M13 162h2M40 162h2M117 162h2M153 162h3M164 162h2M209 162h2M220 162h2M13 163h2M40 163h2M117 163h2M153 163h3M164 163h2M209 163h2M220 163h2M13 164h2M40 164h2M117 164h2M153 164h3M164 164h2M209 164h2M220 164h2M13 165h2M40 165h2M117 165h2M153 165h3M164 165h2M209 165h2M220 165h2M0 166h230M0 167h230M0 168h2M228 168h2M0 169h2M228 169h2M0 170h2M228 170h2M0 171h2M228 171h2M0 172h2M228 172h2M0 173h2M228 173h2M0 174h2M228 174h2M0 175h2M228 175h2M0 176h2M228 176h2M0 177h2M209 177h21M0 178h2M209 178h21M0 179h2M228 179h2M0 180h2M228 180h2M0 181h2M228 181h2M0 182h2M228 182h2M0 183h2M228 183h2M0 184h2M228 184h2M0 185h230M0 186h230" />
</svg>